/* XPM */
static char *Screenshot_from_2023_12_04_12_30_46_resized[] = {
/* columns rows colors chars-per-pixel */
"64 64 224 2 ",
"   c #161204",
".  c #191204",
"X  c #221405",
"o  c #2A1404",
"O  c #201807",
"+  c #211708",
"@  c #241909",
"#  c #2A1D0C",
"$  c #321A08",
"%  c #2D200F",
"&  c #2E2111",
"*  c #342413",
"=  c #392612",
"-  c #372817",
";  c #3D2913",
":  c #3E2915",
">  c #3A2A19",
",  c #41260F",
"<  c #432B13",
"1  c #452F19",
"2  c #44321B",
"3  c #4B351C",
"4  c #4C381E",
"5  c #55371B",
"6  c #52391D",
"7  c #643E1C",
"8  c #443421",
"9  c #4D3721",
"0  c #4E3A22",
"q  c #533D23",
"w  c #5A3E21",
"e  c #503F29",
"r  c #68421E",
"t  c #554126",
"y  c #5B4326",
"u  c #56422A",
"i  c #5C452A",
"p  c #5D492C",
"a  c #5D4C33",
"s  c #5A4A34",
"d  c #5F5039",
"f  c #634424",
"g  c #6B4622",
"h  c #654826",
"j  c #6D4925",
"k  c #62462A",
"l  c #634A2C",
"z  c #6B4D2D",
"x  c #734A25",
"c  c #7C4E25",
"v  c #734E2A",
"b  c #6C502F",
"n  c #7F5026",
"m  c #74512C",
"M  c #7C532C",
"N  c #634D33",
"B  c #6A4E32",
"V  c #665134",
"C  c #6C5234",
"Z  c #6B5537",
"A  c #6C553A",
"S  c #6F5B3C",
"D  c #735535",
"F  c #795535",
"G  c #735836",
"H  c #7C5A36",
"J  c #735639",
"K  c #735C3C",
"L  c #7B5C3B",
"P  c #74603F",
"I  c #7C613E",
"U  c #6E5B41",
"Y  c #755D43",
"T  c #756141",
"R  c #7C6443",
"E  c #7D6845",
"W  c #7A664B",
"Q  c #7B694C",
"!  c #7A6B51",
"~  c #855224",
"^  c #8B5526",
"/  c #84562C",
"(  c #8A572A",
")  c #8C5728",
"_  c #87582D",
"`  c #8C582B",
"'  c #925628",
"]  c #945B2C",
"[  c #9A5D2D",
"{  c #835B34",
"}  c #8A5D33",
"|  c #825D3C",
" . c #96602F",
".. c #9B602F",
"X. c #8B6137",
"o. c #84613C",
"O. c #8B633B",
"+. c #946234",
"@. c #9B6433",
"#. c #92653A",
"$. c #95683C",
"%. c #9C693B",
"&. c #A2612F",
"*. c #A46331",
"=. c #A96431",
"-. c #A46935",
";. c #AB6B35",
":. c #A36B3A",
">. c #AB6E3A",
",. c #B06E39",
"<. c #AD713D",
"1. c #B1723D",
"2. c #825F40",
"3. c #846443",
"4. c #8A6542",
"5. c #826A45",
"6. c #8C6944",
"7. c #826648",
"8. c #846C4B",
"9. c #8A6C4B",
"0. c #926B44",
"q. c #976E46",
"w. c #977149",
"e. c #9D744B",
"r. c #856E51",
"t. c #8D7353",
"y. c #947453",
"u. c #9B7651",
"i. c #9D7954",
"p. c #947758",
"a. c #967A5A",
"s. c #9B7C5B",
"d. c #A16F40",
"f. c #A47244",
"g. c #AB7342",
"h. c #A47A4D",
"j. c #A8784A",
"k. c #B37642",
"l. c #B67946",
"z. c #B87A47",
"x. c #B37C4A",
"c. c #BB7E4A",
"v. c #A37B53",
"b. c #A57B54",
"n. c #A27D5A",
"m. c #C07F4B",
"M. c #9B805F",
"N. c #B7814E",
"B. c #AD8456",
"V. c #A4825C",
"C. c #AC835B",
"Z. c #B58454",
"A. c #B98754",
"S. c #BD8955",
"D. c #B1865C",
"F. c #B38A5C",
"G. c #BC8D5B",
"H. c #BE915E",
"J. c #9D8363",
"K. c #A28463",
"L. c #A88762",
"P. c #AC8A64",
"I. c #B38C64",
"U. c #BA8E62",
"Y. c #B28E68",
"T. c #BC9365",
"R. c #B4946A",
"E. c #BB956C",
"W. c #BB9A6E",
"Q. c #BC9C70",
"!. c #C2834D",
"~. c #C58751",
"^. c #C28B56",
"/. c #C28E59",
"(. c #CD9257",
"). c #C3915C",
"_. c #CB945A",
"`. c #CD995E",
"'. c #D09256",
"]. c #D1955A",
"[. c #D3995D",
"{. c #D8995E",
"}. c #C49463",
"|. c #C79767",
" X c #C99664",
".X c #CC9B64",
"XX c #C2966A",
"oX c #C59A6C",
"OX c #CB9C6B",
"+X c #D29C62",
"@X c #DA9F66",
"#X c #D19E6B",
"$X c #C39D72",
"%X c #CA9E71",
"&X c #CDA06D",
"*X c #D4A067",
"=X c #D5A26B",
"-X c #DAA56C",
";X c #CDA273",
":X c #C8A277",
">X c #D2A372",
",X c #D8A673",
"<X c #D4A975",
"1X c #DAA975",
"2X c #D2A679",
"3X c #D5A97A",
"4X c #DBAC7A",
"5X c #DDB17B",
"6X c #E2AD76",
"7X c #E3B37D",
"8X c #E8B37D",
"9X c #D8AE82",
"0X c #DCB284",
"qX c #DDB589",
"wX c #E3B485",
"eX c #EAB684",
"rX c #E1B689",
"tX c #E4BA8E",
"yX c #E9BB8E",
"uX c #E6BD91",
"iX c #E9BE92",
"pX c #EBC296",
"aX c #EEC599",
"sX c #F1C69B",
/* pixels */
". . . + O O O O . .   .     . . .   . . . .       .   . .   . .   . . . . X o 1 d ! ! 5.8.r.8.8.8.8.8.r.t.8.8.8.E E E P P T E d ",
". . . O O . O O . .         .   .                 .   . . .   .   . . . . X % > d ! r.8.8.8.8.8.Q 8.8.8.8.8.8.8.8.E E P P T P s ",
". . . . . . . . .                                       . . . . . . .   . @ & 8 d ! r.8.8.8.8.8.8.8.r.9.9.8.8.8.E E P P E P P a ",
". . . . . .   . .                                     . . . . . . .   . . . % 8 d ! r.8.8.8.8.8.8.8.8.9.8.8.8.8.E I P P P P P a ",
". .           .                                 .     . X X . X X . . . . + % 8 d ! ! 8.8.8.8.E 8.9.8.5.3.5.5.5.E T P P P P P s ",
". .           .                         . . . . . . . . X X X X X . . . X @ % 8 s ! r.8.5.9.8.9.5.6.O.G b o.5.5.E T P P T T T a ",
"            . .                     . . X . . X . . . X X X X X X X . X X + % 8 d W r.8.8.8.9.9.6.O.{ z h I 5.E E P P S P S P s ",
".         . .                       . - 1 > $ X X X X X X X X X X X X X X + % 8 s W 8.8.8.8.5.9.o.H M r h I 5.E E P P S S S S s ",
".   .     . . .                     O 1 0 w 3 = o X X X X X X X X X X X X @ & 8 N W r.7.5.8.9.4.M n j f h I 5.E E P P S K S S p ",
". .   . . .   .                   . + 3 5 5 7 q , o o o X X X X X X X X @ @ & 8 s ! r.7.8.5.5.| n c x f h I 5.E E P P P P P P s ",
".     .   . .           .       .   o 1 5 r g r w , o o X X o X X X X o o o % 8 s ! r.r.8.9.4.{ n x j h h P 5.E P P P P P P P a ",
". . . .                 . .         + 1 w v v v g w , o o o o o X X X o o o $ 1 s W r.7.6.6.O./ n x h h h P 5.E E P P P P S S p ",
". . . . .       .   . .     . . . . o 3 f m M F x g w < $ o o o o o o o $ $ , w D 7.9.0.0.$.X.` n j g h h P I 5.P P P P P S P p ",
". . . .           .   . . . . . O o # 9 z m M H J g r r w < o o $ $ , 1 f z M | 0.q.d.d.d.%.@.` n x h 7 y b I I P P S K S S P p ",
". . . .     . . . @ @ @ @ @ % % & & * e D m v { 4.v r g v j 5 3 r D F | | 4.#.#.:.>.>.g.>.:...) n x x 7 7 h P I I P K K S S P p ",
"@ . .   . . X @ * * * - - - > > > > > u C v g v o.| x x ~ ) ^ ^ ' _  ...&.&.&.&.=.-.-.>.>.-.*.' ~ n x h h h I I I P S P P P P p ",
"& @ . . . . # * * * * * > > > > > > > 9 B B r g | } { _ ] [ ..[ [ ' ' &.&.&.&.=.&.-.;.;.>.,.;.-. .^ M x g j H I P P K P P P P p ",
"- * @ . . + # # & & * * * * * : > > > 8 B F g x | #.+.+.[ [ [ [ [ &.&.&.&.&.&.&.=.-.-.;.,.1.1.1.-. ._ x g j H P H P G K S G P a ",
"> > & . . @ # # & & * * * * * > * > 8 9 F 2.| v / q.:.@.....[ ..&.&.&.&.=.&.&.=.&.&.=.,.<.1.m.z.<.-.` n m m H I H G G G S S P s ",
"> 8 * X . O @ # $ > > 1 8 1 9 9 9 i k k U 4.q.#.$.d.:.&.[ ......&.=.=.=.=.=.=.=.=.=.;.1.k.z.1.N.N.x.%.X.X.X.X.H H G G K P S S s ",
"> 8 * X X O # * 8 e e s N N B C B B J B | q.:.:.g.g.:.&.[ [ [ [ &.=.=.=.=.&.=.=.;.;.,.1.z.z.N.z.l.l.l.j.f.f.f.#.M G G P S S S s ",
"> > - @ @ * 9 u N k U B U C A D J F F | | d.g.z.c.k.:.[ [ [ [ ] ' &.=.=.=.=.=.=.;.;.,.1.1.1.1.z.c.l.c.N.N.x.x.g.:.X.H P G P S p ",
"* - > * 9 u V V B U F U F Y J | | | 2.2.4.f.z.m.m.k.=.[ ' ' ' ' ' [ &.&.=.=.=.=.=.,.1.1.1.1.1.1.l.l.c.c.x.c.c.N.N.N.$.O.I P P p ",
"* > 9 s U A J U Y F Y F | | | | 2.2.2.4.q.g.m.m.z.>.&.[ ' ' ~ ^ ' [ [ &.=.=.=.=.=.,.,.,.1.1.1.<.k.l.c.c.c.c.c.c.j.N.N.V.$.I P a ",
"9 s C A L L J L L L F L L L | | | 2.2.4.b.m.m.m.k.=.&.' ' ^ ^ ^ ' ]  ...&.&.=.=.=.;.;.;.;.;.;.>.1.k.l.l.1.!.N.z.x.x.N.w.$.o.E d ",
"A U K J J L L H F L G L K H H L | | 4.b.m. X Xm.k.g.&.' ^ ^ ~ ~ ^ '  ...&.&.-.=.=.-.-.-.-.;.;.;.<.1.1.l.!.N.1.N.N.x.<.B.V.O.I V ",
"A U Y J J L L F H D G G G G F F F 2.b.m. X'.'.m.l.g.=.[ ) ^ ~ ~ ' ] ] ..-.;.,.<.<.-.-.%.-.-.-.-.>.<.k.N.1.1.l.N.x.x.<.N.j.w.X.l ",
"S U J J J J J D C B z z z z C D | n.XX%X{.{.{.'.m.c.k.*.] ^ ~ ~ ' ' ] %.<.k.N.N.N.x.>.-.@.@.-.-.-.>.1.k.1.1.<.<.1.<.:.:.:.$.O.p ",
"N N N N k k f w w q y k k k k F n.m. X#X{.{.{.{.{.'.c.g.] ^ ~ ~ ^ ] @.g.S.^././.^.N.<.@. ... ...@.-.-.-.-.-.:.:.%.@.+.%.%.$.$.p ",
"q q 4 q 9 5 5 1 5 3 w k k l l w.XX9X#X{.{.{.@X-X@X XS.g...^ ~ ^ ^ [ :.x.(._.`..X XS.>.+. .]  ...@.-.:.-.-. . .+.@.%.#.+.X.#.O.V ",
"9 4 3 3 5 3 5 5 1 3 y k l h | Y.9X%X@X Xm.@X6X6X6X@X^.g.@.) ^ ^ ^ @.j.^..X@X=X#X*X).N.<.@..... .@.-.:.%. .) ^ X.+.#.O.O.X.X.O.V ",
"q q w w w q 3 3 3 5 k k l D L.>X9Xm.{.{.-XeXeX6X6X@X~.f.@.` ` ' ] :.c.).#X1X1X,X,X=X XS.N.-.@.+.@.%.-. .( ^ ( #.$.O.O.X.o.o.O.V ",
"t i y y y y 6 3 9 i z B B s.%X4X6X@X@X@X6XeXwXwX,X#X/.g.:.] ] ] +.f.A.|.>X1X1X2X2X2X;XOXG.f.@.@.%.%.@.` _ { } 0.q.6.o.o.{ { H l ",
"t p y t t q 3 3 f l D C Y $XtXwX6X6X-X6X8XeX6X,X#X|./.j.d.@.@...$.g.A.}.>X>X;X|.oX$X%X$X}.b.%.@.%.+.) / ` | 0.0.0.6.4.| L H H l ",
"t t 4 q t t 3 6 k B C C u.9XyXyXeXwX6XwX8X6X6X>XOXOX).x.g.*.%.@.:.g.A.}.OXOXoXU.b.h.h.v.v.q.O.} } _ ~ / #.6.0.0.4.2.2.2.L L L l ",
"t 4 4 q t 6 6 i B D D F I.qXiXiXeXeXwX,X}.c.|.%XOXOXOXU.x.f.f.f.<.j.A.T.XXXXI.h.M g g o.F x x c M M | q.u.q.9.4.2.2.Y F K L K l ",
"0 0 4 t w w k D | q.0.f.>XtXiXiXiXiXwXb.~ ~ q.U.XXoX|. X/.x.x.x.x.x.Z.G.I.U.b.} 7 , < 6 6 < 5 L 4.4.y.n.n.y.9.2.| L L L L K K p ",
"0 0 t p z F y.n.n.D.b./.wXyXiXiXiXiXtXf.r 7 x b.E.OX|.|.}.Z.x.x.A.A.S.A.D.D.h.x < , , , = ; w 3.6.9.s.n.s.n.p.7.2.3.Y L L L K p ",
"k C 5.y.b.D.}.}. X X X#XwXtXtXpXiXsXiXE.x 7 j h.XXXX|. X}.).S.G./././.U./.n.e.v 5 = , , , 3 B 3.3.9.i.s.s.i.y.9.3.3.3.Y L L I l ",
"5.p.F.T. X_. X+X+X].+X@X6X0XwXtXaXsXiX9Xb.4.q.I.E.XX|. X X X).).).U././.I.n.j.| v f f k D | Y 2.3.6.y.p.p.y.9.7.7.4.3.L L R 3.C ",
"V.R.XXOX*X+X+X[.[.[.[.[.-X4X0XqXuXiXuXtXqXqX9X$X$X|.|. X X X X).}.}./.U.D.b.b.i.u.i.i.n.K.s.7.2.2.3.9.9.9.9.o.I 2.R R I L E 8.A ",
"R.oX;X>X=X*X*X+X+X].].'.+X1X5X0XqXuXtXuXtXqX9X9X2XOX|.OX|.OXOX|.OXOX}.}.U.b.b.b.v.v.n.K.K.s.7.2.2.o.3.3.5.I I G L L L I o.8.t.U ",
"R.;X>X<X<X=X*X+X.X'.'.'.+X,X4X0XqXqXuXuXuXuXtXqX4XOXOX|.|.OXOXOXOXOX|.|.|.U.C.B.n.L.I.I.Y.n.9.| L K L L L I K G Z F K K 3.y.y.Y ",
"R.;X>X,X1X-X=X*X[.'.(.(.].=X4X4X9XqXuXsXsXiXiXrX1XOX XOX#X#X#X#X#XOX|.#XOXoXF.C.I.R.W.$XXXI.p.Y L J G L K F Z G Z Z G P y.K.K.W ",
"R.;X-X<X1X1X=X*X].'.(.(.(.+X1X3X9X9XuXsXsXsXiXrX1X#X#XOX&X&XOX&X#X#X=X>X>X$XU.D.U.E.$X:X$XR.u.L D D b C C b V b V C Z E a.K.J.! ",
"Q.2X<X5X5X1X-X*X[.'.(.(.(.+X1X7X0XqXuXsXsXiXtXrX3X>X>X>X;X&X&X&XOX>X4X3X2X%XU.D.I.XX$X$X$XY.u.Y D z z l b l l l l C F 8.s.K.J.Q ",
"Q.3X5X7X7X5X1X-X+X'.(.(.(..X1XwXqXqXuXsXsXiXtXrX4X%X>XOX;X;X&X&X;X>X3X2X;XXXI.D.I.E.$X$XW.n.y.L D l k l l l p k k l G t.J.K.J.Y ",
"Q.3X5X7X7X5X<X-X{.'.'.'.'.`.,XwXiXpXiXpXsXiXtXrX3X;X;X;X:XOXoX&X;X2X3X2X%XU.D.C.L.U.XXE.L.y.2.J z k k p p l k l p b T a.J.J.s.Y ",
"Q.<X5X5X5X5X<X-X[.`.'.'.'.[.-X7XiXpXpXpXpXpXtX0X3X;X&X$XoX&X&X&X%X2X2X%XXXD.b.V.b.C.P.V.e.o.D b l i y i i p p l k b R a.K.J.s.Y ",
"Q.<X5XwX7X5X-X*X[.`.(.(.'.[.*X5XrXiXpXpXpXpXtX0X>XoXXX}.oXoXoX:X:X2X2X$XU.V.v.u.i.i.u.6.o.G b l k i i y y i i i p C 8.J.K.J.p.U ",
"Q.<X5X7X7X5X-X*X`.(.(.(.[.+X-X<X3X0XtXpXpXpX0X3X&X}.U.U.T.oX;XoX:X2X%XE.C.v.u.u.w.w.6.o.F C z V i i i y y y y i p G y.J.J.J.t.U ",
"Q.<X5XeX5X5X<X*X`.(.(.(.[.[.*X=X=X-XwXpXpXtX0X&XT.D.P.F.T.W.$X$X:X$X$XI.n.u.w.0.6.3.L D z l l k i i i i i t y y p K p.J.J.J.t.A ",
"Q.<X5X7X7X5X<X`.`.(.(.].].[.*X*X*X=X1XiXpXtX>XT.D.V.V.B.B.T.Q.:X$XQ.I.L.v.w.6.o.o.F C z k k p p i i i t t t t y N E s.J.J.J.t.A ",
"W.:X5X5X7X5X<X.X`.(.(.(.].[.*X*X*X*X3XiXpXqXoXF.h.w.w.i.P.R.W.:X$XQ.P.b.u.0.O.o.L D l l k p p p p y u q q q t i G r.J.J.J.a.r.V ",
"R.&X5X5X5X5X<X`.`._.(.(.[.*X*X*X*X=X1XiXpX0XF.v.0.O.w.i.P.W.Q.$XE.E.L.b.i.0.O.L G z l l i i i y y y t 9 9 q t l R t.a.a.p.r.W a ",
"R.&X<X5X5X5X<X`._.).(.(.[.[.[.*X*X=X1XyXtX$Xu.O.o.I 6.i.P.R.W.E.E.I.L.n.i.9.o.H D z l l i i i p i t q 9 9 9 t V W p.a.a.y.5.W V ",
"R.&X<X<X<X<X`.H.H.S.(.(.`.[.+X+X+X*X-XrX&Xe.| F z v F y.J.P.P.Y.Y.P.K.s.y.0.2.J m l k p i t i t u 0 9 3 9 0 u J E p.a.p.t.r.R N ",
"R.&X<X<X&X.XH.H.S.).H.(.[.[.+X*X+X+X-X5Xe.G z k y 5 y B 7.a.L.P.L.K.s.y.w.9.3.J b l y y i t y t q 9 9 2 4 0 p K E r.t.8.8.8.R a ",
"R.&X&X&XQ.H.A.N.A.A.S.`.`.*X*X*X+X+X=X)./ h p t w 4 3 6 k 7.p.J.s.p.9.6.7.3.R D b p y t t t t 0 4 2 3 4 4 0 a T 8.8.8.8.7.E Y p ",
"R.W.`.H.F.B.h.h.B.A.S.`.*X*X*X+X+X+X+Xh.x y t t q 3 2 1 3 p 8.p.y.8.2.Y L L K J b l t t t 4 4 4 3 2 2 2 4 t V T r.8.Q 8.W Y A e ",
"F.H.H.B.B.h.d.w.B.B.H.`.+X*X*X+X[.`.(.} r y q q 4 1 ; ; ; 1 G 8.7.T G G G A A C V y t q 0 4 4 4 2 2 2 3 4 u V T 8.8.E E T A N 8 ",
"B.F.F.B.B.w.$.0.f.B.H.`.+X*X*X+X`.(.S.} r 4 4 4 3 ; ; = = 2 N G J S V V V V C l p t 4 4 3 2 > > 2 2 2 3 9 u Z R 8.E E W J N u 1 ",
"M.F.B.h.w.0.O.O.V.B.H.*X*X*X*X`.`.(.S.h.j 6 2 < ; = ; * = ; i Z Z V N p p p p p u t 4 3 2 2 2 2 > 4 2 4 0 i A E Q E T Y C i q ; ",
"B.B.h.h.w.O.X.X.h.Z.H..X*X*X*X[.`.(.S.F.#.6 2 , = = = * = > u a N N p p i p i y t 0 4 4 4 > 2 2 2 > 4 8 0 i S E E E T G N w 3 = "
};
