/* XPM */
static char *Screenshot_from_2023_11_27_14_47_13_resized[] = {
/* columns rows colors chars-per-pixel */
"64 64 207 2 ",
"   c #027E00",
".  c #0B7A00",
"X  c #147602",
"o  c #117A18",
"O  c #2C6A00",
"+  c #007F2E",
"@  c #3B7F3C",
"#  c #595400",
"$  c #7D4204",
"%  c #58542E",
"&  c #6E4923",
"*  c #694C2E",
"=  c #6D4D2D",
"-  c #596331",
";  c #007F46",
":  c #007F74",
">  c #5C5244",
",  c #545659",
"<  c #615343",
"1  c #4B5A69",
"2  c #485C70",
"3  c #797E77",
"4  c #823F00",
"5  c #8E3909",
"6  c #94360F",
"7  c #953714",
"8  c #AF2835",
"9  c #804000",
"0  c #84490F",
"q  c #904F3B",
"w  c #A23761",
"e  c #CE194E",
"r  c #D11E4E",
"t  c #DA1359",
"y  c #C41F65",
"u  c #DA1365",
"i  c #EE076A",
"p  c #F40575",
"a  c #FE017E",
"s  c #CD2972",
"d  c #80664C",
"f  c #B44067",
"g  c #008000",
"h  c #008B00",
"j  c #00800B",
"k  c #0B830B",
"l  c #009E00",
"z  c #038116",
"x  c #118111",
"c  c #1C811C",
"v  c #00A200",
"b  c #00AB00",
"n  c #00B200",
"m  c #008022",
"M  c #008028",
"N  c #0F8C2D",
"B  c #008037",
"V  c #238123",
"C  c #2A802A",
"Z  c #249524",
"A  c #368036",
"S  c #3F803F",
"D  c #3D8E3D",
"F  c #469C0B",
"G  c #00D300",
"H  c #00DC00",
"J  c #2ECC1C",
"K  c #01E201",
"L  c #00EE00",
"P  c #00F200",
"I  c #00FE01",
"U  c #09F609",
"Y  c #0CED10",
"T  c #04E629",
"R  c #009149",
"E  c #008256",
"W  c #00806B",
"Q  c #008076",
"!  c #0DB57B",
"~  c #448144",
"^  c #458F45",
"/  c #4E804E",
"(  c #459245",
")  c #578257",
"_  c #589958",
"`  c #56A956",
"'  c #648064",
"]  c #6C816C",
"[  c #6C956C",
"{  c #728072",
"}  c #728F72",
"|  c #7C817C",
" . c #05D746",
".. c #04C768",
"X. c #00C17D",
"o. c #FFFF00",
"O. c #F3F809",
"+. c #FEFE0B",
"@. c #E7F114",
"#. c #C1DD37",
"$. c #D5E72A",
"%. c #C9E131",
"&. c #93BF5A",
"*. c #96887A",
"=. c #84BD7C",
"-. c #9ECB5A",
";. c #A9CE54",
":. c #95C663",
">. c #187488",
",. c #027F95",
"<. c #376491",
"1. c #007FA4",
"2. c #256DB6",
"3. c #3068B0",
"4. c #604E8D",
"5. c #5157B8",
"6. c #1974CE",
"7. c #1379DD",
"8. c #0B7BE8",
"9. c #1477E1",
"0. c #187DE1",
"q. c #057EF5",
"w. c #0E72FF",
"e. c #017FFE",
"r. c #0979F9",
"t. c #2070E7",
"y. c #5C52C7",
"u. c #4B5BD5",
"i. c #5456D0",
"p. c #5058D2",
"a. c #B6379C",
"s. c #B325A3",
"d. c #CF1897",
"f. c #FE0181",
"g. c #F90B83",
"h. c #F61686",
"j. c #EB318F",
"k. c #827F82",
"l. c #A4639D",
"z. c #A252AC",
"x. c #9E6DA2",
"c. c #E54393",
"v. c #CE79A4",
"b. c #D37BA4",
"n. c #008089",
"m. c #008097",
"M. c #008099",
"N. c #27908D",
"B. c #07AC9B",
"V. c #13A394",
"C. c #0080A3",
"Z. c #0080AB",
"A. c #1E82AD",
"S. c #0582B8",
"D. c #3A9ABF",
"F. c #01A8AA",
"G. c #00A4B6",
"H. c #5BA99D",
"J. c #6EB287",
"K. c #6DB38B",
"L. c #4BA2AD",
"P. c #0080C9",
"I. c #009ACD",
"U. c #0080DC",
"Y. c #0093DA",
"T. c #2B93CF",
"R. c #2891D5",
"E. c #00A2C1",
"W. c #0080EA",
"Q. c #0487E8",
"!. c #1C81E5",
"~. c #1685E8",
"^. c #0082F4",
"/. c #0080FF",
"(. c #0B85FF",
"). c #1289FF",
"_. c #198BFC",
"`. c #238DF7",
"'. c #2291FF",
"]. c #2A95FF",
"[. c #349AFF",
"{. c #3B9CFE",
"}. c #5E98D1",
"|. c #42A1FF",
" X c #4AA5FF",
".X c #58ACFF",
"XX c #6AB5FF",
"oX c #71B8FF",
"OX c #7BBDFF",
"+X c #818181",
"@X c #898989",
"#X c #A6A3A0",
"$X c #C1B0B7",
"%X c #88C4FF",
"&X c #97CBFF",
"*X c #A8D4FF",
"=X c #B3D9FF",
"-X c #BBDDFF",
";X c #C4E2FF",
":X c #CBE5FF",
">X c #D0E7FF",
",X c #D1E8FF",
"<X c #DEEEFF",
"1X c #EDF6FF",
"2X c #F0F7FF",
"3X c #F4F9FF",
"4X c #FFFFFF",
/* pixels */
"0././././././.e.oX4X4X4X4X4X4X4X4X4X4X4X4X4X-X(.e./././././.e.%X4X4X4X4X4X4X4X4X4X4X4X4X>XOX4X4X4X4X4X4X4X4X1X{.;.o.o.o.o.o.o.+.",
"!.e./././././.e. X4X4X4X4X4X4X4X4X4X4X4X4X4X*X/././././././.e.oX4X4X4X4X4X4X4X4X4X4X4X4X*X{.1X4X4X4X4X4X4X4X=X/.&.o.o.o.o.o.o.+.",
"!././././././.e.].1X4X<X4X4X4X4X4X4X4X4X4X4X%X/././././././.e.|.3X4X4X4X4X4X4X4X4X4X4X4XXX(.-X4X4X4X4X4X4X4X.Xe.J.o.o.o.o.o.o.+.",
"0./././././././.(.&X*XOX4X4X4X4X=X:X4X4X4X4X.Xe./././././././.).>X4X4X4X4X4X4X4X4X4X4X1X'.e. X4X4X4X4X4X4X=X).e.D.O.o.o.o.o.o.+.",
"0././././././././.(.(. X4X4X4X1X{.%X4X4X4X1X[.e./././././.e./.e.XX1X4X4X4X4X4X4X4X4X4X%X/././.*X4X4X4X4X;X]././.~.$.o.o.o.o.o.+.",
"0././././././././././.[.1X4X4X&X/. X4X4X4X:X)././././././././././.[.:X4X4X4X4X4X1XOX&X'.e././.'.&X:X;XoX)././././.-.o.o.o.o.o.+.",
"0./././././././././.e._.1X4X,X].e.(.-X4X4XOXe./././././././././.e.e.*X4X-X*X4X4X=X(./././././.e./.).(.e././././.e.K.o.o.o.o.o.+.",
"0./././././././././.e.e.OX=X{.e./.e. X1X>X'.e././././././././././.e.OX2X X].>X-X].e./././././././.e././././././.e.T.@.o.o.o.o.+.",
"0././././././././././././.(./././././. X[.e./.e./././././././././.e.'..X/./.'.(././././././././././././././././.e.~.%.o.o.o.o.+.",
"0././././././././././././././././././.e.e./././././././././././././.e.e././.e.e././././././././././././././././././.:.o.o.o.o.+.",
"0./././././././././././././././././././././././././././././././././.e././././././././././././././././././././././.e.H.o.o.o.o.+.",
"0././././././././././././././././././././././././././././././././././././././././././././././././././././././././.e.R.@.o.o.o.+.",
"0./././././././././././././././././././././././././././././././././././././././././././././././././././././././././.^.;.o.o.o.+.",
"0.e./././././././././././././././././././././././././././././././././././.e./././././././././././././././././././././.L.O.o.o.+.",
"0././././././././././././././././././././././.(./././././././././././././././././././././././././././././././././././.~.%.o.o.+.",
"!./././.e./././././././././././././././././././././././././././././././././././././././././././././././././././././././.J.o.o.+.",
"!././././././././././././././.e././././././././.^.e.6.q./././././././././././././././././././././././././././././././.e.R.@.o.+.",
"!././././././././././././././././././././././././.q.2 9./././././././././././././././././././././././././././././././././.-.o.+.",
"!././././././././././././././././././././././././.7.& 2././././.e././././././././././././././.e././././././././././././.e.L.O.+.",
"!././././././././././././././././././././././.(.e.3.4 1 /./././././././././././././././././././././././././././././././.e.~.#.+.",
"!././././././././././././././././././././././././.1 9 = 8././././././././././././././././././././././././././././././././.e.K.+.",
"!.e././././././././././././././././././././.e.).}.= 9 0 2././././././././././././././././././././././././././././././././.e.R.$.",
"!./././././././././.e./././././.e./././././.e.`.#X0 9 9 <././.e./././././././././././././././././././././././././././././././.=.",
"!./././././././././././././././././././././.e.`.*.9 9 9 > q./.Y.^.e./././././.e././././././././././././././././././././././.e.R.",
"!././././././././././././././././././././././._.< 9 9 9 & 8.Q. ...X.^././././././././././././././././././././././././././././.(.",
"!./././.e././././././././././././././././././.9.0 0 9 9 $ 2.E.I I I G./././././././././././././././././././././././././././.e.(.",
"!././././././././././././././././././././././.3.9 9 9 9 6 4.G.U I I G././././././.e./././././././././././././././.e./././././.(.",
"!./././././././././././././././././././././.8.> 5 8 r u i d.B.I I T Y./././././././././././././././././././././././././././.e.(.",
"!./././././././././././././././././././././.3.8 i a f.h.c.a. .I I I G././././././././././././././././././././././././././././.(.",
"!.e././././././././././././././././././././.y.a g.h.a j.$Xl.T I I I F./././././././././././././././././././.e./././././././.e.(.",
"!./././././././././././././././././././././.p.g.v.c.a j.$Xx.T I I T Q././././././././././././././././././././././././././././.(.",
"!././././././././././././.e././././././././.i.g.v.j.a h.b.z...I I T Y././././././././././././././././.e././././././././././.e.(.",
"!./././././././././././././././././././.e./.i.g.h.f.f.f.g.s.B.I I I G.e./././././././././.e./././././././././././././././././.(.",
"!./././././././././././././././././././.e.e.p.a a f.a f.a s.! I U J I././.e././././././././././././././././././././././././.e.(.",
"!./././././././././././././././././././././.u.g.f.f.f.f.a s...P P ! 8.8.8.q./././././././././././././././././././././././././.(.",
"!./././././././././././././././././././././.u.f.a f.f.a a s.V.J I F.r.q.q.q./././././././././././././././././././././.e././.e.(.",
"!./././././././././././././././././././././.u.f.f.a t p a s.7.- F N.e.r.q.q./././././././././././././././././././././././././.(.",
"!./././././././././././././././././././././.u.g.f.p 7 e f.s.9.& < 7.e.e.e.q././././././././././././.e././././././././.e././.e.(.",
"!./././././././././././././././././././././.p.f.f.p 7 r f.d.9.& , e.r.w.w.r./././././././././././././././././././././././././.(.",
"!./././././././././././././././././././././.i.f.f.p 7 t f.d.t.* , q.e.e.(.e.e././././././././././././././././././././././././.(.",
"!./././.W.Q.8.8.8.q.q.e.e.e././././././.q.^.5.u y s q f f w >.% % ,.M.M.M.m.m.m.m.n.Q Q Q Q Q Q Q n.n.m.C.Z.S.P.P.U.Q.8.W././.(.",
"!./.W.W m z z m + + ; : ,.1.C.Z.C.C.Q E R N o o X 3 +X+X@     # # g g g g g g g g g g g g g g g g g g g g g g j o z m M B E n.S.",
"A.Q B g g g g g h G n b g g g g v v n G H H h g k ] k.k.) g g # #   g g g g g g g g g g g g g g g g g g g g g g g g g g g g g x ",
"V g g g g g g h H I I P G h g h K L P I I I l g o 3 k.k.@ o g O # X g g g g g g g g g g g g g g g g g g g g g g g g g g g g g k ",
"c g g g g g   v I I I I I v g h P I I I I I l   c *.4.J./ g . X O . g g g g g g g g g g g g g g g g g g g g g g g g g g g g g k ",
"c g g g g g   b I I I I I v   h L I I I U Y Z @ ' +X*.*.~ g g . X   g g g g g g g g g g g g g g g g g g g g g g g g g g g g g k ",
"c g g g g g   l L P P P L l g h K Y J ` [ } | 3 k.+X*.+XA g g .     g g g g g g g g g g g g g g g g g g g g g g g g g g g g g k ",
"V c C A ~ ~ ~ ~ ^ ^ ( ( ( D ~ ~ _ } | k.k.k.+Xk.J.*.4.| C g g g   g g g g g g g g g g g g g g g g g g g g g g g g g g g g g h k ",
"{ | | k.+X+X+X+X+Xk.+X+Xk.k.+X+Xk.k.k.4.@X*.k.@Xk.@X@X| c g g g g g g g g g g g g g g g g g g g g g g g g g g g g g g g g g g k ",
"+X+X| +X+X+X+X+X+X+X+X+Xk.+X+X+Xk.k.@Xk.*.+Xk.k.@X4.+X] k g g g g g g g g g g g g g g g g g g g g g g g g g g g g g g g g g g k ",
"+Xk.k.+X+X| +X+X+X+X+X+X+X+X+X+Xk.@Xk.k.J.*.@Xd 3 J.+X/ g g g g g g g g g g g g g g g g g g g g g g g g g g g g g g g g g g g k ",
"+X| k.+X@X+X+X+X+X+X+X@X+X+X@X+Xk.k.k.k.k.4.*.J.k.*.| V g g g g g g g g g g g g g g g g g g g g g g g g g g g g g g g g g g g k ",
"+X+X+X@X+X+X+X+Xk.k.@X} +X+X+X+Xk.k.d k.+X+X+X+Xk.k./ g g g g g g g g g g g g g g g g g g g g g g g g g g g g g g g g g g g g k ",
"+X+X+X+X+X+X+X+Xk.k.J.*.+X+X+X+Xk.k.@XK.*.+X+X+X+X, x g g g g g g g g g g g g g g g g g g g g g g g g g g g g g g g g g g g g k ",
"+X+X+X+X+X+X+X+Xk.k.4.@X+X+X+X+XJ.k.d J.4.*.+X] S k g g g g g g g g g g g g g g g g g g g g g g g g g g g g g g g g g g g g g k ",
"+X+X+X+X+X+X+X+Xk.k.x.d J.| 3 | *.4.3 / A Z o k g g g g g g g g g g g g g g g g g g g g g g g g g g g g g g g g g g g g g g h k ",
"] { { { 3 3 3 3 3 - @ @ o o o @ o o o       g g g g g g g g g h g g g g g g g g g g g g g g g g g g g g g g g g g g g g g g g k ",
"V k k z   o X o k g   .         . .         g g g g g g g g g h g g g g g g g g g . g g g g g g g g g   g g g   g g g   g g g k ",
"/ ~ D A @ @ @ @ S @ @ @ S ^ @ - @ @ @ @ @ S S S S S ~ S S S S - @ @ ~ S ~ @ S S @ @ @ @ S S S S S S @ ~ S S @ ~ S S S ~ S S S ~ ",
"k.J.*.@X*.4.k.k.J.d x.J.*.@X4.J.J.@Xx.d +Xk.+Xk.k.+X+X+X+X+X*.4.k.+Xk.+Xk.+Xk.+Xk.k.k.k.+Xk.+Xk.+X+X+Xk.+X+X+Xk.+X+X+X+X+X+X+X@X",
"d k.k.k.4.*.| 3 k.+X+Xk.3 | k.+X@X@X@XJ.J.*.d J.+X+Xk.| @X@X@XJ.@Xk.d J.| d @XK.k.k.k.3 d @Xk.k.k.+X+Xk.+X3 +X+X| k.| +X| k.| +X",
"x.J.4.k.x.J.*.J.+X+X3 | k.k.k.| 4.k.+X+Xd 4.x.k.k.| +Xk.4.@X+X*.k.k.k.*.k.+Xk.k.k.k.k.k.@X4.k.k.+X3 4.+Xk.+X+Xk.k.+X+X+Xk.+X+X+X",
"k.k.*.*.d @X*.4.k.3 +X+X+X+Xk.| d k.@X@X@X@X+X+X+X+X3 +Xk.d J.*.4.@X4.@Xk.k.k.k.k.k.k.k.@X+Xk.k.@Xd *.*.+X| +X+X| k.+X+X+X+X+X+X",
"k.k.k.J.J.*.@X@X+X@X@X+X+X@X+X+XJ.*.@X@X4.@X+X@X+X+X@X+Xk.k.k.@X@X@X@Xk.@Xk.k.k.k.k.k.J.@X@XJ.@X@X@Xk.J.@X+X+X@X+X+X+X@X+X+X@X@X"
};
