/* XPM */
static char *abailleu_resized[] = {
/* columns rows colors chars-per-pixel */
"64 64 245 2 ",
"   c #050406",
".  c #180C08",
"X  c #1E110D",
"o  c #0A0C16",
"O  c #0E111D",
"+  c #121319",
"@  c #24150D",
"#  c #29170D",
"$  c #34190D",
"%  c #2D1C12",
"&  c #271914",
"*  c #311E13",
"=  c #381C13",
"-  c #2E0C05",
";  c #2E201A",
":  c #332215",
">  c #33241B",
",  c #3B2A1C",
"<  c #3A2418",
"1  c #0D1324",
"2  c #161A29",
"3  c #191F32",
"4  c #171E31",
"5  c #1D253C",
"6  c #1B2439",
"7  c #3A2B23",
"8  c #232A3D",
"9  c #252735",
"0  c #35353C",
"q  c #262932",
"w  c #221F2C",
"e  c #441A0F",
"r  c #44281A",
"t  c #592819",
"y  c #592916",
"u  c #6D331A",
"i  c #6F2E19",
"p  c #462D23",
"a  c #443224",
"s  c #4C3A2C",
"d  c #483429",
"f  c #543A2A",
"g  c #483A37",
"h  c #54372F",
"j  c #663626",
"k  c #773927",
"l  c #6E2D27",
"z  c #5A4639",
"x  c #57412D",
"c  c #7A442B",
"v  c #78462C",
"b  c #644A39",
"n  c #784834",
"m  c #714933",
"M  c #1E2A42",
"N  c #1C2844",
"B  c #1C345A",
"V  c #232C43",
"C  c #222F4B",
"Z  c #2C3244",
"A  c #29334B",
"S  c #343B4D",
"D  c #353846",
"F  c #253454",
"G  c #26395D",
"H  c #2B3B5C",
"J  c #283755",
"K  c #343C54",
"L  c #313E5B",
"P  c #242F50",
"I  c #293D64",
"U  c #243B63",
"Y  c #333E60",
"T  c #1E3D6C",
"R  c #403A45",
"E  c #3D414D",
"W  c #394359",
"Q  c #2A436C",
"!  c #294167",
"~  c #34496C",
"^  c #354665",
"/  c #314C75",
"(  c #444B5B",
")  c #454856",
"_  c #534D4E",
"`  c #695647",
"'  c #7D5748",
"]  c #685149",
"[  c #7A6958",
"{  c #72604F",
"}  c #485468",
"|  c #455976",
" . c #4B5468",
".. c #596171",
"X. c #766C69",
"o. c #76716E",
"O. c #8C3718",
"+. c #873A25",
"@. c #8B3D30",
"#. c #88462B",
"$. c #984929",
"%. c #834B32",
"&. c #864937",
"*. c #8B5334",
"=. c #8A543B",
"-. c #87563A",
";. c #935334",
":. c #94553A",
">. c #935A3B",
",. c #9C5C3B",
"<. c #934E31",
"1. c #A5532D",
"2. c #A85934",
"3. c #B45E36",
"4. c #AC512A",
"5. c #BA6638",
"6. c #A96238",
"7. c #AB531B",
"8. c #C2683C",
"9. c #885A47",
"0. c #945C43",
"q. c #915B54",
"w. c #A65D4A",
"e. c #8D644A",
"r. c #996447",
"t. c #8D6955",
"y. c #986855",
"u. c #987359",
"i. c #9B704F",
"p. c #A5674A",
"a. c #BB6B43",
"s. c #B96E48",
"d. c #BB734B",
"f. c #A36B52",
"g. c #A86A53",
"h. c #A9735A",
"j. c #B87659",
"k. c #897567",
"l. c #967465",
"z. c #877C72",
"x. c #98746B",
"c. c #A87867",
"v. c #B27A65",
"b. c #B47F75",
"n. c #A9746C",
"m. c #C26E43",
"M. c #CD7A4D",
"N. c #C77447",
"B. c #D17C4D",
"V. c #C67B54",
"C. c #D27E52",
"Z. c #C87D61",
"A. c #96877A",
"S. c #88827C",
"D. c #B5816B",
"F. c #AA8578",
"G. c #B78778",
"H. c #AA836F",
"J. c #CF8258",
"K. c #D48255",
"L. c #D4855A",
"P. c #D5895E",
"I. c #D9895D",
"U. c #DA8658",
"Y. c #E78E52",
"T. c #C7866B",
"R. c #D58B63",
"E. c #D98C63",
"W. c #D68C67",
"Q. c #DB936C",
"!. c #DB9269",
"~. c #C48C78",
"^. c #DB9572",
"/. c #DD9A75",
"(. c #CA8F77",
"). c #E1976D",
"_. c #E39D75",
"`. c #E19E78",
"'. c #E4A47D",
"]. c #DFA078",
"[. c #3B5C81",
"{. c #67778D",
"}. c #405E82",
"|. c #75879D",
" X c #9B8D80",
".X c #9B938B",
"XX c #A59584",
"oX c #A5998B",
"OX c #AB9C8B",
"+X c #A89787",
"@X c #BA9386",
"#X c #A79C92",
"$X c #A99E94",
"%X c #BA9C93",
"&X c #B28B81",
"*X c #AEA08F",
"=X c #ACA195",
"-X c #ADA39A",
";X c #A6A39E",
":X c #B1A69A",
">X c #B4AB9D",
",X c #B3A795",
"<X c #9BA5AF",
"1X c #B4ACA2",
"2X c #BBADA4",
"3X c #BBB3A4",
"4X c #BDB5AA",
"5X c #BDB5AA",
"6X c #BBBAB6",
"7X c #A8B0B6",
"8X c #C99988",
"9X c #D39B8B",
"0X c #C3928B",
"qX c #D7A38C",
"wX c #CCA394",
"eX c #C7A699",
"rX c #D5A997",
"tX c #D8B39E",
"yX c #C7A18F",
"uX c #E3A784",
"iX c #E2B191",
"pX c #C1BAAD",
"aX c #C4B5A9",
"sX c #D6B5A5",
"dX c #C4BDB2",
"fX c #C9BFB4",
"gX c #D2B2A9",
"hX c #CAC1B5",
"jX c #CCC5BA",
"kX c #CEC9BE",
"lX c #C6C2B6",
"zX c #D1CBBF",
"xX c #D6C6BA",
"cX c #CCCBC5",
"vX c #CFCDC8",
"bX c #C3C5C3",
"nX c #D3CDC2",
"mX c #D3CFC9",
"MX c #D8CEC6",
"NX c #D4D1C6",
"BX c #D6D3CB",
"VX c #D8D4CD",
"CX c #DCD8CE",
"ZX c #D8D5D0",
"AX c #DBD8D1",
/* pixels */
"VXVXVXVXZXVXVXVXVXVXVXVXVXVXVXVXCXCXNXNXCXNXNXCXNXNXNXCXNXNXNXNXNXNXNXNXNXNXNXNXNXzXNXzXNXzXNXzXNXzXzXNXzXCXzXzXzXzXzXCXzXzXzXzX",
"VXVXVXVXVXVXVXVXMXVXVXVXMXVXVXVXNXCXCXNXNXCXNXCXNXCXNXNXNXNXCXNXNXNXNXNXNXNXNXNXNXzXzXNXNXNXNXzXzXNXNXzXzXzXzXzXzXzXzXzXzXzXzXzX",
"VXVXVXVXVXMXVXVXVXVXMXVXMXVXVXVXVXNXCXNXNXCXNXNXNXNXCXNXNXCXNXNXNXNXNXNXNXNXNXNXNXNXNXzXzXNXzXNXzXNXzXNXzXzXzXxXCXzXzXzXzXzXzXzX",
"VXVXVXVXVXVXVXVXVXVXVXVXVXVXmXVXNXCXNXCXCXNXCXNXCXCXNXNXNXCXNXNXNXNXNXNXNXNXNXkXzXNXNXNXNXNXNXzXMXzXNXzXzXCXzXCXzXzXzXzXzXzXzXzX",
"VXVXVXMXVXVXVXVXMXZXZXmXVXVXVXMXVXVXNXBXNXCXNXCXNXNXCXNXNXCXNXCXNXNXNXNXNXNXNXkXzXNXNXNXNXzXzXNXNXzXMXzXMXzXzXzXnXNXzXNXCXzXzXzX",
"VXVXVXVXVXVXVXVXZXZXMXZXVXmXVXZXVXVXVXBXCXNXCXBXCXNXNXNXNXNXNXNXNXNXNXNXNXNXNXNXNXNXzXNXNXNXNXNXNXMXzXNXzXNXNXzXnXzXNXzXzXzXzXzX",
"VXVXVXVXVXVXVXVXZXVXMXZXZXmXmXZXVXBXNXBXBXBXBXBXCXCXNXCXCXCXNXCXNXNXNXNXNXNXNXNXNXzXNXNXNXzXNXNXMXMXzXMXCXCXxXNXnXnXzXzXzXzXCXxX",
"VXVXVXVXVXVXVXVXZXMXZXZXMXVXZXMXBXBXBXBXBXBXBXVXNXNXNXNXNXNXNXNXNXNXNXNXNXNXNXNXNXNXzXzXNXNXkXNXzXNXNXzXzXzXzXzXnXnXNXzXNXzXzXzX",
"VXZXZXZXVXVXVXVXZXZXZXmXZXZXMXZXVXBXBXVXBXmXmXMXCXNXNXNXCXNXCXNXNXNXNXNXNXNXkXNXNXNXNXkXkXNXNXkXxXzXNXxXNXnXNXNXnXxXzXzXNXnXnXzX",
"MXZXMXZXVXZXMXVXZXMXZXMXMXZXmXVXBXVXBXBXBXVXVXVXNXCXNXCXNXNXNXBXNXNXNXNXNXNXNXNXkXNXNXNXNXNXkXNXNXNXNXNXxXnXnXxXxXNXNXNXxXNXnXnX",
"ZXZXVXMXVXMXVXVXZXZXmXZXZXmXZXMXZXBXBXZXVXmXZXVXzXlXzXkXNXNXBXzXkXNXNXNXNXNXcXNXNXNXNXkXkXNXkXNXNXNXxXNXNXNXnXnXNXxXNXxXnXnXnXnX",
"VXZXVXVXZXZXVXVXMXZXZXMXMXVXVXZXBXBXBXBXmXVXmXZX>X,X>X3XAXCXpX[ [ *X*X3XpXlXNXNXNXkXNXNXNXNXNXNXNXzXNXNXxXNXnXNXNXNXNXNXnXnXnXnX",
"VXZXZXVXVXVXVXVXVXVXmXVXZXmXZXVXBXBXBXBXBXBXNXCX:XA.` A.:X#X{ a , , x ` [ *XcXCXNXNXzXNXNXzXNXkXzXNXzXNXNXNXNXNXNXxXNXxXnXnXnXnX",
"MXZXVXVXVXVXmXVXVXVXVXVXZXZXVXVXZXBXBXBXBXBXBXzXXXd 7 x 7 ; > > : + + ; , x [ A.,X4XNXNXNXNXNXzXNXzXxXCXxXnXxXNXNXNXNXNXnXnXnXnX",
"VXVXVXVXVXVXVXVXmXVXZXVXVXVXVXVXBXBXBXBXBXvXzXlXk.x x 7 % 7 > , , : , a 7 s { [ ` A.CXNXzXzXNXNXCXzXzXzXxXCXNXxXNXnXNXnXnXnXnXnX",
"ZXVXVXVXVXVXVXVXVXVXZXmXZXVXVXmXBXBXBXBXBXBXCX>X[ x _ 7 d > * s x a s x s a s x s S.lXNXNXNXNXzXzXzXzXCXNXNXnXNXnXnXxXNXNXnXnXnX",
"ZXVXVXVXZXVXZXVXBXZXBXBXZXBXBXBXBXBXBXBXkXjXoX` x 7 g 7 > & s b x z x % % : # , x ` S.dXNXzXNXzXzXzXzXCXnXMXnXMXnXnXMXNXzXNXzXNX",
"ZXVXZXVXVXVXZXZXZXZXBXCXBXZXBXBXBXBXBXjXoX[ x 7 : : : : , 7 s 7 x x : , .   . : : , b ,XNXzXNXcXCXzXzXzXMXnXnXnXMXnXzXNXMXzXMXzX",
"VXZXZXZXVXVXZXVXZXBXBXZXZXZXBXBXBXBXBX;X` s , & $ r f p , * . . & > & X @ . @ % : : : [ kXNXNXNXNXzXCXzXNXnXnXnXnXnXMXMXNXzXzXMX",
"VXZXZXVXVXZXVXVXBXZXZXBXBXBXBXBXBXBXBX=Xb x , % p u.H.c.' p % & ; 7 & . X , : # : , , z pXNXkXNXzXzXCXzXMXnXMXnXnXnXnXzXzXNXzXzX",
"VXVXVXVXZXVXVXVXZXBXZXZXBXZXBXBXBXvXZX>Xb a a a u.yXyX@XG.f.k p z 7 ; & X # % # : : , a oXNXzXzXNXzXzXNXNXzXzXMXCXzXCXzXCXzXzXNX",
"AXZXVXVXVXVXVXVXBXZXBXBXBXBXBXBXBXBXBX=Xz s % b eXeXwXyX8X@Xy.n x 7 : ; * < < $ % : @ , A.NXzXNXzXNXNXNXNXNXNXMXzXzXzXzXxXzXzXzX",
"VXVXVXAXVXVXVXVXZXBXBXZXZXBXBXBXBXNXAX.Xz ; : k.eXtXrXrXrX9X~.v.c r * % % $ r r @ : @ % XXNXcXzXNXzXNXNXzXNXzXzXzXzXzXzXzXxXzXzX",
"VXCXVXZXVXVXVXVXBXZXBXBXBXBXBXBXBXvXZXz.s 7 z H.tXtXtXtXrXqX8X~.D.e.u = X # $ < # # % @ S.NXzXNXzXNXNXzXNXzXNXzXCXzXCXzXzXCXzXzX",
"VXCXVXVXZXBXBXBXZXCXBXBXBXZXBXvXBXNXAX X7 g z &XsXtXrXrX9X9X0X~.(.~.f.k $ . $ f r @ # % X.kXNXkXzXCXzXCXzXMXzXNXzXzXxXzXzXzXzXNX",
"ZXZXZXZXZXBXCXZXBXBXBXBXBXBXBXBXNXvXAX;X; g ` aXF.{ b h h ' f.v.h.f.n e $ . @ j y : X a 5XNXkXNXzXzXzXzXMXzXNXNXzXzXCXzXzXzXzXzX",
"ZXZXZXZXBXZXBXZXZXBXBXZXBXBXBXBXBXmXBXcX_ d k.eXk.] h e - e k n.p.u e . . $ r f m : @ z.zXkXcXzXzXCXzXzXzXzXzXzXCXzXzXzXzXxXzXzX",
"ZXZXZXBXCXBXZXBXBXZXBXBXBXBXBXBXmXNXvXAXz.x &XgX&X9.h ; % e 9.rXh.y e @ . = y *.e.r : >XkXkXzXNXzXzXCXzXzXMXxXNXzXzXCXzXzXCXzXNX",
"CXZXZXBXZXBXZXBXBXBXBXBXBXBXBXvXNXvXvXVX6X` %XsXwX0XF.e.9.q.0X9Xh.r.&.k i k m -.i.x y >XBXzXcXzXzXNXzXNXzXzXNXNXzXNXNXxXNXzXNXzX",
"ZXVXZXBXBXZXBXZXZXBXBXZXBXBXBXvXBXBXBXvXjXn.yXsXrXtXqX9X9XrXrX9Xh.f.~.G.j.h.i.r.i.e.k @XBXzXzXNXzXNXNXzXzXNXzXNXxXNXxXnXzXzXzXzX",
"ZXBXZXZXZXBXBXBXBXZXBXBXBXBXBXBXvXBXvXNXmX0X0XtXrXrX9X9X9X~.9X9Xv.>.g.T.T.D.v.u.u.e.-.pXNXcXNXzXzXNXzXNXzXzXzXnXNXNXnXnXNXzXNXzX",
"VXZXVXBXBXBXZXBXBXBXBXBXZXBXBXvXBXmXmXmXBX0X0XgXwX9X8X(.w.v.tX9Xv.f.0.2.h.j.h.f.u.%.t.NXlXcXzXzXNXzXNXzXNXxXNXzXNXzXnXnXnXNXzXzX",
"BXZXBXBXZXBXBXZXBXBXBXBXBXBXmXBXmXVXmXmXmXgXeXeXwX0Xb.w.0.b.b.n.:.=.0.:.<.,.r.r.u.9.H.bXpXlXjXcXcXnXnXnXMXcXnXnXnXnXnXnXnXnXkXnX",
"BXvXZXBXBXBXBXBXBXBXBXBXBXBXMXmXmXmXmXmXmXjXeXyX@XG.p.:.~.x.l l t l k 0.<.#.*.-.t.y.OXdX1X4XdXlXkXnXnXnXxXnXnXnXnXnXkXnXxXnXzXkX",
"BXZXBXZXBXBXBXmXBXBXBXBXBXmXmXBXmXVXmXmXZXvXaX%X@XG.w.b.&Xb.n.&.k @.n c %.*.*.*.e.l.;X1X:X1X1X4XfXjXnXnXnXnXnXnXnXnXnXnXzXnXnXzX",
"BXBXBXZXBXBXBXBXBXBXBXmXNXNXmXmXmXmXmXmXmXmXfX%X@X&Xb.q.&.n.q.@.l l k l u r.>.-.t.#X-X=X-X-X-X1X4XfXjXnXnXnXnXMXxXcXxXnXnXzXzXzX",
"ZXZXBXBXBXBXBXBXBXBXmXmXBXNXmXmXmXmXmXmXmXmXnX%X@X&Xc.f.G.b.n.q.@.+.v *.>.r.-.-.l.:X$X=X=X-X-X:X1X4XfXbXnXnXnXfXzXMXzXnXzXnXzXzX",
"BXBXZXBXVXBXBXBXBXmXmXBXBXmXmXmXmXmXmXmXmXmXVX2X&X&Xb.D.G.b.w.@.l k c %.>.-.*.m A.;X$X=X;X-X-X-X$X1X2XdXfXxXnXnXzXzXnXzXzXzXzXzX",
"BXBXBXBXBXBXBXBXVXmXmXBXmXMXmXmXmXmXmXmXmXvXxX(.F.A.x.c.G.F.b.n.g.y.*.v v v v [ ;X$X$X;X=X=X=X-X:X:X1X4XdXjXcXcXzXzXzXzXzXzXzXzX",
"BXZXBXBXBXVXBXBXBXVXmXmXmXVXmXmXVXmXmXmXNXzXQ.T. Xx.u.l.n.F.v.y.0.r.-.v v v v e.&X;X$X$X$X=X=X=X$X1X:X1X4XfXfXnXzXzXzXzXzXzXzXzX",
"ZXBXBXBXZXBXBXBXBXBXmXBXNXBXmXmXmXmXMXVXMX^.U.j.&Xx.k.t.k.t.9.c n k k c v m n -.,.H.=X=X#X#X=X=X=X:X-X>X3XpXlXkXzXzXzXzXkXzXkXkX",
"BXBXZXvXBXBXvXBXBXBXmXmXmXmXmXmXmXmXVXMX9XU.N.2.%Xx.x.l.q.9.n k k k c c c n -.e.$.6.h.XX#X#X$X$X=X-X:X,X,X3XpXlXhXzXjXjXjXkXjXjX",
"BXBXBXBXBXBXZXBXBXmXBXmXmXmXmXmXmXMXxXiXQ.U.5.+.yX&Xx.x.t.9.9.k k c c c c v -.-.#.;.6.i..X#X#X#X=X=X*X*X,X,X>X3XpXjXjXjXhXhXhXhX",
"BXBXBXBXBXBXBXmXBXBXmXmXmXmXmXVXMXtXiXuXQ.C.1.t wX,XF.x.l.t.9.n k c c c v -.0.-.O.1.6.6.oX=X.X=X*X*XXX*X*X*X,X,XaXpXhXhXhXhXhXhX",
"BXBXBXmXvXvXBXBXBXvXBXBXBXBXBXtXQ./.iXiXR.N.i v 8XeX%Xb.x.t.q.&.#.#.#.%.*.*.>.*.$.1.$.;._ XX=XoXoXoXXX*X*X*X*X,X>X5XlXhXhXhXhXhX",
"BXvXBXBXBXBXBXmXBXNXvXNXNXBXxX].L.Q.uXuXR.3.i f.D.wX9X@XF.h.y.0.#.#.*.;.>.>.*.+.1.O.$.v O D [ A.*XXX*XA.A.*XA.,X,X3X5XhXhXhXaXhX",
"BXvXmXBXmXBXvXBXmXmXBXBXNXzXiX'.L.L././.R.O.k D.c.@X8X8X@XG.c.0.>.>.>.>.>.>.k $.$.O.2.f 1 6 6 0 _ A.A.*XF.*X*XF.*X>X3XhXhXhXhXhX",
"BXBXBXvXBXvXBXmXmXmXmXMXtXuXqX'.^.W.Q.'._.s.v.G.v.c.v.G.G.G.v.y.,.>.>.>.*.k $.$.#.5.J.j 1 Z E 8 q q _ o.A.*XA.*XF.,X3X5XaXaXhXhX",
"vXvXBXmXBXBXvXBXvXmXVXsXuX(.^.^.9X'.'.T.p.1.4.4.3.m.w.w.g.h.h.p.:.;.:.#.l $.i i 5.J.U.v 2 Z J K ( V M C W o.XXXXXX*X,X5XlXhXhX5X",
"vXBXBXvXvXNXvXvXmXVX<X} ] h.T.^./.^.V.2.+.O.O.4.3.8.m.s.p.r.r.,.:.<.#.k $.O.i V.R.V.J.%.w Z S K W E V M C M (  X+X*X,X3X5XlXhXhX",
"vXvXvXvXvXvXvXVXbX{.Q B J V h d ' g.@.Q.!.E.E.U.E.E.I.K.C.V.g.j.v.r.<.1.O.$.W.!.R.R.L.#.q K W W A E E 6 8 V M K S.*X*X3X3XhXpXlX",
"vXvXvXvXvXcXVX7X/ U U ^ | I N 1 N q.T.^.E.).Q.Q.).E.).K.M.B.E.W.~.V.V.N.5.L.^.K./.R.J.k g L S W A S ) A 5 5 V M V S.*X,X3X3XlXpX",
"vXvXvXvXbXVX7X! ! ! W ~ ~ ^ ^ Y ~ F a 9.v.V.s.a.3.2.2.3.3.m.N.3.d.d.8.8.B.Q.E.K.].R.s.u g ( ( ( W W S ( Z 5 8 V M C S.>X3X5XlXlX",
"vXvXvXvXBX7X/ F G G } / ~ ^ F / ^ S 2 o - j.W.R.C.C.N.N.C.m.3.m.V.V.B.K.I.Q.K.E.].R.;.y W 0 o w D E ( ( ( V 5 V 8 5 E oX3X3XpXpX",
"vXvXbXvXbX[.U F !  .} W W J ^ |  .D 9 L e @.Z.d.a.s.m.m.8.8.M.I.V.s.K.K.I.!.K.Q.'.L.u p / ..      o q 0 ) D 8 V 5 M 6 ..3X3XpXlX",
"vXvXvXBX{.T F P ^ ( E W E ) ) D D K ( I k 4.w.W.L.C.C.V.B.B.C.Z.P._.U.K.I.P.B./._.m.y R ~ q o o       1 o 2 8 V 8 5 8 q .XlX5XpX",
"cXcXvX6XI Q P F J M 1 N o O 1 1 N } A K z U.a.Z._._.!.E.U.m.K.I.V.W.m.K.P.C.K.uX'.$.e | W   1 2 O O 2 2 2 2 6 C M 8 M 6 W 3XpX6X",
"bXcXmX{.B Q P F A J B G 2 N F B ..K  .( g B.U.m.d./.I.K.5.N.E.L.M.6.N.I.I.B.E.uX).u D  .+   + 3 M C 8 6 6 4 2 8 M 5 8 5 Z o.dXpX",
"vXvX6X~ B Q F F J ! / F V G U G | } ( K D N.U.I.Q.uXP.5.5.U.I.L.K.L.Q.E.U.B.^.uX8.r | w 1 o w 4 8 C V C 8 8 8 8 A 8 8 6 Z 0 ;XlX",
"bXvX7X/ B Q G F J Q Q N A G ! I I  .K ^ A w.I.I./.'.J.5.N.U.I.E.L.L.Q.E.C.B.`.Y.7.) D O w 2 A 6 M 8 V V V A A 8 M M E 6 Z q ..lX",
"bXvX|.H F U G F U / I 5 F I I I U Z  .( W -.I.R.`.^.a.5.B.K.I.W.R.P.W.E.B.C._.Y.e.E + 2 9 J A 4 M M V A A M A C C M E 8 0 8 Z 1X",
"cXbX[.W F I F F G / G 8 F U H I ! 1 W  .W b U.R.^.K.3.N.K.K.W.Q.W.R.E.I.N.C.).I._ 1 9 D S W A 4 V V M C M M A C M 5 8 8 q E 4 S.",
"vX7XQ Q I U P F U I P 8 P G I I I 2 N ..! z K.R.I.8.8.K.B.K.^.^.Q.R.L.K.N.R.).v.6 0 W W S W J 6 V M 8 5 M 8 M A C 8 8 8 8 Z 4 E ",
"vX|.T Y Y U P G U U P N G H H I U 4 H W  .D d.P.M.5.K.K.M.U./.^.Q.R.K.B.N.W.`.t.E 0 8 0 4 J W 6 5 M V M 8 8 8 M C 8 Z 8 8 M 6 6 "
};
