/* XPM */
static char *Screenshot_from_2023_12_04_12_30_31_resized[] = {
/* columns rows colors chars-per-pixel */
"64 64 249 2 ",
"   c #100E04",
".  c #181305",
"X  c #1B1405",
"o  c #241304",
"O  c #271907",
"+  c #241D09",
"@  c #351E07",
"#  c #351C08",
"$  c #27210A",
"%  c #2B220A",
"&  c #33240A",
"*  c #38240B",
"=  c #3B240B",
"-  c #3B2B0E",
";  c #372913",
":  c #3B2B13",
">  c #3B3637",
",  c #3C383B",
"<  c #44290C",
"1  c #522A0D",
"2  c #432D12",
"3  c #433213",
"4  c #4A3515",
"5  c #483519",
"6  c #4D3A1A",
"7  c #593718",
"8  c #523D1D",
"9  c #673716",
"0  c #623C1A",
"q  c #723617",
"w  c #4B3A29",
"e  c #553D23",
"r  c #443A38",
"t  c #6F3F22",
"y  c #53401F",
"u  c #67411D",
"i  c #77461B",
"p  c #544121",
"a  c #5B4524",
"s  c #5D4926",
"d  c #5D472A",
"f  c #5B4630",
"g  c #624523",
"h  c #674626",
"j  c #6C4925",
"k  c #634B2A",
"l  c #6B4D2B",
"z  c #764B25",
"x  c #724D2B",
"c  c #6B522E",
"v  c #7E5227",
"b  c #74522E",
"n  c #7D532B",
"m  c #644D34",
"M  c #744C30",
"N  c #6B5335",
"B  c #725532",
"V  c #7B5532",
"C  c #745934",
"Z  c #7B5A35",
"A  c #78563A",
"S  c #755C3B",
"D  c #7C5E3A",
"F  c #7D613C",
"G  c #413D41",
"H  c #4A4549",
"J  c #554A47",
"K  c #564E4E",
"L  c #524E52",
"P  c #5B5557",
"I  c #675446",
"U  c #7C5D43",
"Y  c #655B59",
"T  c #7D6445",
"R  c #74645A",
"E  c #615D62",
"W  c #666369",
"Q  c #716C70",
"!  c #777377",
"~  c #87481C",
"^  c #854924",
"/  c #974C21",
"(  c #865528",
")  c #8D592C",
"_  c #935626",
"`  c #935B2B",
"'  c #9C5E2C",
"]  c #845A34",
"[  c #8B5C34",
"{  c #855B38",
"}  c #925D32",
"|  c #985E34",
" . c #A55B2E",
".. c #9E612C",
"X. c #83633D",
"o. c #8C6438",
"O. c #8B643C",
"+. c #946136",
"@. c #9B6234",
"#. c #91643B",
"$. c #98693B",
"%. c #9A7336",
"&. c #A1612D",
"*. c #A46837",
"=. c #AB6B37",
"-. c #AD6D3B",
";. c #B16D3A",
":. c #A8763B",
">. c #B4723E",
",. c #836543",
"<. c #856846",
"1. c #8C6B45",
"2. c #8B6C4A",
"3. c #946C43",
"4. c #966B47",
"5. c #9B6E43",
"6. c #9A7246",
"7. c #94724D",
"8. c #9B754C",
"9. c #9C794B",
"0. c #8B6F55",
"q. c #8B7554",
"w. c #987955",
"e. c #A46F41",
"r. c #A27345",
"t. c #A3764A",
"y. c #AB7749",
"u. c #A37A4C",
"i. c #B67746",
"p. c #B47348",
"a. c #A47D54",
"s. c #A97D53",
"d. c #8C7C6F",
"f. c #C67D49",
"g. c #AC8447",
"h. c #B4824C",
"j. c #BB864B",
"k. c #AC8253",
"l. c #A6835C",
"z. c #AC845B",
"x. c #B38454",
"c. c #B58956",
"v. c #BB8A54",
"b. c #B68659",
"n. c #B38A5C",
"m. c #BB8D5B",
"M. c #AC935C",
"N. c #BC945B",
"B. c #9A8671",
"V. c #A88865",
"C. c #B68D64",
"Z. c #BC9363",
"A. c #BC936B",
"S. c #B99568",
"D. c #A98F74",
"F. c #BA9872",
"G. c #C8864F",
"H. c #C28D53",
"J. c #C78955",
"K. c #CB8B54",
"L. c #D18553",
"P. c #D38A54",
"I. c #CA9057",
"U. c #C79258",
"Y. c #C3935C",
"T. c #CB935A",
"R. c #D2945C",
"E. c #DA925C",
"W. c #D39A5F",
"Q. c #E2925E",
"!. c #C3A75E",
"~. c #C39563",
"^. c #C59963",
"/. c #CB9A64",
"(. c #C69568",
"). c #CB956B",
"_. c #C39A6B",
"`. c #CB9D6B",
"'. c #D39B61",
"]. c #D69C68",
"[. c #C49D72",
"{. c #CB9D71",
"}. c #E39B65",
"|. c #C6A46A",
" X c #CCA16D",
".X c #D2A26C",
"XX c #D9A469",
"oX c #DCA36C",
"OX c #CFB76B",
"+X c #CBA173",
"@X c #C8A578",
"#X c #CDA57A",
"$X c #D3A272",
"%X c #D5A676",
"&X c #DBAB74",
"*X c #D3A97C",
"=X c #DBAD7B",
"-X c #CAB979",
";X c #D7B877",
":X c #DEB17B",
">X c #E9A872",
",X c #E9AB76",
"<X c #E3B57D",
"1X c #D9C67A",
"2X c #E0CF7C",
"3X c #847F80",
"4X c #BCAB8F",
"5X c #CCA984",
"6X c #D4AA82",
"7X c #D9AE86",
"8X c #C9B889",
"9X c #DBB386",
"0X c #DCB28B",
"qX c #C5B898",
"wX c #DBBD97",
"eX c #E3B582",
"rX c #E2B58C",
"tX c #E5BA8B",
"yX c #E8BA88",
"uX c #F2BB88",
"iX c #E5BA93",
"pX c #E7BC95",
"aX c #CBBEA2",
"sX c #D6C486",
"dX c #CDC09E",
"fX c #D7C794",
"gX c #EDCF8D",
"hX c #E9D98B",
"jX c #E4C796",
"kX c #EAC194",
"lX c #ECC39D",
"zX c #F8D896",
"xX c #EFE48E",
"cX c #F9E698",
"vX c #FCEC9A",
"bX c #FCF397",
"nX c #FCF39A",
"mX c #D6C8A7",
"MX c #D5C8A8",
"NX c #D9CCB1",
"BX c #E8CFA5",
"VX c #FADAA5",
"CX c #E5D9B8",
"ZX c #FAE6A6",
"AX c #FBF1A5",
"SX c #F7ECB3",
"DX c #F6EAB5",
"FX c #E8DCC1",
"GX c #F2E6C8",
/* pixels */
"                                      X ; 5 = g k h h h u 8 < O o o o o o . . . o o o o o o + ; 6 m S D F X.X.O.{ ( v i u 9 u - ",
"                                      . : 5 : k x M b u 0 0 7 = o o o o o o o o o o o o O O # 2 e B X.,.O.1.3.O.[ ] ( z u 7 u 3 ",
"                                      X : 8 a x b b { b 9 0 7 7 < # o o o o o o o o # 2 2 7 h M { #.3.3.5.r.6.+.) ) ( i 0 0 l m ",
"                          . . . + + O O 2 g l x x x D { j 0 0 0 0 h 7 # o # < 5 e e h V { { [ | +.@.$.*.-.y.-..._ ) ( v z n C.d.",
"            . X $ X + X X $ $ % & ; ; # 2 k l z z u b o.{ u 0 x t M { t 9 t M { { { [ } | #.| &.*.*.*.=.-.i.p.*.' ~ ~ j ] S.pXB.",
"        . X + $ $ $ $ $ $ $ % & ; : ; & 2 g x M u u j X.O.b j V.A M { { { { [ [ ) ) } ` ' ' ' &.&.&.=.=.-.>.>.;.*._ i ] A.pXlXB.",
"      X $ $ $ $ $ $ % % % % & ; ; ; : @ = 7 l x u u u o.#.V n F.<.] [ [ [ } ) ) ( _ ' ' @.' ' &.&.&.&.=.=.;.;.;.=.*.5.).lXlXlXB.",
"    X + + + $ $ $ $ % % % % & & * = 2 2 < 1 t M u 7 u n 3.] { 0X4.] } | _ ` ) / _ ` ' ' ..' ' &.&.&.&.=.=.=.=.=.=.-.).pXlXlXlXB.",
"  X X o X X + + $ $ = 9 1 # # # # < 1 q 1 1 M V M 9 0 M | { { 5X4.{ [ [ ` ` _ ` ` ' ..' ' ' ' ' &.&.&.&.=.=.=.-.-.s.eXpXlXpXiXd.",
"X X . . X . X + O $ 2 ^ q 1 < < = 1 M q 1 q M ,.{ A M ^ 4.0.| 0.,.{ ^ ) ` ` ` ' ' ..&.' ' ' ' &.&.&.&.*.=.;.>.>.;.v.rXpXpX0X6X0.",
"  . X . . . X % & : 0 ).e.q 9 1 7 { f.^ q ^ ^ 4.4.4.{ M { U { 0.0.2.M { ) ` | ' ' ..&.' ' ' ..&.&.=.=.-.>.>.p.i.p.(.rXiX7X5X).,.",
".   X X X + : w y g | pX{.^ q t ^ 6X6X~ ^ t ^ 4.t.t.t t Y E d.3X3Xd.I U [ ` ' ' ' &.....' ' &.&.&.*.=.;.>.>.p.p.i.=XpXiX5X).C.U ",
"X X o % 5 w f m h q ~.zXlXr.i ^ `.zX).~ ^ z ] 4.4.4.t e K Y W Q 3X3XY I [ _ ' ' ' ' ' ' ' ' &.&.*.*.=.e.p.e.p.p.).rXpXiX6XA.(.,.",
"o % 5 e k k l h t ^ 7XVXVX%Xv v.zXzXY./ ^ ^ ] e.r.s.#.e K P W d.3X3XR I [ _ ` ` ` ' ' ' ' ' ' @.=.r.p.m.).).6X7XrXiXpXrX{.).).0.",
"w e { { ^ i i i ^ *.gXvXvXxX!.hXcXzXc./ ) [ #.r.p.s.4.e P E W ! 3X3XQ I A ( ( ` ` ` @.*.-.y.v.~.{.=X0XrXiXpXpXiXrXpXiXrX5XF.).0.",
"l M J.pX9X/.j..._ ).zXvXbXbXbXbXbXcXy./ ` ` t.p.p.s.t.t P E Q ! 3X3Xd.K m ( [ @.y.x.~.`.=XrXpXlXlXlXlXlXlXpXpXiXrXrXiX7X5X).).,.",
"B z ).zXVXVXzXzXsXxXvXvXnXbXbXbXnXcX:.~ / _ ' @. .p.p.M P W Q ! ! ! ! W T V.#X6X0XpXpXpXlXlXlXlXlXpX0X0X7X7X7X5X[.6X0XrX7X).).<.",
"B ^ '.ZXcXvXbXbXbXbXbXbXbXbXnXnXAXhX%.+.y.h.).). .p.p.M L E W Q ! Q ! Q B.5XpXpXlXlXlXlXpXpXiX0X7X5X@X[.[._.A.A.A.A.{.6X0X#X).,.",
"M ^ ).zXvXvXbXbXbXbXbXbXbXbXbXxXxX1X8XsXVXVXVXyXp.f.f.M L P E W W W Q Q 3X4XwXmXpXpXiX0X0X6X*X#X{.F.C.C.C.z.s.u.4.a.A.$X7X6XA.U ",
"^ ~ '.ZXvXbXbXbXbXbXbXbXnXcXhX-X-X8XfXBXSXSXVXJ.f.f.f.4.H P P E W W W W R B.5X5X5X6X#X#X#X@X[.A.C.z.a.4.#.o.{ ] ] 4.A.6X7X6XC.U ",
"*.p.:XZXvXbXbXbXbXbXbXbXhX-XsXfXmXCXDXqXjXZXsX*.f.Q.f.t.H L L P P L P E Y q.F.F.[.).A.C.n.k.u.5.4.5.$.#.O.o.[ [ { #.s.5X7X6X(.U ",
"zXzXcXcXvXbXbXbXbXbX1XsX-XfXMX4XDXGXNXCXdX1Xc.i.Q.Q.}.C.m H H H L L L L K T w.w.8.8.4.3.4.6.s.s.s.s.t.3.#.} } } | { s.).6X{.s.I ",
"vXvXbXbXbXbXbXxXhXfX1XDXmXdXGXaXMXCXMXmXBX8X%.I.Q.}.oX).M r G G H H L H J m C Z ] 3.r.s.x.n.Z.m.m.b.u.$.} } ) } | [ #.s.(.s.4.t ",
"vXbXbXbXnXcX1X1XsX8X4XGXCXGXGXNXqXaXDXGXSXhX%.i.}.>X,X6XU r r , , G H H H m Z ] +.r.x.b.~.~.(.).(.~.x.5.+.` ) ` | | | [ #.{ | f ",
"nXnXbXxXcXsXfXfXMXFX4XMXdXqXNXdXBXDXSXAXbXvX2Xi.f.>X,X<Xw.r r , , , , , , f D 1.5.s.m./.`.`.{.$X`.(.n.s.y.r.*.@.| | | | | @.e.h ",
"AXhX8XsXfXdXCXdXMXCXMXqXmXmXCXDXSXAXAXnXbXbXvXgXU.>.].,Xs.r , , , , , , , r D #.r.x.~.].$XoXoX$X$X`.`.(.Z.m.s.*.| | | e.r.e.$.h ",
"1XsXdXNXFX4XFXNXaXCXMXNXmXSXDXAXnXbXbXbXbXbXcXbXvXXX;.G.J.w > > , , , , G w A $.r.b.(..X$X$X$X$X`.$X=X$X(.Y.x.e.| | e.r.e.$.| 0 ",
"|.CXqXMXFX4X4XNXMXqXNXDXSXSXAXnXnXbXbXbXbXcX2X1XY.j.=.=.C.m > > , , , , r r B $.r.c.(.`.$X$X$X{.`.$X$X$X{.(.b.y.@.| | | | } ( 7 ",
"sXfXGXqXNXFXNXMXMXCXSXAXnXnXbXnXnXxX2XOXN.g.:.:.j.G.E.].$XA > > G G H H L K M 3.t.x.~.`.`._._.`.(._.(.`. X~.b.r.+.` [ ) ) v i 1 ",
"o.q.FXNXNXNXDXDXSXAXAXnXnXnXxX!.g.:.:.j.T.'.>X>X>X}.Q.].].2.r L L L P E Y I A $.r.h.Z.`.`.`.~.|._.S.Z.A._.~.n.9.#.] n ( ( i i 4 ",
"i u 4XmXBXDXSXAXnXnXnXnXnXAX2X%.|.&X,X,X,X>X>X>X}.'.W.'.).V.N Y Y R R R R R 1.5.u.x.m.~.Z.Z.^.A._.A.Z.A.S.S.Z.u.#.] n ( n ( ] g ",
"i o.sXVXVXSXvXbXbXbXbXnXnXnX1Xg.uXuXuX,XoXXX'.'.'.T./.T./.(.D.D.B.B.B.w.7.8.8.u.y.x.b.Z.~.Z.^.A._._._.|.[._._.c.6.o.] [ o.o.3.c ",
"i m.VXcXbXbXbXbXbXbXxXbXbXbX!.R.uXuXuX,X].^.T.Y.Y.Y.Y.Y.Y.Y.Z.~.A.C.b.s.u.u.k.k.x.x.x.m.Z.~.~.A._.|.#X@X@X#X_.z.6.] n o.O.3.w.N ",
"( tXvXcXbXbXbXbXbX!.%.1XvXxXg.XX,XyXrX=X`.(.~.Y.T.Y.^.Y.Y.Y.Y.Y.Y.H.H.h.h.h.x.v.v.c.c.m.Z.m.m.Z._._.@X*X*X#X|.n.3.] n ] X.3.w.N ",
"y.VXcX1XN.xXbXbX1X%.>.:.H.<X>.R.i.C.$X$X`.~.(././././.Y.Y.Y.Y.Y.Y.Y.v.c.c.v.H.H.H.v.c.x.b.n.n.Z.A._.+X+X+X+X_.z.6.{ n Z F <.7.m ",
"$X%Xg.%...hXbXxX:.f.R.E.f.=./ _ ~ ^ t._._._._./.^./.Y.Y.Y.Y.Y.Y.Y.Y.Y.Y.v.m.Y.H.v.x.h.h.x.n.n.Z.Z.~.F.|.|._.Z.w.1.{ Z Z F ,.2.m ",
"p.y.G.P.>.2XcX!.:.R.P.}.>X'. .q 9 9 9 u._.{.+X/./././.Y.Y.Y.Y.Y.Y.Y.W.Y.Y.Y.Y.Y.v.h.h.h.c.c.n.Z.|.~.|._.|.F.n.9.o.F C C F X.1.d ",
"T.].}.Q.f.2X;X=.G.P.P.E.,X,Xi.q 9 7 7 3.[.@X#X%X$X X X XY.Y.Y.Y.Y.Y.^./.T.Y.Y.Y.N.v.v.v.v.c.n.Z.A.|. X+X+X_.z.9.1.Z b B C F F d ",
"oXoXoXE.>.2X:.j.P.P.G.R.}.,X).v 0 7 9 8.@X7X9X9X:X:X&X&X].^.m.v.Y.Y.T./.^.Y.Y.Y.Y.Y.Y.Y.N.n.n.N.Z.|.|.|.F.|.Z.k.3.F B B B C F y ",
"&XoXoXE.>.j.;.P.P.P.K.K.'.&X=XZ.5.O.3.F.0XrXtXeXyXeX:X&X/.^.Y.Y.Y. X X X X/.~.Y.^.^.T.^.^.N.N.N.Z.Z.Z._.~.A.S.n.6.X.C c c c N 5 ",
"&X&XoXR. .;.L.P.L.P.K.K.K.].=X=X*X5X5X7XiXlXkXtXtXyX:X&X X^.^./.^. X X/. X`.~.Y././.`.`.^.~.Z.Z.Z.Z.A._._.F.F.C.9.F b c c l l 5 ",
">XoXoXK. .f.P.P.P.P.K.K.K./.=X=X6X6X5X0XlXlXkXkXyXeX&X.X X/././././././.`./.Y.|./. X X X X^.N.Z.Z.N.S._.{.|.+XC.9.D C b l k g 3 ",
"&X&XXXK.G.Q.Q.P.K.K.K.K.H./.&X=X*X*X#X0XlXlXkXkXtXeX&X.X X`.`.`.`././.`.(.^.(.|.+X X X`.|.N.n.n.n.n.Z.[.[.+X+XC.9.D b c k g s 3 ",
"&X&X&XXX'.'.E.I.I.K.G.K.H.T.&XeX9X:X=X0XlXlXkXkXpXeX&X`./.`.`.+X X`.(._._.~.~.`.`._.+X[.A.m.n.x.M.n.Z.[.[.[.S.s.3.Z C c l g k : ",
">X&XOXXXXX'.W.T.I.K.K.H.H.T.$X:XeX<X<XyXjXkXkXkXtX9X=X$X`.+X{.{.`._._.^.Z.k.y.k.C._.[.S.n.z.k.l.k.k.n.A.F.S.l.7.X.Z B c g s y 5 ",
";X;X>X>X}.XXW.T.T.I.K.K.H.H./.=XeXeXkXkXkXkXkXkXrX9X*X`.$X X{.`.(._.~.n.3.x u u n ,.7.w.7.w.l.9.9.9.c.S.C.z.w.1.F C k k s s s : ",
"<X<X&XXX'.XXW.I.I.K.K.I.I.I.T.&XeXyXkXkXkXkXkXyXrX6X*X+X+X`._.~.Z.Z.Z.t.j 7 3 < d <.N p k D 6.9.2.g.z.z.w.w.1.D B c k s a p p : ",
"<X&X&XXX'.'.W.I.H.K.I.I.T.T.R.XX&XyXyXyXyXkXkXkXeX*X#X+X{._.Z.n.m.Z.k.V 1 - * @ * 2 5 = - g X.9.g.6.9.l.7.<.F B c s k d p p p : ",
"<X;X&XXX/./.W.U.H.K.K.T.T.U.W.W. XXX&X;XeXlXlXiX7X#X+X_._.C.C.n.n.Z.g.u < = = @ @ @ * * - k T g.q.6.7.1.X.C C k k d a a a y p ; ",
"<X:X&X/.W./.T.Y.H.H.T.I.R.W.W.W.W.W..X&X:XkXjXrX6X+X{.[.C.C.b.z.C.C.6.j < @ @ @ @ @ @ & 6 F <.7.1.<.X.F C c l k d s a p p p p ; ",
"eX:X&X X/.^./.H.H.H.U.E.W.W.W.W..XW./..X:XkXkXrX*X+X_.S.C.z.k.l.z.n.w.3.j 4 3 3 = - - 5 k F X.2.X.F F c k k g s s s y y p p p ; ",
"eX<X;X.X|.^.Y.Y.j.H.I.I.W.W.W.W.W./.W./.:XkXkX0X*X(.n.k.a.a.a.a.l.C.C.C.a.q.q.2.,.,.T N F F F X.F C c k s s s y p p y y y p e ; ",
"<X:X=X.X|.Y.U.H.j.G.U.T.W.W.W.W.'./.W. X:XkXlX0X+Xn.u.8.8.8.8.a.l.C.F.S.F.F.V.V.V.V.w.2.F F F F C c k k s y y y y y y y w y 6 ; ",
":X:X&XOX/.Y.Y.H.j.H.I.R.W.W.'.W.W.W.W.|.:XkXkX0XA.a.6.3.1.7.8.w.V.V.F.F.F.F.F.D.V.V.l.7.1.X.F F C c k s a y y 6 6 y y y p 6 5 & ",
":X:X%X.X^.Y.H.v.j.j.U.T.'.W.W.'././.W..XyXkXkX*XV.7.O.X.{ O.2.w.l.C.F.@X[.F.D.F.V.l.w.q.1.X.F F c k k s a y y 8 y y y y y 6 6 & ",
"&X&X%X|.Y.Y.H.H.U.j.U.W.W.'.W.'.W.W.W..X9XkX0XC.5.{ b c b V ,.7.l.D.F.S.V.V.z.V.V.w.l.w.1.X.F C c k d s y y 8 6 : y y y 5 5 5 % ",
"&X%X X(.N.m.Y.H.U.j.I.R.W.W.W.W.W.W././.<XeXZ.O.n c g y y s C F w.V.l.l.V.S.D.l.l.7.7.7.2.F C c l k s u y 4 y 3 y 5 3 3 3 y - $ ",
" X X~.N.b.x.b.v.j.U.H.R.W.W.'.'./.W.W.|.:X%Xo.c s s y y y y y y F 2.q.B.V.V.l.l.q.q.2.2.2.F F c s k y y y y 4 y y : y 3 - - - $ ",
"N.Z.N.x.s.u.g.h.v.v.U.!.'.W.'.'.W.W.W./.&Xk.j g y 8 4 4 6 6 y y a S 2.l.q.B.l.q.T T F F F F C k s s y y 4 y 3 4 y y - 3 - - - $ ",
"c.c.k.u.t.9.u.k.j.v.N.W.'.'.'.W.W.W.W./.`.X.u 7 8 4 3 3 3 3 - - : 6 N T q.q.q.T T S F F F F C k u s y y y 4 y y 3 4 4 - - - - $ ",
"k.k.9.$.6.6.9.k.c.v.Y.T.XX'.'.'.W.W.T.U.h.u y 7 a y 6 3 - - - - - - 5 S T T T F N N S C C C c l s s y y y 4 y 3 4 3 3 - - - - $ ",
"k.9.6.$.#.1.9.k.c.c.Y. X'.XX'.W.W.R.U.U.r.7 7 7 8 8 6 3 - - - - ; ; 3 f S T S S N N c c c k k s s s y y 3 y 3 < < < - - - - - O ",
"9.9.3.#.X.%.9.k.c.N.^..XXX'.'.W.R.R.U.Y.g.7 4 3 - - 2 - - & & - $ % 3 s c N N N k k k d s s s s s y y y 4 3 3 3 < - - - - - - $ ",
"6.6.1.o.o.o.9.k.c.m.W..XXX'.W.W.R.T.U.N.c.b 4 3 - & - * & & $ $ $ % 3 p s k m s d d d s s s s y s y y - 3 3 - - - - - - - - - O "
};
