/* XPM */
static char *Screenshot_from_2023_11_29_15_08_31_resized[] = {
/* columns rows colors chars-per-pixel */
"64 64 243 2 ",
"   c #2E130C",
".  c #33170D",
"X  c #2C1913",
"o  c #371F14",
"O  c #3A240F",
"+  c #3C2312",
"@  c #392519",
"#  c #432A17",
"$  c #4C3219",
"%  c #523619",
"&  c #533A1B",
"*  c #4C3327",
"=  c #583B27",
"-  c #5C421D",
";  c #62451E",
":  c #5D4228",
">  c #664A29",
",  c #76552C",
"<  c #684B38",
"1  c #784A3C",
"2  c #6B5232",
"3  c #765636",
"4  c #7A5C33",
"5  c #7B5C3C",
"6  c #7E6034",
"7  c #7B613B",
"8  c #6C4E43",
"9  c #7A5A48",
"0  c #7D5A56",
"q  c #7B6448",
"w  c #7B6552",
"e  c #7F6D61",
"r  c #845C3A",
"t  c #82623C",
"y  c #834D47",
"u  c #835C43",
"i  c #855A4A",
"p  c #9C5F4F",
"a  c #895C54",
"s  c #975B5C",
"d  c #846344",
"f  c #856B44",
"g  c #896946",
"h  c #85644C",
"j  c #8B634C",
"k  c #856B4D",
"l  c #8C6C4C",
"z  c #926A4B",
"x  c #8C7147",
"c  c #93744D",
"v  c #97774D",
"b  c #9B7C4C",
"n  c #836353",
"m  c #8B6453",
"M  c #846C53",
"N  c #8B6B54",
"B  c #85645C",
"V  c #8B645A",
"C  c #856A5C",
"Z  c #8C6C5C",
"A  c #926D53",
"S  c #96665B",
"D  c #936D5B",
"F  c #8D7254",
"G  c #8C725C",
"H  c #8D7959",
"J  c #937454",
"K  c #9A7554",
"L  c #967A54",
"P  c #9B7B53",
"I  c #93745C",
"U  c #9B745C",
"Y  c #957A5B",
"T  c #9C7D5A",
"R  c #A17C5B",
"E  c #8B6B63",
"W  c #896B65",
"Q  c #936D63",
"!  c #966A66",
"~  c #8C7363",
"^  c #8E7B64",
"/  c #8D736A",
"(  c #947463",
")  c #9B7563",
"_  c #947B64",
"`  c #9B7B63",
"'  c #93736A",
"]  c #9B756C",
"[  c #947C6A",
"{  c #9B7C6B",
"}  c #987A73",
"|  c #9C7C73",
" . c #A76566",
".. c #A27566",
"X. c #A37D63",
"o. c #A17D6C",
"O. c #B37C74",
"+. c #9D804D",
"@. c #9C8353",
"#. c #96825A",
"$. c #9C815D",
"%. c #A1825C",
"&. c #A88A5A",
"*. c #A3905B",
"=. c #9C8263",
"-. c #998566",
";. c #9D836C",
":. c #9D8172",
">. c #9D8973",
",. c #9D887A",
"<. c #A28364",
"1. c #A48B64",
"2. c #AB8D63",
"3. c #A3846D",
"4. c #AA8569",
"5. c #A48B6C",
"6. c #AA8B6C",
"7. c #B38B69",
"8. c #AC9263",
"9. c #A6936C",
"0. c #AB916C",
"q. c #AC986B",
"w. c #B09569",
"e. c #A38473",
"r. c #AA8772",
"t. c #A48B74",
"y. c #AA8C73",
"u. c #A38479",
"i. c #A48B7A",
"p. c #AB8D7C",
"a. c #B58A77",
"s. c #A69174",
"d. c #AC9374",
"f. c #AE9974",
"g. c #A6927C",
"h. c #AB937B",
"j. c #AD997B",
"k. c #B79978",
"l. c #B39C7C",
"z. c #B6A374",
"x. c #B4A37C",
"c. c #BBA47C",
"v. c #BDA97C",
"b. c #C29C7B",
"n. c #C2A47F",
"m. c #C1AC7D",
"M. c #C5B17F",
"N. c #AA8A81",
"B. c #BC8D84",
"V. c #AB9483",
"C. c #AD9A84",
"Z. c #AB9788",
"A. c #B39C84",
"S. c #B89886",
"D. c #B49D8B",
"F. c #B59C92",
"G. c #B89D96",
"H. c #AFA084",
"J. c #B5A283",
"K. c #BAA484",
"L. c #BDAB84",
"P. c #B6A38C",
"I. c #BBA68C",
"U. c #B7A88C",
"Y. c #BDAB8C",
"T. c #BFB187",
"R. c #B4A492",
"E. c #BAA493",
"W. c #B6AA97",
"Q. c #BDAB93",
"!. c #BCAB9B",
"~. c #BBB098",
"^. c #BBB19C",
"/. c #BCAEA1",
"(. c #BFB1A1",
"). c #C39B87",
"_. c #C59D93",
"`. c #C3AC85",
"'. c #C5A589",
"]. c #C3AD8B",
"[. c #C4B284",
"{. c #CAB486",
"}. c #C4B28C",
"|. c #CAB48C",
" X c #C8B98A",
".X c #CBBB8C",
"XX c #C4A394",
"oX c #C3AD93",
"OX c #C3AE9B",
"+X c #C9AA98",
"@X c #D1AA97",
"#X c #C5B393",
"$X c #CAB594",
"%X c #C6B894",
"&X c #CBBA94",
"*X c #C5B39B",
"=X c #CAB59B",
"-X c #C7B99B",
";X c #CCBA9B",
":X c #D0BA95",
">X c #D3B49A",
",X c #D1BA9B",
"<X c #C5ADA2",
"1X c #C5B3A3",
"2X c #C9B6A4",
"3X c #C6B9A4",
"4X c #CCBBA3",
"5X c #C6B4AA",
"6X c #CBB5AA",
"7X c #C6BCAC",
"8X c #CCBDAC",
"9X c #D2BBA4",
"0X c #D5B6AA",
"qX c #D0BEAC",
"wX c #C7BEB0",
"eX c #CBBEB1",
"rX c #D2C19F",
"tX c #CDC0A5",
"yX c #C7C0A8",
"uX c #CBC1AC",
"iX c #D4C4A7",
"pX c #D2C3AC",
"aX c #C7C0B0",
"sX c #CCC2B2",
"dX c #D4C4B4",
"fX c #D8CAB7",
"gX c #DACCBC",
"hX c #DDD2BE",
"jX c #E2CEB5",
"kX c #E1D3BC",
"lX c #DFCDC0",
"zX c #DDD3C1",
"xX c #E0CEC0",
"cX c #E2D4C3",
"vX c #E4D9C5",
"bX c #E4D7C8",
"nX c #E5D9CA",
"mX c #E9DDCE",
"MX c #EADED0",
"NX c #EBE1CF",
"BX c #EDE3D4",
"VX c #EFE6D8",
"CX c #F0E8DA",
/* pixels */
"q H C G G F Z ~ G H G G G H H Y Y #.#.#.#.-.:.} ^ -.^ -.-.^ H _ -.-.;._ Y Y J L $.$._ -._ -.@.@.*.-.:.-.-.-.#.#.@.#.;.:.:.[ -.-.",
"q H ^ ^ I ( ~ _ _ _ _ _ _ Y Y -.=.-.#.-.-.>.,.N.,.,.>.>.>.;.-.-.;.;.>.3.5.-.$.$.5.5.t.>.>.t.1.@.*.9.,.,.>.>.6.1.1.5.s.s.>.>.1.9.",
"L =.>.;.;.;.e.3.e.e.;.3.1.5.5.5.t.i.5.6.s.p.N.p.,.V.,.g.d.p.y.y.s.9.d.s.6.9.9.9.s.g.h.g.g.g.s.9.9.9.s.g.g.s.g.g.9.s.g.s.s.s.9.g.",
"#.6.t.t.t.t.t.y.y.i.g.d.t.0.9.9.s.V.d.0.d.V.V.N.V.V.C.g.g.g.h.g.d.9.d.h.h.j.f.f.j.V.V.V.g.V.C.g.9.9.g.V.V.g.V.V.s.s.g.g.g.j.g.j.",
"=.y.y.y.h.p.p.p.d.s.h.V.V.d.8.8.0.d.d.d.d.V.V.V.V.V.V.h.g.d.g.h.h.s.g.Z.D.V.S.A.l.h.C.C.C.C.C.C.j.f.V.Z.Z.C.C.C.j.j.h.Z.C.C.C.C.",
"o.h.h.d.d.d.h.l.f.q.d.Z.V.j.f.q.f.f.0.f.l.j.C.J.H.H.D.H.H.x.x.J.J.J.P.E.R.D.D.F.P.J.J.R.W.I.W.W.U.U.W.W.W.!.!.Q.Y.I.OX/.!.W.Q.U.",
"t.S.J.A.J.C.P.J.c.z.c.P.R.E.Q.I.K.K.K.Y.Y.].~.Y.~.~.*X*X~.~.%X*X*X*X1X*X=X=X2X2X2X*X2X8X8X3X7X7X(.(.aX7X7X3X3X4X7X7X7XeX7X7X3X3X",
"A.=X=XOX*X*X*X*X#X$X-X2X2X3X3X3X2X=X2X-X4X4X;X2X3X3XyX4XtX4XtXyXuX8XuXyXtX4X8X8XqXqXdXfXdXsXaXaXaXsXaXaX8X3XyXaXaX8XeXeXeXeX8X7X",
"Q.4X2X8X8X8X8XqX8X8XeXeX8X4X4X4X6X9X8X8XpXuX8XtXuXuXsXeXsXeXeXsXaXsXuXyXtXtXuXdX8X8XqX6X6X8X8XuXyXaXaXaXyXtXyXaXaX8XwXeXeXeXeX8X",
"Q.4X4X8X8X8XeXeXeX8XwX1XI.J.Y.*X6X8X9X8XuXuXeXpXuXuXsXsXeXsXeXsXsXsXuXuXtXtXuXpX<X<X6X6X+XoX2X9XyXaXuXaXyXuXyXaXaXyXyXeXeXeXeX7X",
"Q.tX4XuXeXeXeXqXuXaX7XZ.;._ >.V.G.2X9X8X8XsXeXeXuXuXsXeXdXeXsXsXsXsXsXuXtXtXuX=XF.G.<X<Xb.k.|.8XuX8XuXuXsXyXyXuXyXyXaXaXwXwXeX7X",
"^.uXqX8XqXeXeXeXaXsX1X} ~ E W / / e.oX4XdXeXuXuXuXuXdXsXdXeXsXsXsXdXsXdXiXiX;XJ.N._.<X@X).b.oX8XpX8XuXsXaXsX7X8XuX7X7XaXeXeXwX4X",
"/.uX8X8X8XeXeXeX8XpXQ.' W ! / ! ! V ( P.8XaXsXuXpXpXpXdXdXeXdXeXsXsXsXsXaXtXL.;.a.E.+X_._._.XX0X8X8XqXsXaXsXeXsXsXaXaXsXeXeXaXaX",
"/.uX4XuXeXeXqXqX8X8XI.G a V ! ] ] ! m U ].tXuXuXuXpXpXdXeXeXeXeXsXfXaXaXyX~.1.v 6.'._.).).)._.6XpX8X8X8XuXsXuXaXsXaXsXsXwXwXeXsX",
"/.uXuX8X8XpXuX8X8X9XXXZ i m E ' ] | ) A c l.3XqXpXpXpXuX8X5X!./.sXzXzXgX7Xg.k v 0.).'.).B.)._.0XsXuXeXuXsXsXuXaXyXuXaXsXaXaXeXeX",
"^.uX8XpXuX4XpXuX4X9XoXQ i N I Z Q | | Y h k 5.D.Q.2X!.C.i.,.u.D.sXzXBXNXzX3X5.P d.).k.b.O.)._.0X8XeXaXsXaXaXaXyXaXuXaXeXwX7XwXeX",
"^.yXaXaXuXuXuXaXsXtX-X] m m C n k c T ` V i t g N G F N H [ V.6XhXNXBXVXBXmXfXL.a.b.b.7.b.).'.=X1X^.^.*X~.W.W.R.W.W.W./.F.R.H.H.",
"U.yXyXaX-X3X3X5X^.-XQ.3.m B a d d g U X.) a r , , 4 l ` x.2XgXMXBXBXNXVXCXVXmXfX,X'.7.R 7.b.@Xk.k w q q q 9 w w w w w 0 0 q 7 7 ",
"H -.-.e -.e W w w w G o.! B i t d j A X...i y z c z { E.dXbXMXMXmXmXmXBXCXCXbXkXjX).&.&.&.b.@XS.Y ^ -.Y @.=.;.>.>.V.g.y.w.q.q.q.",
": > : < 8 8 8 2 5 q E u.r.Q d r u m S U R z z R z I i.1XgXkXxXcXzXzXcXmXCXCXnXkXA.2 ; r R b.>X,XY.Y.U.K.v.m.L.L.U.W.I.J.c.v.L.T.",
"9.q.s.h.Z.g.j.x.x.J.U.P.S.{ z r r m ) ..U K R p A ` p.S.N./ E :.3XgXzXnXBXCXMXbX_ < & > R b.:X,X*X*X*XY.m.m.m.[.OX/.!.Y.`.].oX*X",
"J.|.oXQ.W.U.L.L.].Q.Q.Y.Q.S.) m i j S S U X.R z A X.X.5 * : 8 * C eXnXmXBXCXCXVXV.$ O & c n.b.=XqX9X8X2X|.[.}.oX5X<X1X*X#XoXOX#X",
"x.&X4X8X*X}.}.}.#X=X#X#X].S.a.{ D j y y A ..S m D U v > $ @ @ # = D.bXMXBXBXVXVXgX^ 2 H oX9XA.V.8XqXqX4X-X%X*X5X5X5X*X*X#X#X*XoX",
"K.$X-X8X9X-X%X X%X*X*X$X#XS._._.B.S p j S D j m N %.c.~.H.-.e } Z.6XmXMXnXnXbXbXkXjXhXNXBXzX<XW u.2X8X4XtX3X1X5X1X<X#X#X#X#X#X#X",
"L.&X=X2X;XiXrX&X*X*X#X%X#XI.B.+XB. .s ! ..m m B 3 %.`.fXbXmXMXBXVXMXBXMXcX>X@X0X@X0XBXVXBXbXeX,.B Z.2X4XtX4X4X;X*X*X#X}.#X#XoX#X",
"Y.;X&X;X,XtXiXpX4X*X#X[.}.'.S.b.S...S S K d i : : t 0.=XiXfXhXnXMXMXBXMXfX7.p  . .G.bXbXlXfXeXG.} ( E.-X;X;X,X.X%X$X#X}.%X!.oXoX",
"Y.&X&X;X9X4X8X4X8X8X%X[.[.].k.6.4.X.S z x t < $ - 3 =.l.x.P.5XdXdXdXgXgXfX@XO.s  ._.5XS.V.V.S.Z.i.;.h.;X;X&X.X.X&XrX$X$X*X*X#X].",
"U.#X$X&X-X9X4X4X4X4X;X&X%X|.c.) 1 u S i d 3 & $ > 5 ;.d.y.h.h.N.N.h.A.F.G.F.N.s s ] U p m ! ! } { | 3.#X;X&X.X.X.XrX;X-X=X*X*X#X",
"U.-X4X2X;X;X;X;X;X4X-X;X;X&X X=.= < 8 1 < > # % > A 3.t.1.T F J I G W / ! s B y 1 r 8 1 y m S m Z { ;.oX=X=X.X X{.|.$X;X4X;X-X=X",
"L.;X4X8X9X;X;X-X=X=X=X;X-XrX&X5.> : : : = * @ : 4 F ;.;.Y g d h M n 0 0 0 0 y y 1 1 r 1 u i d d N ' t.+X=X,X:X X{. X}.#X=X4X;X;X",
"x. X*X2X&X&X$X=X*X*X-X;X;X;X|.d.7 & $ * * o o > 4 N ` { Y N J I M n 0 0 0 y y y y 9 9 9 h g h h E / i.$X,X,X:X|.{.{.{.}.$X*X&X&X",
"z.T.%X*X&X&X&X$X*X&X;X;X;X;X$Xc.x & # + X X o , 4 N ) } ( I D G N M W 0 W B a a n n a n h h h n E W t.#X:X,X>X$X|.|. X[.|.$X}.#X",
"k.|.$X$X$X;X&X$X#X%X%X#X$X$X$Xn.+.- O @ X X # , 4 V } } Q I F G G F k M M G C B B B a a w w 9 n Z C V.}.:X,X:X$X$X|.|.{.{.|.].#X",
"z.`.{.{.}.$X$X#X#X#X}.T.T.}.|.m.8.2 + @ o . % , 3 V o.] Q J F G G G M M M M C B W C w w w 9 9 B Z ^ I.|.:X:X:X|.|.@X>X{.{.{.|.}.",
"l.`.`.].oXOXOX#XOX}.[.#X#X#X].m.z.t # o X @ - > 3 D X.) D J J I G C M f k k N C E C w q 9 9 i m M 5.].$X,X:X$X$X+X>X$X|.{.{. X$X",
"k.`.].].OX+XY.OX}.Y.T.~.*XoX].c.v.8.> o   o % - 3 D U A J K L J G G M w q k l N V n q 5 4 5 h C I k.|.=X:X|.|.$X&X$X$X:X|.|.$X$X",
"x.`.`.`.XXoXE.Y.Y.L.L.oX*XOX].]. Xc.f # . . # % 9 D K v K U K J G ~ C h d t t t h q 4 4 3 d n Z 6.L.+X+X|.{.|.$X$X$X$X$X:X=X=X$X",
"K.|.`.`.oXoXoXXXY.`.L.W.Q.Q.}.#X#X].1.& .   o > h I J v P ` R Y I I Z h d t 6 6 5 5 4 4 t n V ) k.`.].oX'.`.{.$X=XOX#X#X|.+X|.].",
"K.$X|.{.].+XoXXX].L.Y.Y.Q.oXoX].$X].k.7 $ # = u l Y ) T R X.T U I I Z l d t 6 4 5 7 5 d k N D <.v.}.#X#X=X#X$X-X=X#X#X[.oX].].].",
"A.|.$X,X#XQ.OXoXY.oXQ.oXoXoX|.|.].}.k.P 5 4 d J K U ` ` X.R T Y J J A z g g d d d d h h m Z I d.}.#XoX#XoX#X X$X-X#X|.].].].].].",
"x.`.{. X}.$X#X~.^.^.OXOX*XoX[.[. X}.A.{ ' Q ( T $.T %.$.$.P J P J c l l m m h h d j h j m Q ) j.}.|.%X~.#X}.Y.%X;X&X&X*XoXW.oXoX",
"l.m.v.v.L.[. X$X*X*XOX<X=X].[.[..XoXA.u.| | ;.;.=.T T $.P v L L c x z m a a m n m m k m V E ) j.~.~. X XT.}.Y.#X$X$X#X1X1X*XOXQ.",
"z.m.v.v.v.m.[. X%X*X#XOX+X|.].[.;X].h.e.u.:.;.;.;.=.%.b P P J v c A S V ! ! V N N N g f Z ( _ j.].}. Xv.[.[.}.*X%X#X*X1X2X8X<XQ.",
"j.m.v.v.v.m.`.{.#X#X|.].].].oX-X-XK.d.r.e.3.;.:.| X.b b R K J J A N V W W E E m C N x f k I Y s.J.Y.T.T.v.[.}.#X#X*X*X1X1X1X2X=X",
"l.`.m.v.m.].].}.|.}.|.|.}. X X;XoXA.h.6.1.=.<.:.{ ` R +.b b v J J J V E W W W C V C M k F F Y y.K.T.T.[.T.T.T.*X#X~.#X*X*XOX#X$X",
"j.`.m.m.{.}.].{.{.].|.$X$X%X%X;X].A.d.d.r.3.3.3.=.T %.+.b L v b v K D Z Z E E W W C M F F I U t.K. X X X X$X*X1X-X%X^.*X*X*X*X[.",
"l.`.m.n.].'.].].].|.#X}.|.&X;X&XK.f.d.y.u.y.5.3.X.<.=.$.T ` P L v A K Z Z F Z ~ C M M k F I ` e.K.$X-X%X%X*X*X#X*X#X#X^.*XW.W.}.",
"A.$X|.oX$X$X$X$X#X*X*X#X X%XtX&Xx.d.s.y.y.i.e.3.4.<.<.4.=.` $.@.P K U D N G I ~ C M F N G G _ >.D.*XOX*XOX#XY.Y.I.U.I.R.E.Q.R.I.",
"K.=XoX*X#XoX|.oX#XOX*XY.T.|.tX^.A.h.h.6.y.t.,.e.r.<.%.%.<.=.$.+.P ) ] Q D D I G W C M l N G _ :.S.OXOXQ.Q.$XL.L.K.U.U.P.E.Q.W.Q.",
"D.OXOXoXQ.Y.Y.Y.].L.Y.T.T.%X4XQ.A.V.y.y.y.t.3.e.o.4.4.<.<.` @.%.R ] ] ] ( ( D G ~ G N l k N Y ` l.XXoX].Y.Y.L.T.Y.L.I.I.E.Q.Q.!.",
"J.#X1XOXQ.].].Y.L.L.[.T.$X;X3XE.Z.p.y.6.6.1.%.-.3.4.3.3.3.<.%.R P o.} ] ' } ( E ~ G k l c c L T d.].].L.Y.Y.Y.}.}.~.Y.W.I.Q.Q.Q.",
"x.$X*X*X*X*X#X].Y.L.[.$X-XiX2XD.A.h.d.6.2.&.&.=.3.5.e.| 3.<.%.%.R o.} ' ' ' ( ( ~ G x f x c I ` d.oX}.].}.%X%XT.}.~.oXY.L.L.L.I.",
"K..X%X-X-X*X#X#X#XY.].=X8XdX+Xl.l.l.d.q.8.&.&.6.t.t.e.| ;.<.R R X.X.' ' ' Q ( ' ~ G F x x J _ -.i.Q.=X&X;X;X-X}.#X*XQ.Y.Y.L.K.L.",
"K..X.X;X1X*X*X*X-X-X*X3XfXgX*Xk.f.j.d.9.8.2.6.r.i.u.u.e.:.<.o.{ ` Y I ) ( Q Q ( ~ I N F I ( _ ;.i.I.*X4X9X4X%X|.Q.*XQ.Q.T.[.[.#X",
"x. X X.X;X&X#X$X3X3X4XpXxXgXOXf.d.d.d.q.8.&.7.r.r.u.p.u.t.t.3.o.` T Y Y ~ ( I ( I J N I ( ) [ -.t.J.].#X*X=X$X.X|.%X*X#X}. X|.%X",
"x. X[..X&X&X-X-X-X3XpXkXvXfXE.l.q.d.d.d.8.&.2.2.4.r.u.e.;.3.3.3.` P Y J ( ' ( J J N I Q I ( _ _ ;.l.}.].].Y.[.&X&X}.oX[.`.[.L.L.",
"x.}.}.}.|.$X;X-X-XtXhXvXvXdXP.h.6.0.d.s.2.&.&.2.4.y.u.u.o.e.e.| ` K L I [ ] ) F J Y ( ( ( I Y _ ;.Z.OX#XoX`.`.M..X.X|.`.`.'.K.c.",
"U.$XY.L.Y.].=X#X;XpXhXvXhXuXF.h.f.6.y.y.w.8.2.2.6.y.t.u.u.u.u.o.{ P J ) ] { ` Y J I ' ' I I I Y ;.Z.OX#X#X}.}.`.[.{.|.:X|.].L.v.",
"U.%X#X].[.#XOX#X%XfXkXvXlX0XG.V.d.0.0.6.0.8.0.y.d.y.t.e.u.r.<.<.<.@.L _ ] ) U _ Q E / ' _ I L Y ;.Z.OX#X#X].}.[.m.`.|.=X;X-XL.v.",
"R.*X}.].Y.].#X#X;XfXvXvXlX6XG.p.d.w.8.0.6.0.0.d.d.6.6.3.4.2.<.` =.P b ) { _ Y ( / / ! / ' ` Y ` e.V.oX#XoX$X].{.{.[.`.|.$X-X$X[.",
"R.*X~.Y.K.`.#X*XpXhXzXzXgX5XZ.r.8.w.8.8.1.0.0.6.y.r.6.r.5.r.3.3.X.@.+.P Y I L G Q Q W ' ( ` ) ) ;.A.oX#X#X=XoX#X{.M.`.{.}.#X$X&X",
"R.*X%X#X].#X#X3XfXzXzXzXdX1Xh.r.a.0.0.4.1.0.0.6.6.1.4.5.y.i.e.3.=.$.b P b v L G I ( Z I ) ) ) ] e.D.OX#X*X*X2X#X|.{.M.|.#X#X#X$X",
"J.&X*X#X X%X-XuXfXzXzXlXdX*Xd.r.r.y.7.2.2.0.0.6.y.r.6.5.t.i.e.3.X.` R P b v L L v I ) G I ) ] ] e.oX*X-X4X4X=X$X|.{.{.|.&X>X&X$X",
"v.%X;X;X&X%X-XuXhXzXlXgXfX*Xp.t.y.6.4.2.2.w.0.7.r.N.p.r.t.t.y.r.<.=.<.b b b b P L I _ ) ( ( I ( e.}.$X&X&X:X$X|.:X|.|.|.=X=X=X&X"
};
