/* XPM */
static char *Screenshot_from_2023_11_29_15_08_00_resized[] = {
/* columns rows colors chars-per-pixel */
"64 64 236 2 ",
"   c #1C0604",
".  c #1E0804",
"X  c #240C07",
"o  c #270D08",
"O  c #2A0E09",
"+  c #2D110B",
"@  c #32140E",
"#  c #351C0E",
"$  c #351411",
"%  c #3A1613",
"&  c #371B14",
"*  c #3C1914",
"=  c #3D2414",
"-  c #3D2515",
";  c #431A15",
":  c #441916",
">  c #4B1A15",
",  c #521B17",
"<  c #551D18",
"1  c #591E19",
"2  c #462918",
"3  c #56261A",
"4  c #5D221B",
"5  c #4A311B",
"6  c #53351E",
"7  c #63241E",
"8  c #5A3926",
"9  c #553828",
"0  c #672A22",
"q  c #702F29",
"w  c #683528",
"e  c #73312C",
"r  c #713D2F",
"t  c #783A33",
"y  c #5C4528",
"u  c #664B2C",
"i  c #674A36",
"p  c #76483C",
"a  c #6A5239",
"s  c #72543C",
"d  c #785B3A",
"f  c #7B623E",
"g  c #7B4C42",
"h  c #6D5540",
"j  c #775B44",
"k  c #7D5D4A",
"l  c #7E5B53",
"z  c #7B634B",
"x  c #7A6548",
"c  c #7C6552",
"v  c #7E6A54",
"b  c #803D38",
"n  c #83443A",
"m  c #87553A",
"M  c #835C3C",
"N  c #85623C",
"B  c #854C44",
"V  c #835E44",
"C  c #865948",
"Z  c #865D53",
"A  c #965654",
"S  c #856244",
"D  c #83624B",
"F  c #8B634B",
"G  c #8A6748",
"H  c #846B4D",
"J  c #926C4E",
"K  c #8A734F",
"L  c #957A4B",
"P  c #846353",
"I  c #8B6453",
"U  c #846A54",
"Y  c #8B6B54",
"T  c #85655C",
"R  c #8A6459",
"E  c #856B59",
"W  c #8B6C5C",
"Q  c #926B54",
"!  c #936558",
"~  c #926D5C",
"^  c #8B7354",
"/  c #8E7854",
"(  c #887458",
")  c #8C745C",
"_  c #927553",
"`  c #9A7754",
"'  c #927A55",
"]  c #93745C",
"[  c #9B755C",
"{  c #947A5C",
"}  c #9A7B5D",
"|  c #A27D5E",
" . c #8B6B61",
".. c #946D62",
"X. c #946D69",
"o. c #8D7463",
"O. c #8E7965",
"+. c #937463",
"@. c #9A7664",
"#. c #947A63",
"$. c #9B7C64",
"%. c #94746B",
"&. c #9A766A",
"*. c #957A6A",
"=. c #9B7D6B",
"-. c #977B76",
";. c #997C72",
":. c #A0776C",
">. c #A37C6C",
",. c #9A8046",
"<. c #97835B",
"1. c #9C815C",
"2. c #A1835C",
"3. c #958463",
"4. c #9C8363",
"5. c #9D8A64",
"6. c #96836A",
"7. c #9B836B",
"8. c #9B8A6B",
"9. c #9B8472",
"0. c #9A8776",
"q. c #9C8973",
"w. c #A28364",
"e. c #A48B64",
"r. c #A3846C",
"t. c #A98769",
"y. c #A48A6B",
"u. c #A98C6C",
"i. c #A49165",
"p. c #A4916C",
"a. c #AA926C",
"s. c #A9986E",
"d. c #A18474",
"f. c #A98672",
"g. c #A48C74",
"h. c #A98C74",
"j. c #A48D7A",
"k. c #A98D79",
"l. c #A59275",
"z. c #AB9374",
"x. c #AC9974",
"c. c #A5937B",
"v. c #AA947C",
"b. c #AC997D",
"n. c #B29779",
"m. c #B19A7C",
"M. c #AFA17D",
"N. c #B3A27D",
"B. c #BAA77F",
"V. c #AA8D83",
"C. c #B88D84",
"Z. c #A59381",
"A. c #AA9483",
"S. c #AD9B84",
"D. c #AB9489",
"F. c #AE9C8B",
"G. c #B29D83",
"H. c #B39C8B",
"J. c #BC998A",
"K. c #AF9D90",
"L. c #B59D92",
"P. c #BE9C94",
"I. c #ADA088",
"U. c #B4A284",
"Y. c #BCA484",
"T. c #BDAC85",
"R. c #B4A38C",
"E. c #BAA48C",
"W. c #BDAB8C",
"Q. c #BFB087",
"!. c #B6A493",
"~. c #BCA692",
"^. c #B9A797",
"/. c #BDAB93",
"(. c #BCAC9B",
"). c #BFB196",
"_. c #BDB09D",
"`. c #BFADA0",
"'. c #C28F8B",
"]. c #C19B8E",
"[. c #C59D97",
"{. c #C2AF85",
"}. c #C4A18A",
"|. c #C2AE8C",
" X c #C3B286",
".X c #C4B28C",
"XX c #C9B68C",
"oX c #C7B888",
"OX c #C9B88C",
"+X c #C2AD93",
"@X c #C5A39A",
"#X c #C3AD9A",
"$X c #D0A29D",
"%X c #C5B393",
"&X c #C9B694",
"*X c #C6B893",
"=X c #CAB995",
"-X c #C4B39A",
";X c #C9B69C",
":X c #C7B89C",
">X c #CBBA9B",
",X c #C4ABA2",
"<X c #C5B4A3",
"1X c #C9B5A3",
"2X c #C5BBA5",
"3X c #CCBBA3",
"4X c #C5B6A9",
"5X c #C9B4AA",
"6X c #C6BBAC",
"7X c #CBBDAC",
"8X c #D1BEAA",
"9X c #C7BDB1",
"0X c #C9BEB3",
"qX c #D2BFB1",
"wX c #C8C1A6",
"eX c #C6C3AE",
"rX c #CBC1AE",
"tX c #D0C0A6",
"yX c #D3C3AD",
"uX c #C7C2B0",
"iX c #CBC2B4",
"pX c #CDC3B8",
"aX c #D3C5B4",
"sX c #D7CBB7",
"dX c #D6CCBC",
"fX c #DACDBB",
"gX c #DDD0BE",
"hX c #E3C9BF",
"jX c #DDD2C2",
"kX c #E1D5C4",
"lX c #E5D8C7",
"zX c #E6DACB",
"xX c #E9DDCD",
"cX c #EDDED0",
"vX c #ECE2D3",
"bX c #F2E8DA",
/* pixels */
"U v o.( ( ( ( Y K ) o.o.E K ^ { { { #.O.) 3.{ 3.O.O.O.) ) ) ' ' ' <.<.<.<.<.<.*.6.3.6.3.3.3.6.0.0.0.6.5.<.5.6.6.5.5.8.8.8.8.3.5.",
"U ( ( ( ( / ( o.+.*.*.*.#.' { 3.7.7.0.9.8.6.8.8.8.0.q.0.6.6.4.e.e.e.e.i.i.2.5.5.8.q.l.l.p.8.q.c.Z.j.p.y.l.g.l.g.8.i.p.q.c.q.p.i.",
"3.3.3.3.3.3.7.9.9.d.g.d.y.5.y.j.j.j.j.c.c.l.q.l.c.c.c.c.j.g.h.l.p.a.s.a.s.a.i.s.p.c.Z.Z.c.c.c.c.Z.c.l.l.c.c.c.c.l.s.l.c.c.c.l.l.",
"i.i.i.8.8.8.c.c.g.c.c.l.l.l.c.j.c.z.c.c.c.c.c.c.c.c.Z.c.c.c.c.c.z.x.s.x.x.x.s.s.x.Z.S.b.c.c.S.S.S.Z.s.x.x.b.A.Z.Z.Z.Z.S.Z.c.Z.c.",
"p.p.p.p.q.l.l.c.c.l.z.z.z.z.l.Z.v.v.z.v.b.b.b.A.Z.Z.c.x.c.c.x.b.x.x.x.x.S.b.x.x.S.S.S.c.s.x.S.G.F.S.b.b.M.S.D.F.K.K.K.F.I.I.I.I.",
"l.l.x.l.l.l.z.v.z.Z.A.v.z.x.S.D.A.b.b.b.A.G.G.G.U.I.S.M.M.N.M.M.N.N.N.R.R.I.R.R.R.!.!.W.R.W.~.^./.^.^.(.^./.^.(.^._._.(._._._._.",
"I.I.I.S.U.G.U.H.L.!.!.H.B.R.!.^.!.~.W././.#X%X-X-X-X(.%X).%X%X).*X%X-X<X2X_._.eX4X4X3XwXaXrX7X6X6X2X6X6XeX6X6X6X`.uX9X9X6X6XeXeX",
"-X-X-X-X-X-X<X<X1X5X4X<X-X:X4X4X4X5X3X5X3X3X7XwXiXrX0X7XwXwXrXiXrXiXiXiXiXuXuXuX0X0XiXaXyXiX0X7XeX7X0X0XuX9X9X9X`.jX9X0XiXuXuX9X",
"7X8X7X3X3X7X7X7X6X7X7X1X-X-X>X3X8X7X5X7X7X7XiXrXrXaXaXiXyXrXrXiXiXiXiXiXiXrXiX9X6X4X4X4X,X<X5XyXrXiX9XiXiX9X9X9XpXpX9X9X9X9XpX9X",
"8X8X8X8X7X7X7XrX7X0X2XU.x.a.m.W.;X3X8XqXyXrXrXuXiXiXiXaXiXaXpXiXpXiXiXuXiXiX0X7X`.^.,X5X#XP.;X7XwX7XuXiXiX0X0XiX9XpXpXpXpX9XpX9X",
"7X3X8X7XqX0X7X0X0XrX_.y.} _ { $.h.+X3XrX0XrXrXeXiXpXpXiXpXpXpXpXpXpXaXpXiXiX0X#XD.L.,X,X@XP.,X7X7XrXuXiXiXiXiX9XpXpX9XpXpX9X9X9X",
"3X7X7X8XiX0X0X0XrX7X~.o.W ~ ~ ] ) @.U.1X7XaXiXrXiXiXiXpXiXiXpXpXpXpXpXuXiX7X#Xj.d.L.@X,X[.[.@X9XeXrXuXrXiX9X6X9X9XpX9X9XpXpX9XpX",
"yXwX8XiXpXiXiXeXeXwXU.E P E ~ +.~ Y ^ z.-X7XiXiXuXpXpX0XpXpXuXeXpXdXdXdXuX^.q.#.f.J.,X[.L.C.P.5X0XrXrXiXrXeX7XeXuXpXuXpX9X9XpXpX",
"rXrXrXaXpXuXeXuXeXwXU.U z P W +.=.@._ ^ y.~.8X0XpXpXqX6X`.^.I._.dXxXvXvXzXdX).S.m.L.P.P.C.C.].5X0XiXuXrXiXrXeXiXiXuXuXuXpXpXpXpX",
"rXrX0XpXpXrXeXeXeXwXU.H c R  .X.@.>.4._ G ` v.T.(.<X!.Z.q.c.!.dXxXvXbXbXbXbXjXdXyX#XH.C.C.C.P.1XrXuXuXiXiXiXiXuXuXuXuXuXuXpXpXpX",
"yX0XpX0XpXuXrXeXeXwXE.W P  .W ~ ] | >.' G d N G Y ) ) 9.!.iXzXvXxXxXvXbXbXbXvXjX^.) k Y f.C.}.;X3X:X2XwX6X9X9XuXrX6XuX_.uXuX`.`.",
"iXrXiX0XpXiX9X6XrXrX/.#.I R P G G J | | J N m m V G 4.#XkXlXjXjXkXzXxXcXcXcXcXcXaXL.W a Y f.J.;Xc.( { q.c.Z.Z.c.0.l.8.6.6.3.6.O.",
"2X7X6X6X4X,X`._._._.R.5.Y P D S G G ` | [ m M J ~ $.E.3XL.;.O.`.lXcXxXjX5X[.C.C.'.$XjXhX7X1X#X<X/.j.o.( v x x x x v z H ( ^ ^ _ ",
") ( ( v c v v x x h z } [ F V M N G J [ [ Q J [ [ h.h.k i h O.pXbXvXlXqX].>.Z A A A [.lXbXbXzX5X#X4X).!.I.M.M.M.M.U.U.Y.Y.}.Y.Y.",
"s s s h h h x x z ( 3.f.f.[ S M V F Q | [ ` [ ~ ] 4.j i O.`.xXvXzXpX^.k.X.! l g p n R k.:XhXzXlX5X,X4X-X/.T.T.E.Q.W.W.W.{.|.|.%X",
"W.Y.U.U.I.M.U.I.U.U.Y.E.J.h.Q M C F Q ! [ [ ] Y @.G.+XaXzXvXzXaX^.-.T h 9 - & & $ & 2 8 c c.2XaX0XL.,X7X5X%X%X+X%X/.#X+X.X%X%X%X",
" XXX%X+XW.T.{.|.%X+X|.+X%X].f.[ J F C C F ] E I h.yXzXlXlXfX<Xk.P 8 * O X .         . O & i ) F.(.L.H.7X0X5X<X:X-X-X%X-X%X%X&X#X",
"oXXX>X3X=X-X.X%X-X&X%X%X|.}.].J.>.! C Z Q E P x b.aXfXaX7X~.r.d 5 + X . . .             . $ 8 Z >.A.Z.~.8X8X5X:X-X-X%X-X%X-X-X#X",
"oX*X=X&X3X3X>X&X&X&X&X&X{.B.J.@X'.| R ! _ z a d b.8X;X#XH.=.s = O X . X X . o o X .     . . * 8 Z %.9.A.1X0X7X3X-X%X%X%X%X%X%X%X",
"=X=X>X>X>XtXtX>X>X=X=X=X X|.J.[.'.:.! ! Y d y x m.|.G.V.$.d = O X X X O O O O + + O O X X   X : i P #.9.+X7X7X3X*X*X*X%X%X%X+X%X",
"=X>X=X>X>X>X>XtX>X=X=X*X%X+XP.C.C.>...! P u y / m.v.j.r.K 5 X X X O O O O $ @ $ + + @ O X X X O 3 s H 7.G.3X3X>X>X>X=X=X-X-X#X+X",
"=X=X>X>X3X>X>X>X>X>X=X-X%X#XE.;.k C Z C s y u ' z.g.=.] u @ X o O O $ + $ + + $ @ @ $ + + + + O * u S #.k.1X3X>X3X>X>X=X;X1X-X#X",
"=X=X=X>X3X>X3X>X>X>X&X=X>X;X%Xg.i i s i 8 6 d 1.u.>.+.k 2 X + + $ + $ $ $ $ $ $ $ $ $ + @ + @ @ % 8 d ) g.-X;X3X>X>X>X>X;X3X;X-X",
">X=X>X>X>X>X>X>X>X=X&X>X3X3X3XG.d y y y 5 6 f 1.r.@.R 9 O O + @ + $ $ $ $ $ $ $ ; $ $ $ @ @ # # % 8 d W d.#X:X>X;X&X&X&X>X3X>X;X",
">X>X>X*X=X=X=X=XOX=X-X>X3X3X=XE.v y 6 5 - y H <.$. .k * X @ @ $ $ @ $ $ $ $ $ % $ $ $ $ ; $ ; # ; 6 s W 9.+X>X<X;X&X%X&X&X&X>X>X",
"OX*X*XOX*X*X=X=X=X=X>X3X3X3X&XT.5.y 5 5 - a ( <.@.R g $ O $ * * & $ $ $ % % % % ; $ % % ; ; > ; ; 6 d E 7.+X1X1X;X&X&X|.&X&X=X=X",
"*X*X*X*XOXOXOX=X=X-X1X3X3X&X&X|.s.u - - - f ( { +.R i % O % * * * $ $ % % % % % $ $ ; $ ; > , , 2 6 d E =.+X>X;X&X|.+X&X&X&X&X=X",
"-X%X%X%X.XXX*XXX-X-X:X-X-X.XoXoXM.d 5 - 2 a D ] +.R g > @ * > ; % * % % % % % % % % : : : , 1 < 3 8 f E 4.|.=X=X.XXX.X&X&X&X%X.X",
"#X(./.%X).%X.X%X.X-X#X-X).Q.Q.B.M.,.5 # - y x ) X.X.Z 8 > 2 3 , : * % % & % & % % % % : > , 1 1 8 p H ^ e. X=X&XXX.X.X&X&X&X&X&X",
"/././..XQ.%X+X+X+X#X/././.).Q.B.Q.M.y # = 6 H ] +.%...p 6 4 3 3 < > : % * * % * % : > , 1 7 1 7 r j U / a.XX=X&X.XXX&X&XOX=X=X=X",
"+X|./.W.T.T.|.|.+X|.%XQ.Q.Q. XQ.B.B.v 5 - y H { +.@.@.F p w w 4 4 < , : : * : * : : , 1 1 1 7 q g P U { }.&X=X&X%XXX*X&XOXOX&X&X",
"&X+X.X|.T.|.T.+X|.+X+XT.Q.Q..X XQ.Q.s.y 5 a H ) $.@.&.@.Z p r 7 0 4 1 , , , , , , 1 1 7 7 0 e t B P U 8.+X&X&X&X%X&X&X&XXXXX&X%X",
"&X*XXX%X%X|.+XW.W.W.W.W.Q.T.Q. XoXQ.B.H u f ( { @.$.&.&...Z p p q 0 0 4 4 4 1 4 7 7 7 7 0 e b B l v W b.#X#X#X&X;X&X#X.XXX.X.X%X",
"%XXX*X=X%X+X#XW.|.T.|.T.T.T.Q.oX X{.Y.=.Y Y ) =.@.>.:.=.&.~ I B g t e q 0 0 0 7 7 7 0 q e b g l c v 7.~.#X#X&X>X;X%X X{.{.{.{..X",
"%X.X.X&X*X%X%X.X|. XW.%X+X.X X X XXXY.g.$.#.*.=.7.>.;.=.=.+...I B g B t t e e q e q b b B B Z c c o.S.%X%X%X%X.XXXXXoX XB.}.{..X",
"+X|.Q.T.W..X%X%X|..X%X%X+X.X X XoXoXY.f.4.} 4.=.=.4.=.;.=.@.@.~ R C B B n n n n n n n n C P c z U q.~.).)..XQ..X.XXX.X.X+X+X~.|.",
"/./.E.Y.W.W.#X%X&X|..X|.|.|. X X=X>XG.f.w.1.4.w.w.4.4.=.$.@.#.] ~ ~ Q F S m m m m m m V P z z z ( S.).#X X.X.X.X.X|.%X;X;X-X/.E.",
"/./.W.E.W.+X+X&X&X&X.X X X.X).%X;X#XG.f.e.2.2.>.$.7.4.=.4.{ { ] +.] ] ~ ! F F D F V F D k k c v 7.~.).-X%X X X.X&X%X%X;X%X%X*X+X",
"W.~.+X+X|.|.|.%X.X XoX X-X-X-X<X1X+Xn.g.t.w.w.2.4.7.4.4.{ ` } { ] ~ ~ ! W I G G S V V k Z c T ( l.T.%X-X-X.X).oX|.+X#X%X-XXX*X&X",
"~.+X+X@X+X|. XXX.X|. X*X>X>X1X3X1XJ.A.j.r.r.w.w.1.4.4.4.{ { { ` ] Q Y I R I D M d d j D P  .o.o.l.Q. X%X%X*X).).%X/.%X%X*X*X*X%X",
"~.+X+X|.{..X X}.|.W.%X%X-X-X*X=X%XH.k.k.g.t.w.w.w.w.5.1.1.} } ` [ ~ ! I F Z D V D V D P T  .o.*.b..X*X%XOX*X*X*X%X%X).%X#X/.W.|.",
"+X%X@X{.{.{.XX+X-X-X).-X-X%X=X=X|.n.k.j.u.e.e.5.5.5.4.2.w.$.>.} @...~ ~ Q I J I P P P I U ) ] =.b.).%X).). XQ./.T.W.W.^./.~.E.T.",
"%X%XXXXXXX|.XX&X%X%X-X%X).%X-X&XE.v.v.v.l.e.e.e.8.y.w.r.w.4.} $.@.X.X.....Y J P R E P H H K / 3.b.~.).W.W.Q.W.W.W.T.W./.~.~.T.T.",
"#X|..X|.T. X X|.|. XT. X%X).*X%XU.v.v.v.u.u.e.e.u.y.e.r.f.=.$.$.&.&.&.%.X.~ W U E E U H H K ^ #.j.+X/.W.T.).W.T.E.W.R./.W.W.T.W.",
"+X%X.X X|.{. X|.{.{. X|..X%X;XW.m.x.z.a.u.e.e.u.e.t.y.y.r.;.>.=.=.=.&.+.%.X.o. .W E W Y E o.' { g./.+X/..X.X%X).W.W.W./.W.~./.W.",
"=X&X&XXXoX X|. X{.{. X.X%X>X3XW.m.n.n.a.a.u.t.t.e.e.e.w.w.r.d.d.$.` ' ' o.o.%.o.o. .E ) +.%.+.=.g.~.#X|.%X-X%X%X).).)././././.W.",
"=X=X=X&X&X.X X X XXX%X%X&XtX3XU.m.n.n.x.a.u.u.u.t.r.e.e.w.f.;.>.4.,.,./ ) o.O.{ / ( E ^ o.%.;.=.j.~.&X>X3X>X&X%X)..X).W././.).W.",
"%X&X=X&X&X&X&XXXXX-X-X=X8XsX8XY.b.m.z.n.n.k.h.f.f.f.f.y.y.r.9.;.$.` L L ) O.o./ ^ K K ^ o.&.;.;.9.G.;X>X1X>X&X%X.X.X/./.).-X-X).",
"*X-X&X>X>X>X=X>X:X>X3XwXfXkX3XU.b.n.z.a.h.n.n.k.f.f.f.g.g.r.r.>.r.$.} { O.+.] / / K / ^ / ] #.*.d.G.|.+X;X>X=XXX*X.X%X%X_.-X-X.X",
"-X&X-X=X>X3X=X=X>X>XtXsXlXkX2Xm.n.n.a.a.z.h.n.k.u.y.y.y.r.r.r.r.>.$.$.#.O.O.{ ' / ^ _ / { / { #.4.n.|.&X|.|.XX=X=X*X%X%X%X/.).Q.",
"-X&X.X&X&X=X>X>X>X>XyXkXzXgX-Xx.a.n.n.n.a.a.a.a.u.t.e.t.t.t.r.r.$.$.$.] *.#.{ / / { / ' ' / ' { 7.A.+X.X.X|.|.XXOX=X*XW.W.W.T.E.",
"-X-X.X{. X*X*X-X>XwXsXzXkXsX.Xx.z.z.a.z.a.a.a.a.l.u.y.e.y.t.t.w.4.$.$.@.&.=.{ ` _ _ ^ #.{ / / { =.D.+X%XXXXXXX{.oXXX=X&X.XW.E.T.",
"-X-X%X).T..X.X%X:XwXgXzXkXsXW.x.z.v.z.z.a.a.a.z.z.z.h.y.y.t.w.w.4.$.=.+.#.*.} ' L _ _ o.#.o.' $.9.V.|..X}. X|.{.|.W.%X=X=X-X).T.",
"-X<X-X/././.W.%X>XyXkXlXjXaX/.x.z.Z.z.z.a.a.a.a.z.z.l.g.h.r.r.>.4.$.=.*.=.*.{ ^ K _ _ ) +.+.] { =.A.|. X|.XX.X X X%X|.&X&X&X=X*X",
"-X-X-X%X+X/.W.%X3XfXgXlXjXaX#Xz.a.z.l.z.a.a.a.n.z.h.l.g.g.g.r.8.w.4.7.=.=.*.{ _ _ _ ~ o.o.%.#.{ =.H.+X.X.X X%XXX%X|.%X+X%X.X-X=X",
"_.-X-X-X#X+X+X-XwXgXjXjXjXaX~.h.i.i.a.z.z.z.a.a.p.a.p.y.g.j.d.r.w.7.7.>.4.$.*.' { +.+.+.+.+.+.+.=.E.-X-X&XXXXXXX&X&X-X-X-X X%X%X",
":X*X:X-X-X;X<X3XsXjXjXgXsX7XE.h.u.i.a.a.z.a.u.a.e.i.i.h.g.g.f.r.e.4.4.4.4.3.=.=.*.%.%.O.+.+.] +.;.#X=X>X=X=XOXXX&X&X&X&X-X*X&X&X",
"=X-X*X*X>X&X1XwXfXjXjXdXaX7XL.V.h.u.u.a.u.a.a.i.e.a.a.g.h.j.g.y.e.<.4.<.<.4.6.*.-.-.=.+.+.+.] +.;.+X3X>X=XOXoXoXoXXXXX*XXXXXXXXX",
".X.X.X|.|. X-XrXdXjXfXaXyX5XL.V.c.u.t.y.a.a.a.u.h.h.h.k.j.g.d.w.e.5.4.1.$.$.7.-.-.-.-.+.@.] ..+.9.+X3X;X>X&X XoXoXoXXXXXXX&X XoX"
};
