/* XPM */
static char *Minecraft_Door_resized[] = {
/* columns rows colors chars-per-pixel */
"64 64 141 2 ",
"   c #13161D",
".  c #15181E",
"X  c #1B1B1E",
"o  c #2F261B",
"O  c #30271B",
"+  c #32281C",
"@  c #0B1621",
"#  c #0D1822",
"$  c #131B22",
"%  c #1A1F22",
"&  c #272723",
"*  c #282723",
"=  c #2B2923",
"-  c #23272B",
";  c #26292C",
":  c #2C2D2E",
">  c #322F2B",
",  c #3E3422",
"<  c #34302B",
"1  c #2D353B",
"2  c #3B3933",
"3  c #32373A",
"4  c #34393B",
"5  c #3B3C3B",
"6  c #422F17",
"7  c #443017",
"8  c #4F3715",
"9  c #4F3917",
"0  c #463319",
"q  c #49351A",
"w  c #4D391C",
"e  c #563515",
"r  c #583716",
"t  c #543916",
"y  c #5B3A16",
"u  c #52371A",
"i  c #543C1C",
"p  c #5A3C1B",
"a  c #6F3D17",
"s  c #643E1A",
"d  c #6B3F1D",
"f  c #723F18",
"g  c #5A3E20",
"h  c #643F20",
"j  c #57401F",
"k  c #5E421C",
"l  c #62441D",
"z  c #6A431D",
"x  c #66491F",
"c  c #684B1F",
"v  c #74441C",
"b  c #7A451D",
"n  c #74491E",
"m  c #5C4522",
"M  c #5F4924",
"N  c #5E452D",
"B  c #5F4B2B",
"V  c #574932",
"C  c #584A32",
"Z  c #5C4F38",
"A  c #624622",
"S  c #6B4421",
"D  c #654A24",
"F  c #6A4C24",
"G  c #604F2A",
"H  c #6C4C28",
"J  c #734524",
"K  c #794727",
"L  c #734D25",
"P  c #794B22",
"I  c #744E2A",
"U  c #6E5125",
"Y  c #62502A",
"T  c #6F5128",
"R  c #745426",
"E  c #7B5326",
"W  c #765824",
"Q  c #7A5B23",
"!  c #75552A",
"~  c #7B542B",
"^  c #765A2A",
"/  c #7B5B2C",
"(  c #654C34",
")  c #62553D",
"_  c #705332",
"`  c #7C5E30",
"'  c #7E612C",
"]  c #7D6131",
"[  c #3D4143",
"{  c #444543",
"}  c #80562D",
"|  c #835C2E",
" . c #825730",
".. c #835B30",
"X. c #85642D",
"o. c #89662F",
"O. c #87682D",
"+. c #89692E",
"@. c #936B2D",
"#. c #856431",
"$. c #8A6632",
"%. c #876931",
"&. c #8C6B34",
"*. c #8E6D39",
"=. c #916C36",
"-. c #926E39",
";. c #8D7036",
":. c #8E7139",
">. c #927135",
",. c #9A7336",
"<. c #94733A",
"1. c #9A753B",
"2. c #967A3D",
"3. c #9B7D3D",
"4. c #A07639",
"5. c #A37C3D",
"6. c #927541",
"7. c #957841",
"8. c #9B7E41",
"9. c #A27F40",
"0. c #9E823D",
"q. c #A0843E",
"w. c #9E8242",
"e. c #9C854D",
"r. c #9E8A4B",
"t. c #9F8A50",
"y. c #A38443",
"u. c #A58945",
"i. c #A88947",
"p. c #A58648",
"a. c #A68A49",
"s. c #A98B4A",
"d. c #AC944C",
"f. c #AF984F",
"g. c #B0914E",
"h. c #B29A4E",
"j. c #AF9551",
"k. c #AF9A50",
"l. c #B09450",
"z. c #B29B52",
"x. c #B89D54",
/* pixels */
"P P J w.z.g.z.y.=.=.=.=.=.=.=.,.,.=.=.,.9.i.u.q.u.u.u.q.u.u.u.u.0.+.%.%.&.+.+.+.+.q.q.y.q.3.>.>.>.3.s.i.s.s.p.y.s.p.<.=.=.>.E b ",
"P P J y.z.h.z.y.=.=.=.,.,.=.=.=.=.=.=.=.q.i.u.u.u.u.u.u.u.q.u.u.0.%.%.%.%.&.=.+.+.0.q.q.q.3.>.,.>.3.s.i.a.i.s.s.i.p.<.=.=.>.E n ",
"P P J y.x.g.z.y.=.=.,.=.=.=.,.=.>.,.,.>.y.u.u.q.u.q.u.u.u.u.q.q.w.%.%.%.&.+.+.@.+.0.q.0.q.3.>.,.>.3.s.i.a.a.i.i.i.i.<.=.=.=.} b ",
"p p y &.y.5.q.=.} | | ^ c F F v c c c c F R U U U U U R U U Q c W ] ^ ' ^ R F U U T ^ W Q R R U U ! ! ^ ! ^ #.....#.../ | / x y ",
"t t 8 o.5.1.5.$.! / / R s k k k k k k k k k k k l k k k k k k k k _ T ^ ^ A D D D D c D A D D D A D c D x D ! / ! ~ / / / / m u ",
"t i t $.q.1.5.&.~ / ` R l l l l k l l k k k k k l l k l l k k k D ' ' ' ^ F D F c D D F D D U D D F D D D U / / / / / ~ / / A t ",
"t t 8 %.5.4.5.$.! ` ~ R y l k k k k l k l l k x l l k k l k l k c ' T ^ W F F F D D U D U D D D F D U D D U ! ! ! ! _ / / / k t ",
"l l s <.s.i.i.1.#.$.%.X.R R R U j 9 i i 9 j i w t 9 i i j 8 j 8 M 2.2.2.:.j i j j i i i j j i j j i i j i D 2.2.1.7.$.$.#.#.H h ",
"S S A w.k.f.k.w.-.-.<.=. .....} q q 0 q 0 q q 0 0 q 0 q 0 q 0 7 G d.a.a.e.0 0 0 0 0 0 0 0 0 0 0 0 0 0 q 7 m s.s.s.s.<.-.-.<.I S ",
"S S d w.k.d.k.w.-.-.-.&.} } | ~ q q q q q q q q 9 q q q q q q 7 M r.r.a.w.w 0 9 q q 0 w q q w q q q q w 0 m s.a.p.p.<.-.-.-.I S ",
"z S l w.k.k.f.w.-.-.<.$.} | | ~ w q q q q q q q 0 0 q q q q 9 , M a.u.a.w.w q q q q q q q q q q q q q q 7 m d.u.s.p.<.-.-.-.I h ",
"z S k w.k.d.d.0.&.*.-.$.} ~ } E q q q q q q q q q 9 q q q q q 7 M d.r.a.e.w 0 q q q q q q q q q q q q q 0 m a.u.p.p.&.&.&.=.L S ",
"S A d 2.d.a.d.0.#.&.%.X.E E E R q q q q q q q q q q q q q q q 7 G a.a.a.e.w q q q q q q q q q q q q q q 0 m 0.0.y.5.%.o.%.&.L z ",
"x z l 2.d.d.d.0.%.%.&.X.E E E L q q q q q q q q q q q q q q 9 7 M d.a.a.8.w q q q q q q q q q q q q q q 7 m w.y.0.y.$.$.%.$.L z ",
"z A d 2.d.a.d.2.%.%.&.X.! E E R q q q q q q q q q q q q q q q 7 G s.a.a.w.w q q q q q q q q q q q q q q 0 m y.0.y.0.&.%.%.%.L l ",
"z S l 2.d.d.d.8.%.&.&.#.E E E R q q q q q q q q q q q 0 q q q 7 D a.r.a.8.w q q q q q q q q q q q q q w 0 k u.q.y.y.$.%.%.&.L z ",
"S S h y.z.d.z.w.$.=.=.| } } } E 8 q q q q q q q q q q q q q q 7 M p.w.p.0.q q q q q q q q q q q q q q q 7 m a.p.u.y.:.&.&.&.R S ",
"z J d w.z.d.z.w.@.=.=.o.} } } E q q q w q q q q q q q q q q 8 7 M p.w.w.6.j q q q q q q q q q q q q q q 0 m i.p.u.u.<.&.&.<.L z ",
"J J d w.z.d.z.w.=.=.=.$.} } } P q 0 0 0 q 0 0 q 0 0 7 , q q q , M p.w.w.w., 0 q q 0 q q q q 0 0 q q q q 7 m s.9.u.u.&.&.&.*.L A ",
"z z d 8.z.d.z.8.o.$.=.o.} } } b 9 9 9 w w w w w 9 9 9 j w w w q D y.w.w.2.j q q w w w w w w q 9 w w w w q A p.9.y.y.&.&.&.&.L z ",
"t r e =.y.5.q.=.R W W ^ R E R E &.=.=.&.&.%.%.%.%.%.%.O.$.$.$.$.&.<.>.<.2.;.;.;.:.;.;.;.;.;.:.;.:.;.$.$.$.$.6.-.-.-.E R E ^ A i ",
"r e e =.5.5.5.o.R R R R W W R ^ >.,.>.,.:.:.*.:.@.;.;.;.=.-.-.=.*.<.;.>.>.;.>.2.2.:.2.2.<.2.<.2.2.:.,.@.=.,.-.-.-.*.! R ! ! A i ",
"t t e $.q.5.5.=.R R ! W ! R R ^ <.,.>.<.;.:.*.:.;.+.;.+.=.-.-.-.=.:.<.>.>.2.;.2.>.>.;.:.<.:.<.<.:.>.=.=.=.=.-.-.*.*./ I R ~ A i ",
"r r e =.5.4.5.o.R R R R R R R E >.=.>.<.&.&.*.&.;.@.&.&.&.=.&.-.=.<.>.>.>.;.2.>.2.:.2.>.<.<.<.1.2.;.=.=.@.=.-.-.-.*.R R R R g g ",
"z S h 8.f.s.d.0.#.&.$.&.&.%.$.*.y.y.y.y.e.y.w.w.8.0.3.3.w.w.w.y.w.0.0.0.0.*.;.;.*.7.p.p.p.p.9.p.p.9.p.9.p.9.-.<.6.-.-.$.$.$.K h ",
"J J J w.z.f.z.w.*.<.-.*.-.-.-.<.i.a.a.p.a.a.a.a.y.w.w.0.p.a.a.a.u.w.0.r.0.;.*.*.6.s.g.s.g.s.s.g.g.g.g.s.g.i.7.7.1.7.-.-.6.-.P f ",
"J J h 9.z.d.z.w.&.=.-.-.-.-.&.<.a.a.p.p.p.p.p.p.w.0.0.0.w.a.p.p.u.w.0.0.7.*.*.%...p.g.9.p.s.s.p.s.s.s.s.s.p.<.<.-.-.-.-.-.-.P v ",
"J K d e.z.j.z.w.-.-.*.<.-.<.<.1.a.s.a.a.s.a.s.s.a.0.r.w.a.s.a.s.u.w.w.w.w.*.*.6.6.s.g.s.g.g.g.g.g.g.g.g.g.s.1.1.7.4.-.-.-.-.P d ",
"h J f 8.z.d.z.8.%.=.=.#.^ ^ ^ / -.-.6.-.-.6.-.-.;.;.-.*.-.-.-.-.<.<.2.:.:...] .. .6.*.6.*.6.*.6.-.6.*.*.*.*.&.>.;.;.;.;.&.;.P z ",
"f f f 3.z.d.d.3...$.$./ l x x A  .~ ~  .} }  . .} } ~ } ~  . . . .%.%.%.%.! ~ _ _ K K I J I J K K I _ J I ~ +.+.+.O.O.+.&.+.P v ",
"v f f 8.z.d.d.8.%.$.$.| A D x F  . . ... . . . .| .... . . . . .#.&.&.;.$.~ ~ _  .~ ~ ~ _ ~ _  .~ I I _ ! ^ +.+.+.+.+.+.+.+.R v ",
"f v a 3.k.d.z.3.o.$.$.} x A x D  . . . . . . . . . . . . . . . .` *.#.*.$.~ I ~ _ K _ _ I ~ ~ ~ ~ ~ } } Q ' >.;.@.>.;.+.;.%.P v ",
"f f f 9.z.g.z.8.$.=.=...F F F F X.| | | | X.| | X.| | | X...| | #.<.2.>.>./ / ~ ~  ......._ ( ( ( ( N N N N Y B G Y / | | | b n ",
"b } K 9.z.j.x.9.=.-.-.$.L ~ ~ ~ o.+.+.O.+.+.+.O.+.+.+.O.+.+.+.O.&.y.0.q.0.#. ...| =.<.=.,.) [ { { 4 ; : : - @ @ @   a b b v b b ",
"f } f 9.z.l.z.8.=.-.-.$.R ~ R ~ o.+.O.O.o.+.O.O.o.O.O.O.O.O.O.O.@.0.0.0.5.........=.<.&.>.) { { { 5 : > 3 : $ $ $ % z b b b b P ",
"b b f p.x.l.x.y.=.-.-.$.L R I ~ O.O.O.+.+.+.O.+.+.+.+.+.+.o.O.O.;.0.0.w.w... .....&.>.>.>.) [ { { 5 : : : ; # # @ $ v b b b b P ",
"f f f 6.r.e.r.7.$.$.-...I I I I O.+.O.O.O.X.X.O.O.O.X.X.O.O.O.X.+.0.0.0.3.| | | ' %.;.%.=.Z 5 5 V 3 < < < > = = & * a v n v v n ",
"p p g 5 1 4 1 C | / / ! D D H H ~ ` ` ~ ^ ^ R R R ! ^ R / ../ / ' ;.>.>.&.' ^ ^ ^ ^ ^ ^ ' ,   X # o i t 9 k @.@.@.@.y e r r i t ",
"g w i 2 1 4 1 C / / / ! H D D H ` ` ` ` ^ R ^ R ^ R ! R / / ..~ X.>.;.>.+.' ^ ' ^ ^ ' ^ ' ,   X $ o t t 9 k @.@.@.@.y r r r t i ",
"w g i 2 1 1 1 C | / / ! A D D H ` ..~ ` R ^ E ^ R ^ ! ^ / / ] ` ' >.+.;.;.^ ' ^ W ' ^ ^ ' ,   X   o t t 8 k @.@.@.+.y e e r i p ",
"m w i 2 4 4 1 C | / / ! D H H H / ..~ / ^ R ^ ^ R Q ! ! ^ / ` ~ X.>.;.>.&./ / ^ / ^ ^ ^ ' , . X X + t 8 t k @.@.@.@.y e y e i p ",
"S D l 2.a.r.a.7.&.&.*.&.#.#.#.X.O.O.O.O.O.O.O.O.O.O.O.O.%.-.=.$.&.&.=.=.=.&.&.&.*.&.&.*.*.#.] ] ' Q W W R Q ;.;.=.&.$.$.$.&.L h ",
"F F z 0.h.d.h.w.=.-.<.=.&.%.%.$.O.o.O.+.O.O.O.O.O.O.+.O.$.-.=.-.-.=.=.$.=.=.=.-.-.=.-.-.-.=.%.;.;.X.W Q W ' &.&.&.&.>.<.-.<.I h ",
"z S z 3.f.d.f.w.&.-.-.&.#.&.%.%.O.O.O.O.O.O.O.O.O.O.O.+.$.=.=.=.&.=.=.=.=.-.$.=.$.&.=.&.&.&.&.&.%.X.W W W Q :.&.&.;.=.>.-.-.I S ",
"z c z 0.h.h.h.q.&.<.<.=.%.&.&.&.+.+.+.+.+.O.+.+.&.+.+.+.&.-.-.*.-.-.-.=.-.-.-.-.-.-.-.-.-.=.&.&.;.X.Q Q Q Q <.;.;.*.-.-.-.-.I S ",
"k k p =.q.q.q.$.Q ' / ^ F T U T R T U R L U U R T H U U T R I ! ! | ] X./ L R F I I F U L R U U U F c c c F / ../ ` | X.| X.A t ",
"i i t %.4.,.4.o.R R R F A D A A D m A A D A A A A A A A A A A A A / ^ ^ ^ l k k p k k l k k k k k k k k k A ! ! ^ ! E Q Q ~ k u ",
"t j t o.5.4.5.o.R W W R D D D D D D D D D A D A D D D D D D D D F / ~ / ^ A l x A x l A l x m l x k x x m D / ` ^ / / / ^ / m u ",
"j t 9 O.4.1.4.X.R R R R A D A D A A A A A A A A m A A m A A A m A ^ R ^ ! k k k k k k k k k k l k k k k k A R ! ! ! ^ Q E ^ k w ",
"k l l <.t.p.i.<.^ ' ] _ F F F H ! _ ^ ! ! / / _ ^ / / ! ! ! ^ ! ' ;.;.;.&.^ ! ! ^ ! ! ! ^ ! F F U T / ^ ^ / :.*.:.*.#.#.#.#.H d ",
"n n v q.z.z.z.w.%.&.&.#.I ! / / $.*.&.&.&.&.&.&.&.&.$.&.&.&.&.$.<.u.u.u.p.&.&.&.&.&.*.&.&.#.` ` ` #.<.<.:.2.s.i.s.u.<.=.=.-.E K ",
"n n v w.z.j.z.w.#.$.&.#.! ! I ~ $.$.$.$.#.&.#.&.#.&.#.$.&.#.&.#.=.p.w.y.w.&.&.$.%.&.&.#.&.#./ ` / #.*.*.&.1.u.u.a.p.=.&.&.=.} J ",
"n n v q.z.f.k.w.#.#.#.#.I _ ~ ~ $.&.$.$.$.$.$.$.&.%.$.$.&.$.$.$.:.p.y.y.5.&.&.&.&.&.&.#.&.] / / ^ #.<.*.&.<.i.i.i.p.-.-.-.=.} K ",
"v c z 0.z.d.d.0.#.*.&.#.I ! I ! $.$.&.&.&.&.&.$.$.&.$.$.&.&.$.$.>.y.0.y.q.o.#.#.#.$.&.&.&.#.#.] ` #.-.-.*.<.u.y.y.p.=.$.$.-.K J ",
"z l s 2.d.u.d.2.%.%.&./ S D D H $.-.=.=.-.=.-.=.-.=.=.-.*.-.=.=.<.0.0.q.0.Q } ~ } $.*.*.=.=.=.>.-.-.&.&.&.<.q.3.q.0.&.$.%.$.L z ",
"z z s ,.d.u.d.2.#.*.*. .D H D I =.-.$.-.$.=.$.=.*.=.=.$.=.$.=.=.<.q.q.0.0.} } } } $.&.-.&.=.&.&.*.&.=.=.&.<.0.q.q.0.&.$.$.&.L S ",
"s l z <.d.u.d.2.#.%.%.' D H S H =.=.=.-.=.=.=.=.=.=.=.=.$.=.=.=.,.0.q.q.0.} / } } $.=.=.&.=.=.=.=.-.&.=.&.=.q.0.0.3.=.%.$.$.P z ",
"z z z 3.d.a.d.2.%.%.&...H H H I =.=.=.$.=.=.=.$.=.$.=.=.-.=.=.=.2.0.0.q.0.E Q } } %.=.&.=.&.=.$.&.&.=.*.=.>.q.q.q.q.$.$.$.=.L z ",
"v b v w.h.d.z.w.*.-.<.$.} } ~ ..=.$.=.=.=.=.=.=.=.=.$.=.=.=.=.$.>.w.w.w.8.E E R R #.#.&.&.X.^ / ^ #.-.-.=.1.a.u.q.u.=.=.&.=.E P ",
"n b v y.z.f.z.w.&.-.-.$.} } } | =.=.=.=.=.$.=.=.-.$.=.=.=.=.=.=.>.0.0.w.3.R E R R O.&.&.&./ ^ / ^ #.<.<.&.1.u.u.u.u.,.+.=.&.E v ",
"b b b 0.z.k.z.w.-.-.-.$.} } } | =.=.$.=.=.-.=.=.=.=.=.=.=.=.=.&.-.w.0.y.3.E ! R R #.&.#.&.' / / Q #.<.-.=.1.u.u.u.u.=.&.&.=.E n ",
"b n n w.x.g.z.p.-.-.-.$.} | } ..=.=.=.=.=.$.=.=.$.-.=.=.=.$.=.=.>.w.0.w.3.! R R R #.&.O.%.X.Q ^ ^ #.<.-.*.<.u.u.u.u.=.&.=.>.E n ",
"g A p =.p.5.y.*.~ #.` ` / / ~ | =.=.=.=.=.=.&.=.=.=.=.=.=.>.=.=.=.,.>.<.>./ / / / &.>.>.>.&.&.=.&.&.=.=.>.1.u.u.u.u.] ` ` ` l p ",
"g g i $.5.4.5.&.! / ! ` ^ ` / ' &.=.=.&.=.=.=.=.=.=.=.=.=.&.>.&.;.>.>.>.&.` / / / ;.,.>.>.>.>.=.<.=.>.=.&.,.i.u.i.y.` ^ _ / h p "
};
