/* XPM */
static char *benin_teak_doors_african_teak_door_250x250_resized[] = {
/* columns rows colors chars-per-pixel */
"64 64 161 2 ",
"   c #5B2C0D",
".  c #5E310E",
"X  c #572A11",
"o  c #5B2D12",
"O  c #622B0E",
"+  c #743A0D",
"@  c #652D11",
"#  c #653111",
"$  c #6C3313",
"%  c #693814",
"&  c #743713",
"*  c #743B16",
"=  c #7C3C16",
"-  c #753C1B",
";  c #7C3E1A",
":  c #7D3D21",
">  c #7B4217",
",  c #74401E",
"<  c #7C411D",
"1  c #7E4321",
"2  c #823E16",
"3  c #833E1A",
"4  c #883F19",
"5  c #864217",
"6  c #8E4016",
"7  c #84431C",
"8  c #8B441D",
"9  c #874A1D",
"0  c #8D491D",
"q  c #92461D",
"w  c #99461F",
"e  c #944A1E",
"r  c #9A4B1E",
"t  c #96501E",
"y  c #9C511E",
"u  c #A04C1F",
"i  c #A3511E",
"p  c #A9541F",
"a  c #AF591E",
"s  c #B25F1C",
"d  c #844522",
"f  c #8B4621",
"g  c #864924",
"h  c #8D4A22",
"j  c #864A2A",
"k  c #8C4C29",
"l  c #924620",
"z  c #984722",
"x  c #944C22",
"c  c #9B4D22",
"v  c #944E2A",
"b  c #8F5125",
"n  c #8D522C",
"m  c #965124",
"M  c #9D5224",
"N  c #9F5823",
"B  c #95522A",
"V  c #9C552A",
"C  c #9E592C",
"Z  c #8F5330",
"A  c #935633",
"S  c #9C5630",
"D  c #965934",
"F  c #9D5A32",
"G  c #925B39",
"H  c #9A5D3C",
"J  c #A24E23",
"K  c #A35425",
"L  c #A95526",
"P  c #A45925",
"I  c #AC5B25",
"U  c #A45529",
"Y  c #AA562A",
"T  c #A45A2B",
"R  c #AB5C2A",
"E  c #B25E24",
"W  c #B25D2A",
"Q  c #BA5F29",
"!  c #A45730",
"~  c #A35C32",
"^  c #AC5E33",
"/  c #A65F39",
"(  c #9D613A",
")  c #AE6227",
"_  c #A6612B",
"`  c #AC632B",
"'  c #B56326",
"]  c #BB6526",
"[  c #BE6926",
"{  c #B4642B",
"}  c #BB652A",
"|  c #B5682D",
" . c #BD6A2B",
".. c #BF702D",
"X. c #A26537",
"o. c #AC6333",
"O. c #AA6836",
"+. c #A3643D",
"@. c #AC643D",
"#. c #AB693E",
"$. c #B46433",
"%. c #BA6532",
"&. c #B56B33",
"*. c #BB6C33",
"=. c #B4653A",
"-. c #B9653B",
";. c #B56B3B",
":. c #BB6C3A",
">. c #BD7134",
",. c #BE723B",
"<. c #C26626",
"1. c #C26A26",
"2. c #C96C26",
"3. c #C1662B",
"4. c #C36C2B",
"5. c #CA6E2B",
"6. c #CC7026",
"7. c #C5712D",
"8. c #CA722C",
"9. c #C7782F",
"0. c #CD792E",
"q. c #D0722C",
"w. c #D07B2E",
"e. c #C26E31",
"r. c #C16E38",
"t. c #C47232",
"y. c #CA7533",
"u. c #CB7933",
"i. c #C3753B",
"p. c #CA773A",
"a. c #C5793C",
"s. c #CB7A3A",
"d. c #D27C33",
"f. c #D07F38",
"g. c #A76A42",
"h. c #AD6D45",
"j. c #B26A42",
"k. c #BB6E41",
"l. c #B17047",
"z. c #BD7444",
"x. c #B6754B",
"c. c #BB764B",
"v. c #BB794E",
"b. c #B97C55",
"n. c #C27544",
"m. c #C47A45",
"M. c #CB7D43",
"N. c #C37B4A",
"B. c #CA7E4B",
"V. c #D17D45",
"C. c #C27D52",
"Z. c #CD803D",
"A. c #D58136",
"S. c #D5833A",
"D. c #CD8144",
"F. c #C7804D",
"G. c #CB814C",
"H. c #D28346",
"J. c #D3854B",
"K. c #CA8152",
"L. c #D18452",
/* pixels */
"$.U h ` ` ` | &.{ &.*.>.,.z.z.m.m.c.m.N.c.m.z.N.N.N.N.v.F.c.F.N.C.G.N.G.N.G.M.M.D.M.m.N.m.M.D.m.M.N.F.N.G.F.F.K.F.F.F.N.z.j.z.| ",
"%.z 2 _ ) ) ) ) ) ) { ` ` $.| o.&.&.&.&.&.*.:.*.&.>.:.>.;.>.*.>.,.:.:.&.&.:.>.&.;.>.>.>.,.,.z.,.,.,.,.>.,.,.,.,.m.m.B.G.,._ z.m.",
"%.x 7 _ | | | | | { &.| | &.*.>.>.a.a.M.M.a.a.9.a.9.a.a.Z.a.a.a.a.a.a.a.a.a.m.m.M.M.M.M.M.D.D.D.D.D.D.Z.Z.s.s.D.Z.M.D.H.a.` m.m.",
"$.x = N t N N y N N N N P P N T _ o.` ` ` _ ` _ ` _ ` ` ` ` ` _ ` &.&.| | &.&.&.:.>.>.>.>.:.&.&.>.&.&.&.&.&.| | | | | | ) _ ;.,.",
"W R e 6 x e x m m e r r t t t m t m m m m t 0 0 0 0 0 e b b m b h k 0 8 5 5 9 9 5 5 9 5 9 5 5 9 0 0 0 h x z x B V V v f m T *.*.",
"' ' E W W W  .[ | ) I -.;.;.#.z.z.c.z.z.c.z.z.z.z.c.c.z.;...u.s.s.3.' o.z.b.v.c.x.v.v.x.x.v.x.v.v.x.c.b.C.x.` { Z.M.i.*.a.m.e.<.",
"[  .E W E } } ] [ [ L W $.%.y.p.a.D.J.D.a.M.m.J.J.J.D.G.,.| y.s.u.[ ] Q -.M.M.M.V.s.V.J.J.M.G.G.D.D.V.V.n.M.*.] 9.a.*.*.p.r. .3.",
"4.4.} Q E 3.3.[ 4. .L R { s 2.<.9.Z.u...7.s.y.u.S.S.A.u.t.] u.s.M.t.] E s 3.5.6.2.5.q.d.7.y.9.y.[ [ 2.e.' u.[ &.s.y.Q e.y.e. .5.",
"4.4.} E Q }  .[ 4. .K W } ] 5.] 0.Z.A.7.y.a.t.8.H.S.f.s.t.] y.u.p.t. .W ' 7.5.8.5.5.2.6.7.s.Z.u.%.5.5.5.' i. .%.s.t.] 1.7.] ] 8.",
"4.4.} ' ] }  .[ e.3.K R } ' 5.] u.A.A.>.y.y.8.8.S.S.s.p.e.<.8.y.t.7.*.Y I 2.2.8.5.3.3.2.7.8.0.y. .5.q.5.W i. . .t.y.[ 2.8.] 4.y.",
" . .} } ' ] [  .e.3.K R } ] 5.] u.A.A.7.a.i.7.8.A.A.u.a.r.[ 8.2.2.4.e.L I 3.5.8.5.1.2.2.4.y.y.t.3.5.q.5.I *.&.} 4.7.] 8.8.4.8.7.",
" .*. .{ ] 3.]  .t.} J L 4.3.3.] 7.A.u...u.y.t.t.S.S.7.p.e.] 5.2.5.<.%.J I 3.5.q.4.5.5.4.2.y.9.y.3.y.q.7.| ,.R E 4.7.] w.0.2.7.8.",
"t.t. . . . . .] t.} r P t.4.5.] 7.d.d.7.t.i.4.8.S.S.0.p.i.] 5.5.2.<.3.K I 5.5.8.4.2.5.5.2.8.t.u.4.8.8.5.*.M.R } 1.7.1.0.0.7.7.6.",
"e.e. .]  .' ] ' e.%.y i e.3.3.} 0.d.u.4.t.t.>.8.A.A.y.M.r.} 5.8.2.<.*.r L ] <.8.<.5.5.5.4.8.[ a.4.8.6.8.r.B.$.E 7.7.[ 0.8.1.7.2.",
">...] ] ] s ] E *.%.c P 4.3.5.} 8.d.u...>.4.7.8.d.d.8.M.r.} 7.2.3.4.i.c J } 1.6.<.5.5.5.2.7.' y.3.q.6.5.t.L.{ ' 7.7.s 0.0.4.8.7.",
">...[ {  .] ] Q e.} c K  .<.e. .7.d.w.7.>.t.7.8.A.d.7.M.,.} 8.2.1.3.:.K J } <.8.[ 8.5.4.4.4.] 9.[ y.8.7.i.K.{ s 8.<.[ 0.8.1.2.7.",
">...[ ' } [ | ' *.%.w N ] ] e. .t.d.0.7.t.7.7.7.d.d.8.D.i.} 8.4.<.] :.L i } 4.8.} 8.2.4.3.[  .y.3.y.5.5.:.B.W E 2.[  .0.8.4.4.4.",
"&... .| { '  .' *.%.q y ' } 5.| 7.y.0.t.>.7.7.7.d.u.t.G.,.Q 5.5.3.] *.W i } 3.8.} 5.2.4.4.[ ] e.} y.8.3.i.G.$.E 7.4.] 8.8.2.4.e.",
"*.>.' [ [ '  .) &.-.e M ' Q 3.| 7.u.0. .t...4.7.d.u.t.G.z.' 5.8.4.3.,.{ I } <.7.] 5.8.4.*.] [ | W 4.8.5.i.C.R I 7.<.' E 4.6.[ 7.",
"| | ' '  .' | | %.&.6 K { }  .{ >.y.7. ...7.7.4.d.y.| K.:.W 3.4.3. .:.{ s 3.<.3.{ 5.5.5. .' } *.' 3.5.3.z.C.R W 7.1.' I [ 7.<.4.",
"| | | ] { { | >.&.o.6 M W W  .)  .*.3.e.t.t.t.7.0.8. .K.=.E } 3.3.%.:.{ I 2.4.[ ] 2.7.4.} { r.e.W 3.5.3.k.C.T R 3.4.3.] 2.} [ [ ",
"&.*.| ] ' { | &.&.R 7 M W I } R | } | *...t.7.[ 8.8. .C.o.E  .[  .%.r.{ a 4.4.4.} <.7. .} s [ | ' e.2.4.k.b.R I  .5.4.3.4. .[  .",
"| | { { { ' | ) &.T 2 M ' L ' R | { { | >.7.t. .8.7.{ N.o.E [ 4.] %.n.W I 2.4.[  .<.3. .| R }  .{ 5.3.3.k.j.! I *.[ 3.3.3.} } ' ",
"` | | ' { ' | ) O.V x K Q p R I |  .{ &...t.4. .8.*.{ C.=.I [ 4.} | :.^ I 7.7.] {  .[  .{ '  .| Q e.3.3.n.g.F L | 4.3.Q } Q } W ",
"` | | | { | | ` ` V c L Q K R I | | ) &.| t...4.7. .{ F.@.I [ 3.] } :.R R t.3. .{ } 3.| ' W  .| { 3.3.3.z.l.T i | 3.3.] ] } ' { ",
"&.` | &.| &.&.` o.M z M ] I R P ) ) ` | | ..|  .7.| { b.=.I [ 3.} *.k.R I 3.[ { ) } [ | R ) [ ] W Q Q } n.v.~ P | } ] 3.3.] } } ",
"O.o.;.&.&.| { ` O.m 2 e R ) ) I { ) R } | 7.| 4. .[ &.C.@.I [ } ' &.:.P I 7. .] { }  .{ {  . .| W ] ] 3.n.v.o.P | ' } } } } { } ",
"O.O.;.O.,.o.` ) T f $ f m N M M C N m T P P P ) P P V b.#.P [ ] { { o.K y R I M P P P T U P P N K I L Y k.c.~ y } {  .<.3.{ } ' ",
"O.o.O.&.` T _ P T n < d 7 7 9 7 7 7 9 g h h k b b 0 v ( X.m E Q R R O.T V c x h h x x v v v c v v x x z V j.^ e I L E } } Q ' ' ",
"_ _ _ P N N N N N T _ T T T ~ ` _ o.R o.R / U V C C ! ~ ~ K J J J U ^ ^ ^ =.^ ^ ^ ^ =.=.-.=.-.-.-.$.=.-.-.-.-.L J z J Y Y L L J ",
"V e 0 P T P P P T T N C o._ ~ o.o.` o.o.o.^ $.o.$.$.=.=.-.:.:.-.r.-.:.:.-.=.=.;.=.$.*.-.:.:.-.:.*.;.$.=.$.;.:.:.:.r.:.r.k.~ z c ",
"V 9 > t N m e t m x e e e e x e x c x r c c c c c c M M c M c c c c c c K K c K K c M K K K K K U L K L U L K U L Y Y R ^ m e J ",
"V g - N T T T o.T U U R T T T U U T T U U K M K J K U U K V U U U U U V U P M T U K T U L U L U T L T U U U R Y L L R W / B x M ",
"V d ; 9 7 7 9 7 f f g g d 9 0 h f f d f g f f 8 f f f 4 8 f f g f f f 8 0 h 0 h l f 8 f f h f x x h h x h f f f 9 d 0 8 k f x L ",
"P b , < * * * * %   . .   X X X o o o o o o o o X     X X   # @ # # @ @ O   O O @     @ @ @ @ @ @ @ @ @ # % $ $ - * ; 7 > 7 T ` ",
"P P N M N C C C B + > j k B n g g n B n n n n A A A A H k 2 J c M ! k : A S A Z B A A S D D H H G G D D Z G g 8 I K Y W I R T ` ",
"P N P K i P T R T e 2 M U Y c m m t _ T P M V V 8 x v c./ q K K J Y U f x Y K U L L U ^ L L L K ^ R ` P O.h.D l L i L W R T ` R ",
"P K T M P I P P T h 7 c K K 8 f m 0 M m M z h q 4 x h g.V w K Y J Y ! 3 8 K z V M c U Y w J c K r U R P o.j.v z R M U R ) I ` R ",
"L P P K I K M P K 8 3 v K c 9 7 5 0 N V L v x l l m x +.S z U Y J U U 3 8 K M K K c L Y J u w J r K R Y ^ @.B l Y J L o.R P P R ",
"M M N P K K K L V x 7 z c x f f 7 0 x M c x f l 8 x c X.v z U U U U V 4 l K J M z z L Y K r w J c Y R Y ~ @.B l Y r L { I P P R ",
"r m N K M r P i T f 8 z M x 0 8 0 e m c c 8 8 8 4 c m ~ v l Y J J K V f l J K c z z K R J J z J c Y R T ^ @.v l L c L R P K P R ",
"r y K P c w c M M e x x M x 0 9 0 m m x m h f 6 8 x x F x z U M z K J 8 l J Y K x z J Y J Y J z z J Y U U / v l K y L R K R ` R ",
"K K y K c c z K c e x x m x e 8 h e x e x x l 7 8 8 x S x l K K J J U f l K L V z c J I J L K c c c J L V / v q K r i I y P P R ",
"c r M M c V z c c x 8 x c x 8 7 x 9 8 0 8 l w 4 8 8 f ~ f q K K c J S 3 f M U L x z w L J L L M c c M K U S h f J r K K y P R ) ",
"M r P m z c w c x e 8 e z c 8 9 x 8 0 x x x x 4 8 h 8 V f l J M z J M f f J K K e e w K J J L r K U K M V S f 8 J r c L L P ) ) ",
"c w c w z c r c z x 8 0 c x h 8 f e 0 x x x l 7 9 x h v 3 f K U J J J f f U K L c x z J J J K c J K K L M V f 8 c r K P L K R R ",
"c c c c c J c x x 0 7 h c m h f h e 0 x c v x 9 0 h f v 3 l M J U U x & 3 Y J K c c e q J L J c c K U U m V f 8 r r K L P P o.R ",
"c r M w c M e r c 7 9 f z M 0 f h 0 0 z B v x 8 h x h f 3 q J K c J v 3 3 U K J x x e J c K J J c U L U c V 8 6 r c K i K P R R ",
"M c M w M r e c M 8 3 l v M 0 8 h 0 0 x B c x 8 x 8 0 8 3 l J J c J v f 8 K K c z c z Y c K L K M K L J e M 9 7 w c M P P P R ) ",
"K M M r c M w y c 7 d x M M 0 8 f h 0 m M v f 9 h 7 8 l 3 l K V M c z f f L K z e x z K c K L U c M K K x x 3 8 c w L L Y P T R ",
"M M M c M c r r r 7 3 h M M 0 9 0 f 0 m M v x 9 h h 8 h 3 4 M M K c x 3 8 K K w 0 z x U K K L L c M K c q e 3 8 c c L L U K P T ",
"c M M r M c c m x 8 3 h c c e 7 k f d x B x x 8 h x 8 h 2 8 M K c M l 3 8 L K e 8 e z L w c L U c c L c x x 2 8 c w L L Y P N I ",
"c K c r M c x c v 4 3 l v V l 3 7 7 7 x V m h 8 0 x 0 f f 7 M M K c x f 8 L K c 0 e x c f 4 z L c r K c z h 5 7 r r K L I T M P ",
"c c M c x z z x z 3 ; f c M z = 7 g 7 x N m h 9 9 h f f 7 4 c M V c z 4 8 K K z 0 e c M f 4 6 J r c K c x h = 6 w m U K L P P P ",
"c c M c M e e c x 3 = d e K x > 9 g 7 h x x h 9 9 f 8 8 3 4 e c M z x f 8 K K c x x U U f f z M r r M c f h ; 7 r c L L L K K P ",
"m M c x M x e c z d = 3 0 c x ; 9 h 7 0 b m f 0 9 g 8 f 7 4 z z M x z 3 8 M r x h m M V x x M c z c m x h x 7 8 e c L L K P N P ",
"c m x c m c z x x 8 5 7 x x x ; d g 7 x m B h f h f d g 7 4 v c x x l 3 8 c c x f h x z 0 x c c c z c x h h ; f c x K U K K c P ",
"c c c x M m e c h f = * < 7 ; & * * - 3 d 7 > < = = * 7 7 3 c z x z l 2 3 7 7 7 7 3 2 3 7 7 8 8 9 7 7 2 7 f 7 9 z c M L U M e r ",
"c e e c z x f l 9 ; - , - , - - - : 1 : 1 d 1 g g g 1 1 , 3 l v v v f g g g g g d g g d g g j j j 1 g j g h f 7 x z M K c c m y ",
"q 8 3 8 3 d d 9 d 7 d d f d d d d d 1 7 < 1 d 1 j j d 7 , ; ; 7 3 3 g j g g g g k k k g k k h g k k k n h m h v v x c f e e e e ",
"9 & - B V V U V V U N V V U V V V V x h v B B B C V S C T V ~ / ~ F ~ F ~ ~ C C C S F ~ F ~ T ~ T T F C ~ ~ ~ ~ / ^ ~ X.B h h e ",
"g & * b B x x x x 0 h h 0 h 7 7 3 ; ; * ; 3 7 h 0 h v x x x x x m x N m z x x x m m x m x m m x x x x x h x x x e x z B k 8 x 8 ",
"d - $ g h h f 8 9 f f f 8 d 9 3 3 ; , 1 ; 3 3 9 h h h h h m m x m m V m m M m h e m x x m m x M B v x v B v x z x c c m d 7 0 x ",
"9 < # * & - - - - - - - - - - - , ; ; 1 ; - - - ; 1 < , - < < < d 1 1 d d < < , , 1 < - ; , : ; 1 d 1 1 1 1 1 1 1 1 < < ; f 0 x "
};
