/* XPM */
static char *IMG_2731_resized[] = {
/* columns rows colors chars-per-pixel */
"64 64 256 2 ",
"   c #020101",
".  c #0A0808",
"X  c #150B0A",
"o  c #16120B",
"O  c #170A14",
"+  c #181516",
"@  c #0D0E12",
"#  c #271A0C",
"$  c #271B16",
"%  c #32120E",
"&  c #2A2618",
"*  c #362819",
"=  c #2E2E0F",
"-  c #2D162C",
";  c #372A24",
":  c #3A3426",
">  c #393536",
",  c #2C2931",
"<  c #182022",
"1  c #47110F",
"2  c #740A0B",
"3  c #513015",
"4  c #683A16",
"5  c #6C3516",
"6  c #473929",
"7  c #473B36",
"8  c #563938",
"9  c #4E2F29",
"0  c #723B2A",
"q  c #431923",
"w  c #6B461A",
"e  c #764A1A",
"r  c #79531E",
"t  c #655814",
"y  c #6D6A0B",
"u  c #56432B",
"i  c #4C4237",
"p  c #594633",
"a  c #5D4B35",
"s  c #5E4B3C",
"d  c #564538",
"f  c #4C452E",
"g  c #6B4824",
"h  c #724C23",
"j  c #774927",
"k  c #7B5324",
"l  c #7B5429",
"z  c #7A5526",
"x  c #614C36",
"c  c #614E3B",
"v  c #69433C",
"b  c #65513C",
"n  c #755137",
"m  c #525014",
"M  c #142F51",
"N  c #293649",
"B  c #1A3964",
"V  c #4D3549",
"C  c #6A3255",
"Z  c #344350",
"A  c #174979",
"S  c #2F4C71",
"D  c #4C4848",
"F  c #5B4C43",
"G  c #584B46",
"H  c #5D534B",
"J  c #5E5245",
"K  c #5A5557",
"L  c #4C4857",
"P  c #614E42",
"I  c #67424A",
"U  c #635244",
"Y  c #67584A",
"T  c #735A48",
"R  c #665C55",
"E  c #764E50",
"W  c #6A6259",
"Q  c #77685B",
"!  c #77674F",
"~  c #5B5A64",
"^  c #47526A",
"/  c #786C64",
"(  c #7C7168",
")  c #6E6A6D",
"_  c #675A74",
"`  c #920C01",
"'  c #A70A00",
"]  c #A71501",
"[  c #BA1A01",
"{  c #8E330C",
"}  c #AA2C0D",
"|  c #B03834",
" . c #853834",
".. c #C42617",
"X. c #86481C",
"o. c #864B26",
"O. c #845B2A",
"+. c #865927",
"@. c #925A29",
"#. c #995B35",
"$. c #885137",
"%. c #AB5634",
"&. c #8B632B",
"*. c #9B652C",
"=. c #96622A",
"-. c #9B6736",
";. c #8D6834",
":. c #A36A37",
">. c #AC7334",
",. c #AA743B",
"<. c #AE783C",
"1. c #A57239",
"2. c #B37C3C",
"3. c #B77A37",
"4. c #AD6D30",
"5. c #9F6C12",
"6. c #D37535",
"7. c #E77B34",
"8. c #8E5A47",
"9. c #8F6D50",
"0. c #A76844",
"q. c #AB7845",
"w. c #B37C42",
"e. c #B57949",
"r. c #B57757",
"t. c #AD6D51",
"y. c #877769",
"u. c #957A67",
"i. c #897D74",
"p. c #8A6E69",
"a. c #AE7777",
"s. c #9B515C",
"d. c #C97A51",
"f. c #CF7368",
"g. c #8A314F",
"h. c #7D8209",
"j. c #908B08",
"k. c #B5A806",
"l. c #BC833C",
"z. c #BB843B",
"x. c #AE9F09",
"c. c #C2853D",
"v. c #C5893E",
"b. c #EA843A",
"n. c #C4A306",
"m. c #B68143",
"M. c #BB8442",
"N. c #BB8649",
"B. c #B88752",
"V. c #99866D",
"C. c #8B8378",
"Z. c #968779",
"A. c #978C78",
"S. c #A6957C",
"D. c #AF886D",
"F. c #9A9047",
"G. c #C28643",
"H. c #C48B44",
"J. c #C38D4B",
"K. c #CA8D46",
"L. c #CB9245",
"P. c #C5914B",
"I. c #CD944A",
"U. c #C89348",
"Y. c #D29A4C",
"T. c #D29749",
"R. c #CA9551",
"E. c #D69B52",
"W. c #D3864F",
"Q. c #E98945",
"!. c #E7934C",
"~. c #F7964B",
"^. c #FA9B53",
"/. c #ED914D",
"(. c #D9A154",
"). c #FBA559",
"_. c #FFAA4F",
"`. c #C98767",
"'. c #D58A66",
"]. c #D89A75",
"[. c #CE8F71",
"{. c #E69B75",
"}. c #ED986C",
"|. c #E6A37A",
" X c #F8A879",
".X c #F8AA71",
"XX c #D3A178",
"oX c #305A8D",
"OX c #316795",
"+X c #196BB1",
"@X c #2F6EAB",
"#X c #1E5788",
"$X c #655786",
"%X c #506C8F",
"&X c #69728D",
"*X c #4B78AF",
"=X c #297ACB",
"-X c #177BC7",
";X c #8D5292",
":X c #965A96",
">X c #8D538B",
",X c #976C91",
"<X c #AB718C",
"1X c #9D63A0",
"2X c #C67F81",
"3X c #6A89AC",
"4X c #5D81A8",
"5X c #1489D4",
"6X c #2F8AD0",
"7X c #099CEA",
"8X c #1195E8",
"9X c #3194E6",
"0X c #05A9F3",
"qX c #06B5FA",
"wX c #10A6EF",
"eX c #2CA7F1",
"rX c #3BAAD9",
"tX c #4F8CCB",
"yX c #6899CC",
"uX c #5CAEE4",
"iX c #1EA2DF",
"pX c #998B84",
"aX c #98928B",
"sX c #A89787",
"dX c #A99D93",
"fX c #B39F93",
"gX c #B18F86",
"hX c #B5A48B",
"jX c #B8A798",
"kX c #B1A997",
"lX c #BCB4A8",
"zX c #B4ACAB",
"xX c #929DB7",
"cX c #CA9592",
"vX c #C4A899",
"bX c #CEAF93",
"nX c #EAAA84",
"mX c #F8AD83",
"MX c #FAB488",
"NX c #EEB68F",
"BX c #C7B7A7",
"VX c #C7BDB4",
"CX c #CEB4A7",
"ZX c #D49DA0",
"AX c #FDC796",
"SX c #F8C390",
"DX c #D6C6B8",
"FX c #D1C6B3",
"GX c #E7D1B7",
"HX c #87A6CB",
"JX c #AAABC3",
"KX c #D7D0C9",
"LX c #E7DCC6",
"PX c #EDE3D1",
"IX c #FFFDE9",
"UX c #B2C6C1",
/* pixels */
"/ y.y.( Q y.y.i.C.C.Z.Z.A.A.sXzXzXzXUXxXaXkXkXkXzXaXaXaXQ Y ( y.y.C.y.W U Y u 6 6 6 8 Y Q R d 6 6 6 7 9 6 7 9 U / W / Q / / / Q ",
"Z.sXsXsXsXgXsXhXhXhXhXBXBXbXFXKXPXKXKXVXBXlXjXdXaXA.kXkXjXS.S.V.! ! n x x x x x x x x x y.Z.i.Q Y c c d p s s sXsXpXpXi.Z.i.pXi.",
"Z.pXsXsXsXsXsXsXhXsXjXvXbXBXjXhXhXhXhXS.V.y.y.V.u.S.lXKXlXb a u p p x x x a x x x x c d u p.sXpXy.p./ p./ Y Y sXaXZ.( / ( i.i.i.",
"S.sXfXfXsXfXjXhXhXvXjXBXBXjXbXFXFXhXV.V.Q T ! ! b x x b x a x b x x x x a a a a a a p p d d Z.sXZ.i.y.i.p.y.Z.gXaXZ.i.i.i.i.p.p.",
"gXjXfXfXjXfXjXlXjXBXhXBXhXS.A.V.y.b b a x x a a c b b b x x b x b x x c x x a x x s s a x p Y sXdXaXpXp.Q i.fXpXW Y Y p.i.i.( p.",
"sXjXfXfXjXjXvXvXjXsXC.Q b b u f 8 p a a a x x x x x c x x c x c x a c a a s x a p s s c c c p y.lXdXsXZ.pXsX/ P p s d d P Y Y / ",
"fXfXjXjXjXBXsXQ T x u p a a a a f d a a a a a a a a u p b x c c x a c c x c x a c s x s c s a P gXfXsXfXp.F d s v F P c F F U H ",
"jXBXfXsXp.Y s d s s J s c c a a p a a a a a a c a p i c b x c x a b a c c s s c s c s c s s s p A.lXi.Q d s P c s d p d P U U I ",
"y.p.T s p d d K K K K K K K G V s U c c c c c c P s s c c s c c c c c s d a c s c s c s c s d 6 fXlXR d J c c c s s F F I P P P ",
"u d d s c c s G ~ ~ R ~ K K H s d U b U Y U U Y U c P c c c J c b c s a d s s c a s s s 7 d i p.BXdXs G s c W Y d s P F s P F Y ",
"p s c c s s v P K ~ ~ ~ ~ ~ K G D d p f p d d d p c U c p p u p u a s s c s c c s s c G d J s sXBX/ s F J Y Y R Y Y P U H R ~ $X",
"d s F c c P P P P Y P P U U U U G dXKXKXFXlXlXlXaXH c W V.S.kXsXS.C.H d s s c U U Y H J U J s C.Z.F J H J J G G P d Y ) %X%X&X%X",
"J G L H U U H F H R Y U U U U U P ( zXzXlXVXVXKXdXG y.CXLXLXNXGXPXPXlXK 7 ~ %X~ K H J J H U Y J G G G G J W C.zXFXzXUXzXxX&X&X_ ",
"R K N > N , > > > > 7 7 i i d d G i 7 6 f 7 f 7 D U hXGXhXu.r.r.u.bXGXR > ~ ~ K J J H R K R K H R R W W C.lXPXPXKXKXFXzXC.) ~ W ",
"Q ) ^ S B <   X @ @ o o X @ @ o + , N , N N N > > N sXi   @ p T     Q ( , > > 7 > i D 7 D V D D D L D D i aXLXLXKXFXaXL L ^ ^ D ",
"@ ) %XOX%XN . oX%XOXoXoXoXS S , $ S %X3X3X*X*X%XS %XW % % 9 r.t.8 9 9 y.: Z S S S #XS B S N @ @ + + @ > ) lXIXIXi / lXM N N M B ",
"> R ^ tXtX^   %XyX*X*X*XtX*XtXS * %X3XHXHXHXHX*X*X&X9 $.d.'.$.o.!.E.n V.fX%XtX*XtXyXHXHX*XoX+ S #X#XA ^ i.FXIX/   i JX+X+XoX=X=X",
"R Q L @X@XS . %X9X9X9XtX9X@XoXS ; ^ *XuXyXyXtX*X@XaXT n r.0.-.*.n.3.8.GXW %XtXtXtXtXtXyXtXoX& @X6X@X@X%XC.LXzX. @ < 3X6X=X@X9XtX",
"  X N @XM M X OXeXeXwXwXeX=XoXS > oX=XuXuXuX9X+XS UXFX3 3 #.r.-.0 3 u.sX$ yXuXrX8X7XwX7XeX+X, 5X0X7X7X*Xi.DXi - N V tXwX=X6X8X8X",
"o 9 n O X + o S =X#X#X#X@X9X9X@X; %X@XyXuX9X6X6X6X6X3XT % % % % 1 3 HXS o 5X8X5X8XwX0XqXqX+X> wXqX0XqX4XZ.zX7 g.g.; rXqX6XwXqXwX",
"0  . .3 5 E Y _ =XB B M oX9XtX@X> ^ S tXuXJXVXFXBX,XaXgXj 3 9 8.8.#.i.&XV ^ ^ oX6XwXwXqXqXOXN qX0X0XqX&XA.C.g.8 f z iXqX6XiX0X0X",
"9.p % 3 0 v i W tXA B M OXeXeX=X: ^ oXtXZX XSXSXSX|.;X:Xa.r.t.nXnXbX{.a.1XnXAXNXbX3X8X7XwX#XZ 0X0X0XwX&XpXH s.V 8 H iX0X5X0X0X0X",
"CXCXfXI X K + M eXA M M OXeXeX6X: S A ,X XnXMXMXSXnX>X;X>X<XnXbXNXbX<X>X>X>XNXMXMX XhX@X6XB Z 5X5X+X=X( C.8 C q ; L qX7X5X0X0X0X",
"..| f.p.  $ d   =X+XA #X+X7XqX6X: S S [.{. XmXMX XMXcX;X:X;X:X:X1X<X:X>X>X>XcXMXMXnX XcX@XM S -X+X+X@Xi.C.6 1 * 0 S qX5X-X7X7XwX",
"ZXZXCXp.0 | | 1 < tX9X9X6X5X6X@X: OX3X'.'.}. X X X XXX>X:X:X:X:X1X:X:X:X1X;X<XMXMXmXnX.XgX, oX5X+X+X@XC.i.$ $ Z V %X8X-X-X7X8X8X",
"VXLXDXt.8.D.<XV   N Z L Z Z Z Z ; L Y t.r.'.}. XMX.X|.[.cX<X<X:X:X;X;X;X;X;X<XMXnXmX X}.}.8.B OXOX#X%XZ.C.+ + & q *X9X#XB OX8X8X",
"DXKXCXf.v 8 5 v J H C.y.V.V.A.A.aXhXpXn 0.f.}.mXMXMX X X.X X.X|.].].[.f.a.,Xs.`..X.X}..X}.f.R H D > K C.A.o     > &X^ K W &X*X*X",
"DXDXLXZX0.gXa.fXBXsXhXjXBXlXlXlXBXvXFXsXn d.}.mX.X}.}. X X XmX XMX XmX X X|.f.[. X X X X}.}.hXdXC.~ ( C.sX>     ) U H K ) aXkXBX",
"CXDXVXVXs.a.lXVXjXV.S.S.! Y / Y Y ! ! ( u 4 $.%.%.0.f.'.}.{.'.f.r.d.'.'.}.}.mXmXmX X X X X}.B.3X( R ) C.hXV.  > dXO < , N &XaXW ",
"CXDXVXVXS.`.zXFXZXD.jX! & = i f = : : : : $ % 3 5 5  .$.$.$. .8.f. XmXmX X X{.{.}.}.f.d.d.t.9 pXW i & b hXS.! V.Z.. . . O + + < ",
"ZXVXKXVX8.0 dXgX| vXF.b * * 6 Y H Y b W W ; . O % 1 % % 3 5  .f.[.'.'.'.'.'.f.d.e.0.#.@.5.5.j.F.s & + ! hXhXA.S.y.  . .       . ",
"p.fXKXDXs.8.pXcX| gXm # ; : : s U U b J Y : O O O O O . % - V V 8 9 q q q % 9 9 9 +.x.k.x.k.k.k.k.t 7 ! 9.y.u.V.H   . . .       ",
"G gXBXKXvX;.sXCXFXFXR f : * * = * 3 * * * * O O O - - V $X;X:X:X;X;X;X;XC V - - a j.y j.k.j.y h.k.k.y = # o * u.6   . .         ",
"; BXlXKXhXp.vXlXpXC.c ! y.u # # & # * # 8 E 9 ; V E a.<X<XcXcXZXZXZXZXZXcX<X:XC Y &.y j.j.j.h.h.y j.x.y o & ; x 6 3 *           ",
"o Y R H i.KXy.&     * k w e e e w e e e @.r.t.r.`.{.nXmXMXMXAXAXAXAXAXAXMXNXnX[.u.;.y y y y y m = m = # o < & & : 6 .   o = & o ",
"y.p.f 7 & - 3 #     * k k ;.+.+.*.*.=.*.$.r.XX].].].{.{.nXNXNXNXNXAXNXNXNXnXXX[.D.m o = = = = = = = o o @ o & : * u T V.S.V.V.V.",
"T Q d 7 .   6 * .   $ l h =.@.*.*.*.:.:.;.n `.nX|.|.{.|.|.nXNXnXnX[.`.nXnXnXXX[.B.6 & * : : = = = = = = * & * = = u ;.m.R.nXSXSX",
"6 8 7 G + . 9 3 * o O 6 g =.:.1.*.<.,.1.q.8 7 0.].{.|.{.].|.|.nX].[.].nX{.].].D.V.f f f : f 6 : : f : : : = * = = o & w z &.q.F.",
"F Q Q s ; $ g w w 3 * # j 1.<.w.1.e.<.w.q._ &XL v 0.`.`.].].].].nXnX{.].'.r.0.V.DXY f f f : 6 m m 6 6 m u u 6 = * = o # = 4 h +.",
"8 Y 6 @ < 4 j e +.=.=.4.>.<.w.B.w.N.N.B.r.}.mXnXu.V x $.8.0.0.0.0.8.8.;.8.8.u.DXPXXXr k +.y r r t w e r r k r r w 4 3 3 # # % 1 ",
"; + . . # k =.+.*.+.@.2.3.2.G.J.J.J.B.B.:.%.b.b._.E./ ^ L I T T T T 9.9.i.vXLXPXSX_.=.X.+.+.r +.r X.r t r r r e e e w w 3 3 1 % ",
"R s w +.*.*.5.>.*.@.3.l.M.G.I.P.J.R.e.J.e.6.Q._.^._.).t.,XBXCXCXCXCXFXVXVXzXBX|.b.4.+.r r +.&.r r +.&.O.O.r w w r e k r r w 1 % ",
"XX! @.>.4.4.c.3.*.2.N.l.G.I.I.Y.Y.I.w.R.r.!._.~.).).)._.bXVXzXzXVXJXzXxXxXs.Q.~.^.:.e r r +.&.r &.&.&.&.&.&.O.+.r e r z k X.` 1 ",
"hXu.5.4.*.3.c.3.z.H.H.G.H.Y.Y.E.E.Y.J.R.B.!.^._.).).)..X!.I $X$X$X$X$X$Xt.^.).^.^.w.r &.k +.+.k &.&.&.&.&.O.&.O.r k r z z { ` 1 ",
"1.z.>.4.3.v.v.L.W.L.T.K.K.I.H.I.E.E.R.R.q.6.!.).)..X).).).T.o.I C I n %.~.^.^.~./.*.k z &.k k &.r k O.O.O.k k k O.l &.l z } ` 2 ",
"z.c.z.3.v.c.v.v.G.I.I.c.Y.L.v.L.E.I.G.N.m.d.T.^.).).).!.!.).b.%.{ } 7.~.~.~././.Q.+.e O.+.&.&.k k k O.O.z l l k z z z l z } ' 2 ",
"z.v.v.K.v.v.T.v.c.K.K.H.E.Y.K.T.E.T.K.G.d.4.W.Q.~.^.~.~.).~.).!.{ Q.b.b.~.Q.~.Q.6.q.j h z z z z l O.O.l l z w g z h h h X.[ ' ` ",
"3.z.3.6.v.T.T.L.c.c.K.I.Y.I.L.Y.Y.T.R.R.J.4.v.Q.Q./.^.).^.Q.).!.%._.~.7./.b.6.7.e.,.2.k h z h l O.l O.O.l O.l z z z z g { [ ` ` ",
"5.4.>.3.T.T.v.c.3.H.T.T.T.L.L.(.E.T.E.R.B.>.6.Q.Q././.^.b.~.^.!.W.^.^.7.6.Q.7.%.G.J.H.G.e g z l +.l k h z l z z z l h h { [ [ ` ",
"3.4.>.T.(.v.6.3.3.G.T.(.Y.T.L.T.(.E.R.I.J.0.6.d.6.Q.^.Q.Q.^.^./.Q.).).^.7.b.~.D.R.J.M.G.N.+.h l z h h h l z h h j l k g } [ ' ` ",
"3.3.v.Y.T.c.l.6.6.l.T.(.T.T.v.Y.E.R.R.R.R.d.Q.7.Q.^.~.b.^./.~.!.t.E.6.#.%.4.%.e.e.c.l.M.M.2.o.n n l j g h j h j g l n 0 [ [ [ ` ",
"H.K.T.Y.H.3.2.3.l.l.Y.Y.(.Y.L.Y.E.R.E.J.J.o.@.d.Q.6.d.G.q.q.e.q.m.0.5 5 5 0 X.0 w.l.G.G.w.G.2.+.g g j j n z l l O.O.z X.[ [ ' ' ",
"K.c.v.z.c.v.c.L.T.T.T.(.Y.(.v.(.Y.I.R.J.,.j 5 5 5 3 5 :.w.w.B.M.m.m.e o.@.X. .o.<.G.K.K.W.H.M.w.<.w.w.w.M.w.<.>.,.,.F.} [ [ [ ] ",
"c.3.3.3.L.L.U.I.T.v.v.v.Y.Y.T.(.E.R.J.J.-.#.o.0 5 5 o.q.>.:.w.J.m.m.o.@.e.:.%.e.:.G.d.G.J.J.G.<.2.N.G.w.2.2.<.1.-.-.;.} [ [ ' { ",
"3.>.z.c.v.v.c.c.v.v.Y.T.Y.Y.Y.(.R.P.J.J.$.:.e.0.%.0 #.<.1.1.q.w.N.2.*.{ #.t.q.%.#.N.z.M.G.H.J.2.>.w.M.M.w.2.:.:.-.@.o.] [ ] Z.9.",
">.>.c.c.v.c.3.3.z.v.L.T.Y.T.v.Y.P.R.J.B.@.0.0.0.#.o.:.:.:.:.1.w.N.<.q.O.$.-.%.#.*.m.z.J.H.G.G.G.>.,.,.2.w.2.>.*.-.O.X.' $.s.UXZX",
"4.4.z.v.z.z.>.4.c.v.v.T.Y.v.T.Y.K.J.J.N.#.-.0.#.k -.q.-.;.1.1.m.N.w.1.1.o.#.0.%.:.N.z.m.M.H.G.M.z.:.1.:.1.>.1.*.@.O.{ ] UX<XlX .",
"4.>.z.v.3.z.3.2.v.v.T.U.v.v.v.Y.U.M.N.m.#.:.#.@.@.B.1.1.1.,.1.1.q.1.-.q.@.@.0.#.-.N.m.3.2.M.M.2.<.3.:.:.*.1.:.*.@.l ] ' | [.s.3 ",
">.z.z.z.z.3.3.l.v.Y.v.U.U.z.U.(.M.2.<.,.#.0.-.@.0.,.1.1.q.z.z.1.-.:.1.-.=.@.0.%.z.U.P.M.2.2.2.M.2.2.>.*.*.*.:.-.-.e %.cXf.%.V.i.",
"4.c.v.z.z.3.z.z.T.v.v.Y.U.v.v.Y.N.z.z.1.#.0.#.#.B.m.-.<.m.m.N.z.<.2.<.1.-.! r.D.D.9.m.M.M.w.>.M.l.>.<.:.*.*.@.=.&.{ } %.r.%.;./ ",
"3.z.z.z.z.<.z.H.U.U.U.U.v.U.Y.Y.z.m.B.m.q.e.-.9.B.U.z.m.N.U.U.N.N.z.M.N.q.S.hXd : ~ 9.v.m.m.3.2.m.z.2.1.1.:.&.hX9.r.| %.| 8.8.n ",
"3.z.v.N.z.<.m.N.U.U.U.U.z.Y.U.Y.m.<.u y.y.u D.R.R.R.N.B.N.Y.U.U.U.N.z.N.B.b V.U & W V.z.N.l.1.1.1.:.:.1.-.*.-.q.&.} } } } o.g z ",
"z.z.z.z.F.1.z.z.U.z.z.N.N.U.U.U.m.q.& K K o J 9.(.(.R.N.U.B.U.U.U.U.z.z.H.w * U C.hXA.D.M.M.<.,.1.=.+.*.*.@.*.&.X.] ] ` ] w 4 4 ",
"<.N.<.m.z.z.z.U.U.z.z.z.B.U.U.B.z.z.u.Q / ( f ! (.R.R.R.R.U.N.U.N.M.N.z.z.>.4 8 a V.kXS.8.m.m.2.1.1.@.@.1.-.=.;.{ ` ] ] { m w 4 "
};
