/* XPM */
static char *karl_resized[] = {
/* columns rows colors chars-per-pixel */
"64 64 251 2 ",
"   c #040302",
".  c #0B0806",
"X  c #130D0A",
"o  c #150A07",
"O  c #14110D",
"+  c #19130F",
"@  c #151411",
"#  c #1B1512",
"$  c #1C1915",
"%  c #1D1C19",
"&  c #0F100D",
"*  c #221D1A",
"=  c #221B16",
"-  c #34180D",
";  c #26221E",
":  c #3A2218",
">  c #2C2E2D",
",  c #282824",
"<  c #342D26",
"1  c #2E302F",
"2  c #39322B",
"3  c #2E3130",
"4  c #323433",
"5  c #383A38",
"6  c #2E2F30",
"7  c #1F201A",
"8  c #451B0D",
"9  c #6E1A05",
"0  c #48281A",
"q  c #542B19",
"w  c #70280E",
"e  c #483728",
"r  c #593525",
"t  c #453D35",
"y  c #4F3026",
"u  c #773C25",
"i  c #653B2D",
"p  c #45433B",
"a  c #564738",
"s  c #5D4B36",
"d  c #73422C",
"f  c #684838",
"g  c #774A37",
"h  c #66543E",
"j  c #724B32",
"k  c #3D4140",
"l  c #484A48",
"z  c #544C45",
"x  c #595448",
"c  c #565956",
"v  c #4B5052",
"b  c #6C5B45",
"n  c #6E5D4A",
"m  c #655645",
"M  c #715F4A",
"N  c #735A45",
"B  c #645C56",
"V  c #784D42",
"C  c #74624B",
"Z  c #78674D",
"A  c #6A6458",
"S  c #786A55",
"D  c #777159",
"F  c #6B634A",
"G  c #5C6466",
"H  c #646464",
"J  c #686A6A",
"K  c #787468",
"L  c #696D72",
"P  c #6D7276",
"I  c #737573",
"U  c #7C7C7B",
"Y  c #797977",
"T  c #756D67",
"R  c #3C3E40",
"E  c #932C05",
"W  c #8F310E",
"Q  c #B73A08",
"!  c #AD370E",
"~  c #A62610",
"^  c #C53703",
"/  c #D83905",
"(  c #CC2F09",
")  c #E53B02",
"_  c #C51F03",
"`  c #AE4615",
"'  c #854838",
"]  c #875539",
"[  c #954F2F",
"{  c #AD552D",
"}  c #B96636",
"|  c #AE663C",
" . c #C94706",
".. c #D94905",
"X. c #D95616",
"o. c #D34D14",
"O. c #E84805",
"+. c #F74B03",
"@. c #EA5507",
"#. c #FC5304",
"$. c #FC5B0B",
"%. c #F85708",
"&. c #E85919",
"*. c #FC5D14",
"=. c #F65B14",
"-. c #E34A1E",
";. c #FD620D",
":. c #F96109",
">. c #ED6518",
",. c #FD6213",
"<. c #FB641C",
"1. c #FD6A1B",
"2. c #F76816",
"3. c #FB7517",
"4. c #EB620C",
"5. c #D95C27",
"6. c #D26A31",
"7. c #EA6827",
"8. c #FC6B24",
"9. c #F96926",
"0. c #FB7629",
"q. c #F87835",
"w. c #E97433",
"e. c #EC5C2A",
"r. c #875744",
"t. c #925947",
"y. c #96644B",
"u. c #9A6854",
"i. c #88745D",
"p. c #8F7157",
"a. c #A7674B",
"s. c #A76C55",
"d. c #A97459",
"f. c #B6765A",
"g. c #B66F4C",
"h. c #867B6A",
"j. c #937E64",
"k. c #857D71",
"l. c #897873",
"z. c #B87C64",
"x. c #A37860",
"c. c #A35D40",
"v. c #CF764C",
"b. c #C37D65",
"n. c #EC7B46",
"m. c #7E807E",
"M. c #FA8638",
"N. c #FD8A32",
"B. c #99856A",
"V. c #8C857A",
"C. c #8A8478",
"Z. c #968A78",
"A. c #958B71",
"S. c #BC8367",
"D. c #A79478",
"F. c #AD9473",
"G. c #B9A17D",
"H. c #B9855E",
"J. c #D78557",
"K. c #C78559",
"L. c #F98B43",
"P. c #FD9A4C",
"I. c #FB9448",
"U. c #FA9B54",
"Y. c #E98A4E",
"T. c #FCA559",
"R. c #C78569",
"E. c #CD8A72",
"W. c #D38E74",
"Q. c #D69379",
"!. c #D28B69",
"~. c #E79968",
"^. c #F8AA66",
"/. c #F7B472",
"(. c #DEA67B",
"). c #FEC07B",
"_. c #7D7F81",
"`. c #7D8283",
"'. c #838584",
"]. c #898A89",
"[. c #9B9488",
"{. c #9B9B96",
"}. c #908F8A",
"|. c #A49988",
" X c #A69E94",
".X c #AC898D",
"XX c #9EA09E",
"oX c #AAA499",
"OX c #B5AA9A",
"+X c #B5A488",
"@X c #9EA3A5",
"#X c #9FA4A8",
"$X c #A3A6A5",
"%X c #A2A6AA",
"&X c #A5ABAC",
"*X c #A9AEAE",
"=X c #ADACA5",
"-X c #B3ACA5",
";X c #BDB6AC",
":X c #BEB9AD",
">X c #B7B1A6",
",X c #A9AEB1",
"<X c #A7ADB0",
"1X c #ACB2B5",
"2X c #AFB4B8",
"3X c #B1B6BA",
"4X c #B4B9BD",
"5X c #BEBBB2",
"6X c #A8B0AF",
"7X c #D39D8D",
"8X c #C7AC88",
"9X c #D3B48D",
"0X c #D5B992",
"qX c #D9B996",
"wX c #D2B18E",
"eX c #E8B388",
"rX c #C2BAAE",
"tX c #CCBCA7",
"yX c #C3BDB3",
"uX c #C5BEB8",
"iX c #D4B9A3",
"pX c #E6BBB8",
"aX c #D7C2AD",
"sX c #C6C1B6",
"dX c #C9C2B6",
"fX c #CCC5BA",
"gX c #CEC9BD",
"hX c #C6C2BC",
"jX c #D2CABD",
"kX c #D6C9B8",
"lX c #D0C3B0",
"zX c #E4CBB4",
"xX c #E4C099",
"cX c #B9BEC3",
"vX c #B6BBC0",
"bX c #BCC1C5",
"nX c #C6C7C7",
"mX c #D4CDC2",
"MX c #D9CFC1",
"NX c #D7D1C5",
"BX c #DBD3C6",
"VX c #DDD5C9",
"CX c #DDD7CB",
"ZX c #DED9D0",
"AX c #E0D7C9",
"SX c #E3DACD",
"DX c #E2D6C6",
"FX c #E5DDD1",
"GX c #E9D8D9",
"HX c #EDD2D7",
"JX c #FAECF0",
/* pixels */
"Z p.Z Z Z Z p.Z Z Z Z Z C C C b b b n -XuXuXrX;X;X;X;X;X;X;X;X;X>X;X;X;X;X;X:X5X:X:X:X5XrX5X5XsXyX5XsX5XsXsXsXsXsXsXsXfXfXfXdXfX",
"Z Z Z Z Z Z C b h C b b b b b h b m m -X4XuXrXrXrX;X;XrXrX;X;X;X;X;X;X;X;X:X:X5X5X5X5X:X5XsXyXyXsXsXsXsXsXsXsXsXsXfXfXsXfXfXdXgX",
"C C C C C M F b h h s h h h b m m b n >XnXuXuXrX;X5XrX:X;X;X;X;X;X;X;X;X:X:X5X5X5XrX5XrX5XyXsXsXsXsXsXsXsXfXsXdXfXsXfXsXfXgXgXgX",
"N M n n M M M C C C C S n F b b m m m >XhXuXuXrXrXrXrXrXrX;XyX;X;X;X;X:X:X:X5X5X5X5XsXsX5XsXsXyXsXsXsXsXsXsXfXdXfXfXfXgXfXgXfXnX",
"M n M n n M C b b m m z t a p e 2 2 < *XnXhXsXrX5XrX:XrXrX;X;X:X:X:X:X:X:XrXsXyX:XsXrX5XsXsXsXsXsXsXdXsXdXdXdXfXfXfXfXfXfXgXgXmX",
"F C A S S x 2 3 , , ; * = $ $ @ @ @ $ =XgXsXrXsXtXtXyXuX;XrX;X;X:X:X:X:XrXrXyXyXsX:XrXsXsXsXsXdXsXfXfXdXsXgXfXfXfXfXfXfXfXgXfXmX",
"k.k.k.k.V.z & $ = * ; < e p z c T l.].uXgXhXxXeX^.^.^.eXtX5X5XyX:X:XrXrXyXyXyXyXsXsXsXsXsXsXsXfXfXfXsXsXgXfXgXfXgXgXfXmXfXmXmXmX",
"k.k.k.k.C.m B ].[.=X>X;XrXyXtX>X+X|.Z.sXjXqX^.T.T.^.P.I./.qX5XrXrX:XrXrXyXyXyXyXsXsXsXsXdXsXdXdXfXdXgXgXgXfXfXgXgXgXmXfXmXmXmXmX",
"k.k.k.k.k.l. X+X.XB.B.i.i.Z C s 0 e e OX).^.^.T.U.L.L.L.M.(.uXyXfXgX5XyXyXuXuXdXyXyXdXdXdXdXfXfXfXfXgXgXgXfXgXgXgXmXmXmXmXmXmXmX",
"K k.k.k.k.k.h.Z h n h b b M N a a e j /.)./.U.M.q.L.U.I.=.Y.tXuXC.h.yXyXtXuXuXdXdXdXdXdXsXfXfXfXfXhXgXgXfXgXgXgXmXmXmXmXmXMXmXMX",
"C.K h.h.h.h.h.S Z Z Z C C C C s 2 ] ^.).^.P.M.Y.U.T.U.q.>.J.jXl.T T B yXuXyXuXfXdXdXdXfXfXfXhXgXfXgXgXgXjXgXgXNXkXmXmXmXmXBXNXNX",
"C.A.C.C.C.C.k.i.C b b m h s a < 0 Y./.).T.T.T.T.I.L.9.=.7.iX>XB HXJXB Z.kXuXlXuXdXdXfXdXfXfXgXgXgXgXmXgXgXNXjXgXmXmXNXNXNXBXBXBX",
"c x z p t 2 2 ; * ; $ $ @ @ @ O ' U./.T./.^.U.q.<.=.O.e.7XnX Xl.HXGX-XA mXuXfXfXdXfXfXfXfXgXgXgXgXgXjXjXnXNXNXNXNXNXNXNXBXVXVXVX",
"* * , , > 4 R l x c H T I k.C.'.J.U./.T.w.-.) +.+.=.e.~.eXeXR..XHXGXoXz mXuXuXfXfXfXfXfXgXgXjXjXgXjXmXmXmXmXmXNXNXNXVXNXNXVXNXVX",
"{. XoX=X>X-X>XOX X|.|.Z.Z.B.h.b 6.T.T.e.) ( ) -.) ) -.@.9.0.e.7XHXHXY t mXuXfXfXfXfXkXfXfXgXjXjXgXmXmXmXmXNXNXNXNXNXBXVXVXVXZXCX",
"[.[.[.].V.V.k.Z h b h b h h b e 5.U.P.=.=.=.e.-.) %.8.q.q.q.q.n.pXHXi T mXuXfXfXfXfXgXgXgXjXjXjXmXmXmXmXNXNXNXNXVXVXBXBXVXVXVXVX",
"V.V.V.V.V.A.C.D C Z C C F C M a 5.P.L.M.=.=./ ) *.8.q.1.%.*.9.9.~.pX: K.xXlXfXgXgXdXgXgXjXjXjXNXmXNXmXNXNXBXBXNXBXCXVXVXVXCXSXCX",
"V.V.V.}.V.V.V.i.C C C C C n N t 6.I.M.M.<.+.) =.8.<.#.+.*.<.9.0.9.w.W w.N.(.aXkXgXmXmXmXjXjXNXjXNXNXNXNXNXBXBXBXVXBXVXAXVXAXSXAX",
"V.V.V.V.C.C.C.i.p.Z Z Z Z n C a [ M.M.N.8.+.*.8.#.) / Q ` e.8.8.8.9.0.0.N.3.M.I.U.~./.aXNXNXjXNXNXBXNXVXBXBXBXVXBXCXVXVXCXSXSXSX",
"V.C.V.V.V.V.C.h.i.i.B.i.i.p.p.p g Y.N.M.M.*.*.#.+.-.s.o . w 0.<.=.*.@.@.:.2.3.4.:.+.@.0.T.aXNXNXBXNXNXNXBXVXVXVXCXCXCXAXCXCXSXSX",
"T K A l.Z.V.V.B.B.B.B.B.B.B.j.m a g.I.P.0.#.+.+.#.7.8Xy W 7.;.,.9.X.Q _ O.O.7.2.^ ../ ) %.N.T.kXCXNXBXBXVXVXVXVXVXCXCXSXSXSXSXSX",
", A B K Z.V.Z.D.F.F.F.F.F.F.B.x ] q.P.N.#.+.#.#.;.2.q.q.0.*.#.$.,.1.e.-.-.X.7.N.7._ _ ( O.%.3.M.eXzXCXBXBXVXVXCXDXCXCXCXSXSXSXSX",
"# < K V.}.Z.[.F.G.G.G.G.F.F.F.n a.0.0.,.#.#.,.;.#.,.8.1.,.#.#.,.,.*.<.<.;.;.3.3.N.X._ _ / O.:.;.3.P.xXDXCXCXCXCXSXSXSXSXSXSXSXSX",
"; 2 V.Z.[.[.|.+X8XG.G.8XG.G.G.F 6.,.$.$.#.;.,.$.#.1.0.,.#.%.,.*.$.%.+.O.O...O.@.4.w.( _ / O.+.$.;.3.N./.zXZXSXCXCXCXSXSXSXSXSXFX",
"x * h.[.[.[.|.+X8X8X8X8X8X+XG.y.w.8.#.$.,.;.;.#.$.1.,.$.#.$.#.+.+.+.+.@.8.>.X. .@.4.N.^ ^ / ) +.:.:.3.3.U.zXZXVXSXCXSXSXFXSXFXFX",
"}.< x  X[.[.|.wXwXwX8X9XwX8X8Xs.7.<.$.,.$.;.#.#.2.;.#.#.+.#.) O.>.8.7.6.{ [ { ` `  .4.5.Q / O.+.#.:.;.3.3.U.DXSXAXSXSXSXSXFXFXFX",
" Xz 2  X[. X X8X9X9X0X9X9XwX8Xg.9.,.,.$.*.,.#.*.1.:.#.#.+.+.=.q.L.6.' u u u d u w ` ` 6.6._ / +.#.#.:.:.3.3.^.SXSXSXSXSXSXFXFXFX",
" Xl.; [. XoX+XwX9X0X0X0X9X9XwXJ.9.<.,.*.1.$.#.0.1.$.O.O.>.M.Y.v.[ ' y.a.d.f.a.[ u E ` X.pXE.^ O.#.#.$.$.,.2.0.zXFXSXSXSXFXFXFXFX",
" X X2 T OX XoX9X0X0X0X0X0X0XwXn.9.9.1.*.1.#.*.8.%.@.e.9.U.v.t.d.R.R.S.f.f.g.s.y.' 9 E ` aXFX7X5.O.O.O.O.@...!.DXFXSXSXSXFXFXFXFX",
" XOXB t OX XoX0X0X0X0X0X0X0XwXY.9.9.1.*.,.#.,.*.@.w.I.v.c.V r.u.u.d.f.d.s.y.d : q q E | DXVXSXzX(.R.v.J.~.eXSXFXSXSXSXFXSXFXFXFX",
" XoX|.* l.OXOX0X0X0X0X0X0X0X9Xw.9.8.8.$.,.*.*.=.o.} | s.u.f y 0 r f V s.y.e : 0 r w E R.SXBXVXAXFXSXFXFXFXFXDXSXSXSXFXSXFXFXFXFX",
" XoX-Xz 2 OXOXqX0XxXxXqX0X0X9XM.=.8.8.#.*.,.*.&.` ' y.y.V y e s y g H.!.y.- 0 h d W W iXZXBXVXVXCXVXAXCXDXDXDXSXSXSXSXSXFXFXFXFX",
"].].].P p Y C.V.[.V.}.l.V.V.j.n.9.<.*.#.#.*.=.o.W a.y.' V i m V i s.Q.Q.R.d r j ] W K.VXNXVXVXVXDXDXDXAXAXAXAXSXSXSXSXSXSXFXFXFX",
"P P L P _.L L L J J J L J G u.q.9.9.9.*.*.*.&.! c.R.R.f.s.r.u u t.R.W.7XQ.a.j ] y.` (.VXNXNXVXVXVXVXAXVXVXSXAXAXSXSXSXSXSXSXFXFX",
"P P P P L L P P L L L L L L s.9.9.9.<.=.+.=.o.' R.W.W.W.b.f.g.f.H.R.W.Q.Q.b.a.a.y.a.qXVXNXBXBXDXzXVXBXAXDXAXAXAXAXSXSXSXSXSXFXSX",
"L P L P L L L P L L L H L H A v.q.0.9.<.*.*.&.{ W.Q.W.W.E.E.b.b.f.f.b.E.W.R.f.| a.v.aXNXBXBXkXAXCXVXVXDXVXVXDXCXDXAXDXSXDXFXDXFX",
"H H J H J H H H H H G H H H G y.9.9.8.9.8.*.<.{ b.Q.Q.W.Q.Q.!.b.s.a.b.E.W.b.s.[ y.{ 0XVXBXDXBXVXVXBXVXzXFXFXAXSXSXSXSXSXFXFXFXFX",
"H H H H H H H A H J J H H J T B | q.q.9.8.,.,.5.g.W.Q.Q.Q.W.R.b.a.s.z.u.r.r.g ] c.} 9XzXkXkXkXVXBXBXVXjXrXrXsXsXdXfXlXfXkXkXjXzX",
"J J J T T J T L J T L I I I Y T y.0.8.8.8.*.*.=.} E.W.W.W.E.R.f.s.s.u.f r r 0 d t.{ eXjXkXkXBXkXkXNXSXNX5 4 k 5 t t k k p l l l ",
"I I I P H c J Y Y Y Y Y Y U Y Y x.v.7.=.<.1.%.=.5.b.W.E.E.S.f.u.V V r.r.V j r r y.` (.BXkXBXkXkXzXFX;XK 5 l v l l l v k l v v v ",
"Y Y U L m.'.J m._._.k._.`.'.`.B.z.R.7.7.=.,.*.=.0.v.E.b.b.z.s.r 0 V i i y 8 0 i ]  .~.jXkXkXkXkXhXB $ & k c v c v c v v v v v c ",
"Y Y C.J c J U C.'.].].'.].C.B.E.z.R.n.&.=.2.<.,.q.v.b.z.z.S.u.' t.t.' ' ' ' r.g [  .~.jXkXkXjXgXk   @ 7 5 c c c v G G G G G G G ",
"U k.`.L I P Y ].].].].}._.2 s R.!.z.!.5.&.1.1.,.9.M.v.z.x.z.s.x.b..Xs.' j d ] g W  .Y.kXkXfXDXl.  @ $ 7 4 5 s B v 5 5 5 k k k k ",
"U _.].P U `.].}.].}.}.c , * + : ] b.R.v.X.&.=.%.%.M.6.d.z.z.u.d.b.z.s.t.d j t.u E  .7.aXkXkXkXl . @ 7 7 1 4 5 k k 4 4 4 4 5 5 5 ",
"`.`.`.`.P ].].].}.}.v * = = = o . - t.b.5.>.=.%.%.2.L.[ d.H.u.d.b.b.S.S.x.u.r.w E Q X.qXkXkXlX> . @ % 7 1 1 1 1 3 4 4 4 4 5 5 k ",
"`.`.`.`.].].`.{.].5 * * = = = + X . o 0 [ >.=.4.:.%.N.} d u.y.d.z.z.z.s.y.t.u 9 E Q @.eXkXkXyX%   & % , 1 1 1 3 4 4 4 4 4 4 4 4 ",
"c `.`.`.`.`.`.`.4 = ; * = % + + + + X   - ` X.>.$.+.2.I.w r g g u.u.u.V V j q 9 E Q O.~.jXlXrX;   & @ , 1 1 3 3 3 4 5 5 5 5 k 3 ",
"4 m.P P _.L L 4 * ; * * * * = = + + X X   - { @.$.%.>.P.{ - q r r f i y 0 q 9 9 E Q ..J.kXlXkX2   & & , 3 3 3 3 4 4 4 p F x A J ",
"3 P P I P H 4 ; * * * ; * $ = = # + + + o . q X.@.%.%.M.U.8 - - : : - S u.9 9 9 E Q  .Y.aXtXkX[..   . , 3 > 4 3 4 4 4 a D F B.D ",
"> G J G c 4 % * % * * * $ $ # + # # + + o . o w X.+.:.0.T.[ - : 0 = . B iXw E W !  .O.M.aXaXtXkX X1   , 6 > > 3 4 4 4 h F D A.Z ",
"; G c c 3 % ; $ $ @ $ % # # # # + + + + + o . o ` ..@.:.N.I.u u r o =   T [ E E Q  .@.7.iXlXlXtXlXlXV.> 3 3 1 1 4 4 1 F h m.A.F ",
"; c p 4 % % @ $ $ $ * $ @ # # # + + + + + + o . q o.@.%.3.P.} u r # X o = ' E W Q ..@.7.qXlXtXtXtXaX>X3 > 1 1 1 3 4 4 Z Z F m.A ",
"7 > ; 7 $ $ $ $ % % $ @ @ + + + + + + + + + + o o W ..@.:.N.I.: o + # + X : W E ! ..@.>.eXyXtXaXlXOXC.> 1 > 1 1 4 4 2 s F c m.m.",
"@ @ @ X O @ O & . & & X @ + X # + + + @ O # # + o - ` ..%.0.P.[   + X = + # W W !  .O.:.(.sXaX|.t + & > 1 > 1 1 4 4 4 D A.D.A.F ",
"a a p p p < ; ; ; # = # @ + + X X X . . X o o o X o w  .O.3.I.Y.- X # # $ o w ` W  .O.4.~.kXV.X     @ > > 1 1 1 4 4 p D F m.m.F ",
"A.h.B.D i.i.i.i.i.i.S S C M m b h a s a a 2 < < < ; 8 ` ..@.M.P.[ . o X # O 8 W E ^ O.@.U.>X# . O O ; > 3 4 1 1 4 4 p D A.F.F m.",
"{.{.}.{.}.[.[.}.}.V.Z.[.Z.Z.Z.Z.A.A.B.B.B.B.j.B.j.j.j.u.d.g.g.K.S.F x s a a f [ [  .X.@.U.D . o @ @ @ 7 , , , , 1 1 k +X+Xm.D m.",
"@X@X@X@X%X@X@X@X@X@XXX@X{.@X{. XXXXXoX{. X{. X{.[.|.|.|.|.|.D.Z.B.D.D.A.B.B.B.j.x.j.x.d.B.i.i.Z F F F m.F F F F x x x +XoXm.A.D ",
"@X@X#X#X%X@X#X#X$X@X#X#X#X#X%X@X@X@X$X@X#X@X%X@X$X$X$X&X$XoX$X$XoX#X$XoXoXoXoX X X|.|.{.|.|.|.|.D.D.D.D.A.A.m.A.A.A.A.A.A.m.j.j.",
"#X#X%X%X%X&X%X%X%X%X%X%X%X%X%X&X&X%X$X&X%X&X&X%X&X&X&X&X6X6X&X&X&X#X6X6X&X*X&X&X*X*X6X6X=X&X=X&X6X6X6X6X6X6X6X6X+XoX+XoX+X+X+XG.",
"#X#X&X&X%X&X&X&X%X&X&X&X&X&X,X,X&X&X&X&X*X&X&X6X&X*X1X6X,X1X,X,X<X<X1X1X1X1X,X1X6X1X1X1X1X1X6X6X3X3X3X6X4X6X4X4X4X4XbXbX5XbX4XbX",
"&X&X&X&X&X&X,X&X<X&X&X<X1X&X,X,X<X1X1X*X6X1X6X6X6X1X1X1X2X2X1X1X2X2X2X2X2X2X2X2X2X2X2X3X4X4X4X3X4X4X4XbX4X4XbXbXbXbXbXbX5XbXbXbX",
"&X&X&X,X&X&X&X6X,X*X,X,X,X1X1X1X1X1X1X1X1X1X3X1X1X3X3X5X2X2X2X2X2X2X2XvX2X2XvX2X4X3X4X4X4X4X4X4X4XcXcXbX4XbXbXbXbXbXbXbXnXbXbXnX",
"&X&X&X,X6X6X1X&X1X1X1X2X2X1X2X2X1X3X2X3X3X3X3X3X4X4X3X3X4X4X4X4X4X3X2XvXvXvXvXvX4XbX4X4XcX4XcXcXcXcXbXbXbXbXbXbXbXbXbXnXbXnXnXnX"
};
