/* XPM */
static char *kyaubry_resized[] = {
/* columns rows colors chars-per-pixel */
"64 64 229 2 ",
"   c #100F13",
".  c #141315",
"X  c #1B1614",
"o  c #1D1916",
"O  c #161518",
"+  c #191619",
"@  c #1C1B1D",
"#  c #110E0F",
"$  c #211A17",
"%  c #231D1B",
"&  c #2B1E1B",
"*  c #201714",
"=  c #341E18",
"-  c #26211D",
";  c #2B211E",
":  c #36221C",
">  c #1E1E20",
",  c #201F22",
"<  c #232325",
"1  c #2C2422",
"2  c #2F2A25",
"3  c #262629",
"4  c #28272B",
"5  c #29292B",
"6  c #272829",
"7  c #322623",
"8  c #322926",
"9  c #352C29",
"0  c #392E2A",
"q  c #3B2A25",
"w  c #3A312E",
"e  c #3C3431",
"r  c #373436",
"t  c #332F30",
"y  c #4B2D25",
"u  c #47332C",
"i  c #523329",
"p  c #58382A",
"a  c #423934",
"s  c #463B38",
"d  c #5A3C32",
"f  c #65362A",
"g  c #6C3E2F",
"h  c #49413D",
"j  c #574339",
"k  c #654134",
"l  c #6B4233",
"z  c #64483B",
"x  c #724A3B",
"c  c #7B4E3B",
"v  c #774834",
"b  c #7E543E",
"n  c #4B4542",
"m  c #554D49",
"M  c #584A45",
"N  c #5B514A",
"B  c #5A5553",
"V  c #504E50",
"C  c #675348",
"Z  c #775645",
"A  c #625752",
"S  c #635A53",
"D  c #765D52",
"F  c #6C4D43",
"G  c #6D645D",
"H  c #7A6451",
"J  c #756C66",
"K  c #7B736B",
"L  c #77706C",
"P  c #7B7774",
"I  c #6B6763",
"U  c #873D3B",
"Y  c #84493C",
"T  c #83533C",
"R  c #85593E",
"E  c #89543A",
"W  c #8A4E43",
"Q  c #855442",
"!  c #8B5B43",
"~  c #835C48",
"^  c #965648",
"/  c #985D53",
"(  c #934847",
")  c #A15B4F",
"_  c #8C6346",
"`  c #8A684B",
"'  c #91634C",
"]  c #946C4C",
"[  c #966749",
"{  c #99724F",
"}  c #8E6B55",
"|  c #8C6B59",
" . c #946C52",
".. c #9B6D52",
"X. c #976A58",
"o. c #957354",
"O. c #9B7454",
"+. c #96755B",
"@. c #9D745A",
"#. c #9C795B",
"$. c #9B7857",
"%. c #A46756",
"&. c #A37357",
"*. c #A3755B",
"=. c #A37A5F",
"-. c #A9785D",
";. c #A9775D",
":. c #A75F61",
">. c #876E63",
",. c #87766B",
"<. c #9C7463",
"1. c #977868",
"2. c #897F77",
"3. c #A37562",
"4. c #A57B63",
"5. c #AC7C64",
"6. c #A37D6B",
"7. c #AC7E6A",
"8. c #A97761",
"9. c #B17D66",
"0. c #B17F68",
"q. c #B17167",
"w. c #AE776F",
"e. c #C37D71",
"r. c #9E806E",
"t. c #8B8178",
"y. c #98897C",
"u. c #AC826B",
"i. c #A58168",
"p. c #B3826C",
"a. c #A28272",
"s. c #AC8C7C",
"d. c #A68878",
"f. c #B48573",
"g. c #B98672",
"h. c #B48A75",
"j. c #BA8B76",
"k. c #B38C7A",
"l. c #BC8D7A",
"z. c #B6917C",
"x. c #BC927D",
"c. c #AB907E",
"v. c #C08E7B",
"b. c #CA8B7D",
"n. c #C4937E",
"m. c #948B83",
"M. c #9B8F83",
"N. c #9E9285",
"B. c #9E958C",
"V. c #959089",
"C. c #888583",
"Z. c #A49585",
"A. c #A99685",
"S. c #A59886",
"D. c #AA9A86",
"F. c #A39589",
"G. c #A69989",
"H. c #AB9C8A",
"J. c #A89788",
"K. c #B69584",
"L. c #BB9582",
"P. c #BD9985",
"I. c #B19F8B",
"U. c #BE9C8A",
"Y. c #B39788",
"T. c #A49D94",
"R. c #B49789",
"E. c #AFA186",
"W. c #AFA08D",
"Q. c #B2A28E",
"!. c #AEA89E",
"~. c #ABA297",
"^. c #B5A591",
"/. c #B7A895",
"(. c #B8A996",
"). c #BBAD9B",
"_. c #BCA594",
"`. c #BEB09F",
"'. c #AAA7A1",
"]. c #BDB2A3",
"[. c #BCB4AB",
"{. c #B7B4AB",
"}. c #BDBAB4",
"|. c #BEB7B0",
" X c #B0ABA7",
".X c #C49582",
"XX c #CA9586",
"oX c #C39985",
"OX c #CA9A86",
"+X c #C39D8A",
"@X c #CC9C8A",
"#X c #D09282",
"$X c #C3A28E",
"%X c #CEA28E",
"&X c #D1A28F",
"*X c #C5A591",
"=X c #CCA592",
"-X c #CCA995",
";X c #C7A998",
":X c #D3A592",
">X c #D2A994",
",X c #D4AD9A",
"<X c #DAAA99",
"1X c #D4B29C",
"2X c #D9B59D",
"3X c #CFB19A",
"4X c #C5BBAD",
"5X c #C8BCAE",
"6X c #C3B4A6",
"7X c #C2BDB5",
"8X c #C1BFB9",
"9X c #C9BEB1",
"0X c #CEAEA3",
"qX c #C5C2B6",
"wX c #CDC5B7",
"eX c #C5C3B9",
"rX c #CDC5B9",
"tX c #CFC8BC",
"yX c #CCC8BA",
"uX c #D1C5B7",
"iX c #D0C6BA",
"pX c #D1C9BD",
"aX c #CECAC2",
"sX c #C8C6C1",
"dX c #D3CEC2",
"fX c #D5D0C4",
"gX c #D9D3C7",
"hX c #DAD4C8",
"jX c #DED8CC",
/* pixels */
"gXgXhXgXgXgXfXfXgXfXgXfXfXfXfXfXgXpXgXpXgXgXgXpXgXdXpXpXgXpXpXpXgXpXdXuXdXpXpXpXpXpXpXpXpXuXpXpXuXuXpXuXiXiXiXiXiXiXaXiXiXiXiXiX",
"hXhXhXgXgXgXfXgXfXfXfXgXfXfXfXfXfXgXpXgXgXpXpXfXpXgXgXgXpXpXpXpXpXpXuXdXdXuXpXpXuXpXpXpXpXpXpXuXuXpXpXpXiXiXiXiXiXuX9XiXiX9XiXuX",
"gXhXhXgXgXgXfXfXfXfXfXfXgXfXfXgXgXpXfXfXfXgXfXgXfXpXpXfXpXgXpXpXpXpXdXpXpXpXpXpXpXpXpXpXpXuXpXpXpXuXuXpXiXiXiXiXiXiXiXuXpX9X9XaX",
"hXgXhXgXgXgXgXgXgXgXfXfXpXfXfXfXgXgXpXfXfXpXfXpXfXfXgXpXpXgXpXfXpXdXuXdXpXpXpXpXpXpXpXpXpXpXpXpXpXpXpXpXpXiXiXpXiXiXiXiXiXiXiXiX",
"gXhXgXgXgXgXgXgXgXgXgXgXgXfXfXfXfXfXfXgXdXgXfXdXdXdXfXdXpXdXpXpXdXdXdXuXdXpXpXpXpXpXpXpXpXpXpXpXuXpXiXpXpXpXpXuX9XiXiXiXiXiX9XiX",
"fXfXgXgXgXgXgXgXgXgXfXgXfXgXpXgXfXfXfXpXdXdXdXfXpXfXdXfXdXdXdXpXuXuXdXdXuXpXuXdXpXpXpXpXpXpXpXpXpXpXiXiXpXuXpXuXdXiXiXiXiXiXiXiX",
"gXfXgXgXhXgXgXgXgXgXgXpXgXpXgXgXfXfXfXfXfXdXdXdXgXdXdXpXdXdXpXpXdXdXdXuXuXdXpXpXpXpXpXpXpXuXpXpXpXpXpXpXiXuXpXpXiXiXiXiXdX9XiXiX",
"gXfXfXfXgXfXfXgXgXgXgXfXfXgXfXfXfXgXpXfXfXdXdXdXdXdXpXgXdXdXdXdXgXpXpXdXpXpXpXpXpXpXpXpXpXpXpXpXpXuXpXuXpXpXuXpXiXiXiXiXiXiXiXiX",
"hXfXfXfXfXfXfXfXgXfXfXfXfXgXfXfXfXfXfXfXfXdXdXfXdXfXdXdXdXdXaXdXuXdXdXuXpXpXiXpXpXpXpXpXpXpXpXpXpXiXpXiXiXpXiXpXiXiXiXiXiXiXiXiX",
"fXaXfXfXfXfXfXfXgXgXgXfXpXgXgXpXfXfXpXfXpXfXdXfXdXpXdXpXpXpXdXdXdXpXpXpXiXiXpXpXpXpXpXpXpXpXpXpXpXpXiXiXpXpXiXiXdXiXiXiXiXiXiXiX",
"fXfXfXfXfXfXfXfXfXfXfXgXfXfXfXfXdXdXdXdXfXfXpXpXfXgXdXfXhXfXtXyXpXpXhXpXiXtXiXiXpXpXpXpXiXpXpXpXpXiXiXpXpXiXpXiXiXiXiXiXiXiX9XdX",
"fXfXfXfXfXfXfXfXfXfXgXpXfXgXpXfXfXdXdXdXfXpXfXgX7XF.!.7X'.G I T.6XwX~.uXpXgXtXtXpXiXpXiXpXpXiXyXpXpXpXiXpXiXiXpXiXiXiXiX9XiXiXiX",
"fXfXfXfXfXfXfXfXfXfXfXdXpXgXpXfXdXdXdXdXpXwX{.F.A 8 h N a 1 $ 2 e n 9 e s B.hXpXwXpXiXiXyXpXiXpXiXpXiXpXiXiXiXiXiXuXiXiXdXiXiX9X",
"fXfXaXfXdXfXfXaXdXdXfXgXgXdXfXgXdXdXdXgXpXt.N a 0 e w w 8 q 8 & o o 1 % o 1 P wXgXiXtXtXiXiXpXpXpXiXiXpXiXdXdXiXiXdXiXiXiXiXiXdX",
"aXfXfXfXdXfXgXdXdXdXfXdXdXfXpXuXdXfXfX4XG 0 9 9 9 e e 1 1 1 2 9 9 8 2 , 1 % 1 m V.wXwXyXtXpXpXiXpXpXpXuXdX9X9XdXiXiXiXiXuXdXiXuX",
"fXfXfXfXgXdXdXfXdXdXfXdXfXaXm.9XfXwXK a 0 0 2 9 e w 9 8 7 , $ % & % % 2 2 o % % $ h M.pXpXyXiXpXpXuXpXpXdX9XdXiXiXiXiXiXuX9XdXuX",
"fXfXfXfXfXfXaXaXdXfXdXdXhXT.h tX4XA 7 w 9 ; 8 9 2 1 1 1 + o X o o X . . % 1 & @ o # 2 N ~.pXtXiXuXiXiXiXiXtXiXiXiXiXiXiXiXuXiXrX",
"fXfXaXfXaXfXaXfXdXdXfXaXjXK 8 P I a 0 9 7 8 1 1 2 8 2 1 % o X X o % o X . o % & $ < o h t.tXtXtXpXuXiXiXiXiXiXiXiXiXiXiXrXrXrXuX",
"fXfXfXfXfXfXfXfXdXdXdXhX~.e e 0 q 0 0 7 1 1 - - 1 8 7 , + X $ $ X o o o o % $ + - - X a G rXpXtXiXwXuXiXiXiXiXiXiXiXiXuXiXuXiXiX",
"fXfXaXfXfXfXfXaXdXdXiXjXP % e 8 8 9 1 , - 1 - - 9 q , % % 1 % $ % o & - % o % o . o - - e t.pXrXrXtXrXiXrXiXiXiXiXiXiXrXrXrXiXiX",
"fXfXfXaXaXfXaXfXdXdXiXfXm.n 0 0 9 1 1 1 - 1 % % q 7 9 7 q ; & & $ & & & & & : : - - o * a A 7XrXwXrXrXiXiXrXuXiXpXpXuXyXuXiXiXwX",
"aXfXfXfXfXaXfXaXdXaXaXaXeXK 1 e 8 1 8 , 2 - $ 7 , 7 y y y y i i i p g l k g u 7 - X o - X G rXwXwXwXuXrXuXuXiXrXuXuXuXuXrXrXwXwX",
"fXfXfXfXfXaXfXaXdXdXaXsXhX2.% 0 0 2 1 1 & & ; q y f g Z Q c T ! ..X.<.3.] ~ l i ; o % - X s 8XyXrXwXwXiXrXuXiXiXuXwXuXyXwXwXtXpX",
"fXfXfXfXaXfXfXaXdXdXiXtXaXG 8 9 1 8 & % , 8 q k Q 3.0.8.....&.p.f.p.8.=.&.&. .b i : - o o a [.tXrXtXwXrXiXrXrXuXuXwXyXyXwXuXuXuX",
"fXfXfXfXfXyXfXfXyXfXpXyX7XL 9 9 , + % , D 1.z / 7.f.7.5.5.5.9.5.;.&.&.&.-.*...c x z o $ - A ].wXrXeX9XwXwXwXuXuXwXrXyXyXuXuXwXuX",
"aXfXfXfXfXfXyXfXfXyXaXyXyXB.0 9 1 $ 1 j s.*XP.oXP.x..X@X@XXXn.p.p.9.8.;.;.*.&.O.O.] ; o - G eXwXeXrXrXwXwXwXuXuXrXuXyXwXuXuXuXuX",
"fXdXyXfXfXyXpXfXpXtXyXyXaXT.8 9 & , q D U.+X=X=X>X>X:X&X&X@XOXXX.Xl.j.g.p.9.=.&.$.+.q X X S qX7XrXrXwXwXwXwXwXwXuXpXwXwXwXuXuXuX",
"dXfXfXaXpXfXpXpXtXyXeXeXtX!.9 0 , 9 , 6.*X-X,X,X,X,X<X:XOXXXn.n.n.n.v.j.l.l.h.u.=.=.u # & N ).].4X7XwXwXwXwXwXwXtXwXpXwXwXuXuXuX",
"dXdXdXdXyXdXdXyXtXtXrXeXrX[.n 8 $ ; ; a.=XU.6.>.| 1.6.l.l.v.j.j.j.g.g.p.7.<.X.~ } i.q X & M ^.H./.).].4XyXyXyXwXuXyXuXyXwXuXwXuX",
"dXdXdXdXyXdXyXdXtXtXrXeXqXeXK q y 7 q A.U.6.6.6.X.Z g x / 8.9.9.p.9.[ v p y p d k | q X & G H.S.H.H.W.(.`.qXqXwXuXyXyXuXwXuXuXuX",
"dXdXdXyXfXyXdXyXtXtXeXeXeXeX[.,.( M i +XU.K.k.3.<.X.! Y T [ *.9.;.[ E v Y R !  . .1.u $ w y.H.S.H.H.H.Q./.`.6XwXuXyXuXyXuXuXuXuX",
"dXdXdXdXyXfXyXdXtXtXyXeXeXqXeX+Xw.D F -XU.k.X.F F & q f g ' f.v.-.[ v f : : d g ` i.z = F D.S.H.H.W.H.H.z.^.`.wXwXuXpXuXuXuXuXuX",
"dXdXdXdXdXdXtXdXaXtXrX9XeXeXyX;X#Xl | ,X%XoXk.6.1.Z Z ! / s.XX:Xv.[ c v d d F v ` i.x f ^ S.J.J.H.H.H.H.Q.Q./.6X5XwXwXuXwXwXuXuX",
"dXdXtXdXiXpXaXtXiXiXeXrXeXeXeX6X.XW 1.1X=X=X+XoXf.0.8.3.f.XX%X:Xn.&.@.&.&. .'  .+.u.Z c ..H.S.J.H.H.H.Q.Q.Q.Q.^.`.5XwXuXrXuXwXwX",
"dXdXdXpXdXaXtXtXtXtXrXeXwX7XqX7X#XXXk.-X,X>X>X+XP.l.k.XX*X:X%X:Xn.5.5.5.*.@.&.@.*.u.Q Y w.G.J.J.H.H.Q.Q.Q.Q.Q.^.^.6X4XwXuXrXrXpX",
"dXdXdXpXdXpXdXiXtXtXrXeXqXeXqXqX0X<X-X*X,X1X,X<X&X%X:X:X@X@X%X&Xn.9.8.p.p.p.7.5.4.7.X.^ a.H.J.H.H.H.W.Q.Q.Q.Q.Q.Q.(.).5XwXuXwXwX",
"dXdXdXiXdXtXdXaXtXtXrXeXeXeXqXqX7X:XXX;X-X,X,X,X<X:X&XXXXX%X<X<XXXg.*.8.g.g.0.9.i.u.4.&.J.S.H.S.H.H.^.~.Q.Q.^.Q.Q.^.^.6X5XwXwXuX",
"dXpXdXdXpXdXtXtXaXtXrXrXeXqXqX7XsXm.u _.*X+X=X:X%X@X.X.XXX@XXXoXv.5.*.&.9.9.5.5.4.4.*.A.G.J.J.S.H.H.H.^.Q.Q.Q.^.^.^.^.(.6X4X9XuX",
"dXdXaXpXdXpXiXaXaXtXeXrXeXqXqX7X8X|.P R.;X+X+XOXOXn..X@X.X^ ~ %.E Y [ %.;.;.8.4.4.r.d.F.J.S.G.D.H.~.Q.Q.^.Q.^.^.^.^.Q./.).6X9X9X",
"dXpXdXdXdXiXaXtXtXtXrXrXeXqXqX7X8XsX8X).*X$X+XoXj.f.v..X.Xw.X.! Y R [ ..&.*.=.=.<.d.T.F.F.S.G.H.H.^.Q.Q.^.^.Q.^.^.^.^.^.^.).6X9X",
"dXdXdXdXtXpXaXtXtXrXeXsXeXeXqXqX8X8X}.[.*X;X+XXXu.#.6.k.k.k.g.5.[ ' ] ' _ { $.=.r.N.Z.Z.F.F.S.G.H.W.W.Q.~.^.^.Q.Q.^.^./.^.(.).6X",
"dXpXpXdXdXtXpXtXaXtXrX9XwXeXqX7X8X7X8X|.R.+X+XR.j.i. ./ :./ / ^ E Y c v R ] $.$.r.Z.F.N.Z.S.F.H.H.W.W.Q.Q.W.^.^.^.^.^.^.^._.(.`.",
"dXdXdXpXpXaXdXtXiXrXeXrX8XqX7X8X7X8X8X7X_.R.R.K.k.h..X0.q.:.( U U U Y T _ { o.i.M.F.N.B.F.Z.S.J.H.H.W.W.Q.Q.Q.Q.Q./.Q.^.^.(.(.).",
"dXpXtXaXdXtXtXtXaXrXrX9XwXqXqX7X7X}.}.}._.w.A.f.k.l.l.z.f.q.%.:.) [ ..O.] o.o.r.M.N.N.F.F.F.Z.A.G.H.W.W.W.W.Q.Q.Q.Q.Q.^.^.^.(.(.",
"aXdXdXdXtXtXaXtXrXrXeXrXeX8X8X}.}.8XsX{.*XR.6.6.s.z.j.h.p...E E E _ ] ] { ] ` t.F.N.M.F.N.F.Z.S.H.H.H.I.W.Q.Q.Q.I.Q.Q.Q.Q.^.^._.",
"pXdXiXiXtXtXiXeXrXrXeXeXqX7XsXaXsX'.L N.*XU.A.1.1.h.x.x.x.l.p.-.;...] o.` ` o.o.A m.G.F.M.N.F.Z.G.J.H.H.H.W.W.H.I.Q.Q.Q.Q.^.^.^.",
"dXtXiXaXiXaXrXrXeXeXeXeXyXaX XP V , C 3X_.+X+Xs.1.1.h.x.n.j.g.p.5.&.] _ ` o.+.i.Z < B 2.F.N.N.Z.S.J.G.H.D.H.I.E.Y.Q.E.Q.Q.^.Q.^.",
"iXtXaXrXrXeXrXeXqXeXeXaX{.I 4 > > > >.,X*X$X+XP.d.+.| | } ' _ ! T b R _ o.o.+.i.`     % m m.H.Z.N.S.J.S.D.D.H.D.H.H.Y.Q.Q.Q.Q.Q.",
"aXtXtXeXeXeXeXeXtXdX{.L 4 > > 3 3 > V 3X*X_.$XE.n.d.$.} _ c l l v b ` ] o.o.+.#.j   o O   < B y.H.Y.Z.Z.A.A.G.D.D.D.H.W.E.Q.Q.Q.",
"tXtXrXrXsXsXaXaX XL t > , 4 < < < < < c.3X*X*Xn.x.z.i.$.o.[ R ! ` ] ] o.o.+.#._ X O O O + . . < N 2.H.D.Z.Z.D.D.D.D.D.E.E.E.Q.E.",
"tX9X9XsXsX8XV.B 5 > > < 3 3 < < < 3 @ h $X-X_.^.L.z.z.i.O.] ] [ ] ] ] o.o.#.` ; # O . . O O O .   + h ,.H.H.S.F.D.D.D.D.E.E.E.Q.",
"eXaXdX}.C.n < > < 3 < < < 3 < > < < < > N x.x.z.L.z.z.h.i.$.{ { ] i.o.o.o.Z ;   o O O O O O . O o O   O h t.H.H.A.A.A.D.H.E.E.E.",
"rX XL r 4 < 4 4 3 < 4 < 3 3 > < < < < < > j c.x.L.z.x.z.z.i.&.] { i.{ ` j X . o O O O O O O O . O + + +   > h L A.E.D.c.D.E.E.E.",
"B t 4 4 4 4 3 3 < < < < 3 > > < < < < < < > 2 K *X2X2X1X2X1XoXp.i.] z -   O O O O O O O O O O O O @ > + @ > . . e J S.H.c.D.D.D.",
"4 4 5 4 4 3 < < < < < 3 4 > 3 3 < < 6 < < 6 > O 2 N ,.A.K.K.y.D e @ # . o O O o o O O O O O O O O > > + @ @ > > O O r K E.E.A.E.",
"4 4 4 4 4 4 3 < 3 < < 3 4 < > < 6 < < < < < < < > . . O o .     . O o o O @ O O O O O O O @ O O + + > > @ @ @ @ @ > @ @ n N.E.c.",
"4 4 6 6 6 6 5 < < < < 3 3 > 3 3 < 6 < < < < < < < < < > > > > > - > @ @ @ @ O O O > O O > > @ O @ O @ @ > O @ @ > @ @ > + 5 K E.",
"4 4 6 6 5 6 6 6 3 3 < 3 3 > > 3 6 6 < 6 6 < < < < > < > < > < < > - > > @ @ @ @ > > > > > > @ > @ > > > > @ > @ @ > @ @ > > o J ",
"5 5 6 6 5 6 6 5 3 3 < < 6 > 3 6 6 < < < < < < < < < > < < < < > < > < < > > > > > > > > > > > > > @ @ @ > > > > > > > > @ > > t ",
"5 5 6 5 6 6 6 5 4 4 > 3 6 3 3 6 6 < 6 6 6 6 < < < < < < < < < < > < < > < < > < < > < > < > > > > > > > @ @ > > > > @ @ > > , > ",
"4 5 4 5 5 6 5 5 5 6 > 5 6 3 3 6 6 6 6 6 < 6 < < < < < < 6 > < > < > < < < > < > > < > > > < > > > > > > > @ > > > @ @ > @ , @ , ",
"4 5 5 5 6 5 5 5 5 < < 5 3 3 6 6 6 6 6 6 6 6 6 < < < < 6 > 6 6 < < 6 < > < < < < < < < < < < > > > > > > > O > > > @ > > , @ @ , ",
"4 4 5 4 5 5 5 5 6 > 6 5 6 5 6 5 2 6 6 6 6 6 6 6 < 6 6 < < < 6 < 6 < < < < < < 6 < < < < < < > < > > > > > O @ > > o > > > @ > > ",
"4 4 5 4 5 5 5 5 < < 5 6 6 5 5 5 6 6 6 6 6 6 6 < < 6 < 6 6 6 > < < 6 6 < 6 < 6 < < < < < < < < < > > > > > @ @ > @ @ > > @ @ > > "
};
