/* XPM */
static char *mlangloi_resized[] = {
/* columns rows colors chars-per-pixel */
"64 64 211 2 ",
"   c #352B29",
".  c #3B322E",
"X  c #3E3632",
"o  c #423733",
"O  c #443A35",
"+  c #4B3D36",
"@  c #463C38",
"#  c #4B3E39",
"$  c #533B34",
"%  c #583F35",
"&  c #4D423B",
"*  c #4D4037",
"=  c #54443C",
"-  c #5B443B",
";  c #5E493E",
":  c #5A4037",
">  c #62463D",
",  c #6B473E",
"<  c #61493E",
"1  c #6A483C",
"2  c #604237",
"3  c #78453E",
"4  c #554740",
"5  c #574942",
"6  c #5B4C43",
"7  c #5B4F48",
"8  c #5F5046",
"9  c #5F524A",
"0  c #604740",
"q  c #634D43",
"w  c #6B4D43",
"e  c #654C4A",
"r  c #714C43",
"t  c #7B4945",
"y  c #7A4740",
"u  c #625246",
"i  c #65554A",
"p  c #6B554C",
"a  c #6B5A4C",
"s  c #6B5047",
"d  c #715345",
"f  c #7B5545",
"g  c #72564B",
"h  c #745A4C",
"j  c #7B5A4C",
"k  c #7D564D",
"l  c #6D5E51",
"z  c #635850",
"x  c #715E50",
"c  c #7B5E53",
"v  c #6E6056",
"b  c #746253",
"n  c #7D6153",
"m  c #74665B",
"M  c #7E6659",
"N  c #796A5B",
"B  c #76695D",
"V  c #7B6E62",
"C  c #7E7164",
"Z  c #7E7268",
"A  c #81554B",
"S  c #835D4E",
"D  c #835C51",
"F  c #865A53",
"G  c #965F57",
"H  c #85624F",
"J  c #836454",
"K  c #8A6553",
"L  c #846A56",
"P  c #8A6A55",
"I  c #836458",
"U  c #8E655A",
"Y  c #856B5B",
"T  c #8B6C5B",
"R  c #93635B",
"E  c #8C725D",
"W  c #92715E",
"Q  c #826F61",
"!  c #8C6E63",
"~  c #876B69",
"^  c #926B62",
"/  c #9E6C66",
"(  c #946C69",
")  c #847163",
"_  c #8D7362",
"`  c #84766B",
"'  c #8E7468",
"]  c #8C7A6F",
"[  c #937463",
"{  c #9B7565",
"}  c #927866",
"|  c #9A7865",
" . c #947568",
".. c #9A766A",
"X. c #927A6D",
"o. c #9D796C",
"O. c #857970",
"+. c #8B7C72",
"@. c #937D72",
"#. c #9D7971",
"$. c #A36D69",
"%. c #A1746A",
"&. c #A37B6D",
"*. c #A8786E",
"=. c #A47D72",
"-. c #A87E73",
";. c #AA7E7B",
":. c #A97172",
">. c #B27C76",
",. c #8C8077",
"<. c #8E8279",
"1. c #958375",
"2. c #9C8176",
"3. c #91857C",
"4. c #9C857C",
"5. c #94897E",
"6. c #998A7E",
"7. c #A48074",
"8. c #AB8475",
"9. c #A48479",
"0. c #AC827B",
"q. c #AC897C",
"w. c #A3887C",
"e. c #B18777",
"r. c #B1867C",
"t. c #B38B7C",
"y. c #B98E7F",
"u. c #958B82",
"i. c #998E85",
"p. c #908780",
"a. c #9D9186",
"s. c #9D9389",
"d. c #9E988E",
"f. c #9E9590",
"g. c #A68D82",
"h. c #AD8C81",
"j. c #AF8582",
"k. c #B58D82",
"l. c #B98E84",
"z. c #A29486",
"x. c #AD9185",
"c. c #A2968A",
"v. c #AC958B",
"b. c #A5998D",
"n. c #A89C8E",
"m. c #B49184",
"M. c #BB9384",
"N. c #BE9887",
"B. c #B2968A",
"V. c #BD958A",
"C. c #B5998D",
"Z. c #BC9A8C",
"A. c #A69D93",
"S. c #A99E93",
"D. c #B29E94",
"F. c #BD9E91",
"G. c #A7A096",
"H. c #A9A196",
"J. c #A7A69A",
"K. c #ABA399",
"L. c #AFA89E",
"P. c #BDA394",
"I. c #B1A79D",
"U. c #BDA699",
"Y. c #B1A99F",
"T. c #BAA497",
"R. c #AFACA3",
"E. c #B4ADA3",
"W. c #B8AEA5",
"Q. c #B5AFA8",
"!. c #B7B0A6",
"~. c #B8B1A7",
"^. c #B6B2AA",
"/. c #BCB5AB",
"(. c #BFB8AE",
"). c #BBB7B1",
"_. c #BEBAB3",
"`. c #C09489",
"'. c #C39D8D",
"]. c #C19486",
"[. c #C39D92",
"{. c #C89C96",
"}. c #C3A495",
"|. c #C8A195",
" X c #C3A798",
".X c #CAA69B",
"XX c #C4AB9C",
"oX c #CAAB9D",
"OX c #C1A897",
"+X c #CAB09F",
"@X c #CBAFA2",
"#X c #C2ADA5",
"$X c #C4B0A4",
"%X c #C9B1A3",
"&X c #C0B9AF",
"*X c #C3BCB2",
"=X c #C2BEB9",
"-X c #CAB7B0",
";X c #C6C1B6",
":X c #C8C1B7",
">X c #C6C3BA",
",X c #CBC5BB",
"<X c #CDC9BE",
"1X c #D0C7BE",
"2X c #D0C9BF",
"3X c #C9C6C1",
"4X c #CECBC2",
"5X c #CFCFCA",
"6X c #D0CEC2",
"7X c #D2D2CF",
"8X c #D2D2D1",
/* pixels */
"<X,X,X1X,X,X,X1X,X,X:X:X:X,X:X:X:X:X:X*X:X:X*X:X*X*X:X*X*X*X*X*X*X*X*X*X-X&X;X&X&X&X&X&X&X&X&X&X&X&X&X&X&X/.&X&X/.&X/.&X/././.&X",
"<X1X1X,X,X,X-X1X:X,X:X,X,X-X:X,X:X:X:X:X:X*X:X:X:X*X:X*X*X:X:X*X*X*X*X*X&X&X&X&X*X&X&X*X&X&X&X&X&X&X&X&X&X/.&X/.&X/.&X/.&X/././.",
",X1X1X1X,X,X,X,X,X,X:X,X,X:X:X:X:X:X:X:X:X*X:X*X:X:X*X:X*X*X:X*X*X:X*X*X:X&X:X&X&X*X*X&X&X&X&X&X&X&X&X&X&X$X&X&X&X&X/./././.&X/.",
"1X1X1X,X1X,X,X,X,X,X,X:X,X:X,X:X:X:X:X:X:X:X:X:X*X*X:X*X:X*X*X*X*X*X*X*X&X&X;X&X*X*X&X&X*X&X*X&X&X&X&X&X&X&X&X&X&X/.&X&X&X&X/.&X",
"1X,X1X,X1X,X1X,X,X,X:X,X:X,X:X,X,X:X:X:X:X:X:X*X:X:X*X:X*X:X:X*X*X&X&X:X&X*X*X&X&X&X&X&X*X&X&X&X&X&X&X&X&X&X&X&X&X/./.&X&X/./.&X",
"1X1X1X1X1X1X,X,X,X,X,X:X,X:X:X:X:X:X:X:X:X:X:X:X:X*X:X*X*X*X*X&X:X:X*X&X:X&X&X:X;X&X;X&X&X&X*X&X&X&X&X&X&X&X&X&X&X&X&X&X/.&X&X/.",
"1X1X<X1X,X,X,X,X,X,X,X,X,X,X,X:X:X:X:X:X:X:X*X:X:X:X*X:X:X*X*X:X*X*X:X&X*X*X*X&X&X&X&X;X*X&X&X*X&X&X&X&X&X&X&X&X&X&X&X/.&X&X&X/.",
"1X<X<X,X1X1X1X,X,X,X,X,X:X:X,X,X,X:X:X:X:X:X:X:X:X*X:X*X*X:X:X&X*X:X&X:X*X&X:X*X;X&X&X&X-X*X*X&X&X&X&X&X&X&X&X&X&X&X&X&X/./.&X&X",
"1X1X1X1X,X1X,X1X,X,X,X,X,X,X,X:X,X:X:X:X:X:X:X:X*X:X:X*X:X*X*X;X*X*X*X*X*X*X*X*X*X*X*X&X*X*X&X&X*X&X&X*X&X&X&X&X&X&X&X/.&X/.&X&X",
"1X1X1X,X1X1X1X,X,X,X,X,X,X,X,X:X:X:X,X:X:X:X:X*X:X:X:X:X:X:X*X*X*X:X*X*X&X:X*X*X*X&X*X*X&X*X&X*X&X*X&X&X&X&X*X&X&X&X&X&X&X&X&X/.",
"1X1X1X1X1X-X1X,X,X,X,X,X:X,X,X:X:X:X:X:X:X:X:X:X:X*X:X*X*X*X:X*X*X*X*X*X*X*X&X&X*X&X&X*X&X*X*X&X*X&X&X&X*X&X&X&X&X&X&X&X&X&X&X/.",
"1X1X1X1X1X1X,X,X,X,X,X,X,X,X,X:X,X:X:X,X;X:X:X;X:X:X:X:X*X:X*X*X:X*X;X*X*X&X:X:X*X*X*X*X*X*X*X*X*X&X*X&X&X*X&X*X&X&X&X&X&X&X&X&X",
"1X1X1X1X1X:X1X,X:X,X,X,X,X,X-X,X,X:X:X:X*X,X,X*X:X:X*X:X;X*X*X:X*X*X*X:X&X&X&X&X*X&X-X&X&X;X*X&X&X*X&X*X&X&X&X&X&X&X&X&X&X/.&X&X",
",X1X1X1X1X1X,X1X,X,X,X,X,X:X:X:X:X,X:X:X,X,X*X,X*X:X*X:X;X*X*X*X*X*X*X*X&X:X:X&X*X*X*X*X&X&X*X*X*X&X*X&X&X&X&X&X&X&X&X&X&X&X&X/.",
"1X1X1X1X1X,X1X,X,X,X,X:X:X,X,X:X,X-X*X,X*X*X*X*X*X*X*X:X(.*X;X;X-X&X:X&X*X&X&X&X*X*X*X*X;X&X&X&X&X*X*X&X&X;X&X&X&X&X&X&X&X&X&X&X",
"<X1X1X1X,X1X,X,X1X:X,X,X,X,X,X:X,X*X,X,X*X,X1X*X*X~.W./.~.~.E.R.~.&X&X/.&X,X:X&X&X*X*X&X&X&X;X&X*X&X*X*X&X&X&X&X&X&X&X&X&X&X&X/.",
"1X<X1X1X,X1X,X,X,X,X:X,X:X,X,X;X:X:X;X;X*X/.b.3.` C C C <.b.s.s.<.,.Z Z ` u.R.>X*X*X*X*X&X*X&X*X&X&X&X*X-X&X&X&X;X&X&X&X&X&X&X&X",
"<X1X<X<X<X,X,X,X,X,X,X:X:X:X:X:X:X;X*XL.3.N a u 6 = = = 5 l Z V v u 6 & + # 5 O.~.*X&X*X*X&X*X&X&X*X*X&X&X*X&X&X&X&X&X&X&X&X&X&X",
"1X1X,X,X,X<X,X,X,X,X,X:X,X:X:X;X:X&Xn.C v l b a i i q 5 = = 6 i u ; * & @ * # @ i A.=X*X&X*X*X&X*X&X&X&X&X&X*X&X&X&X&X&X&X&X&X&X",
",X<X<X1X<X,X,X,X,X,X:X,X:X:X:X:X:Xn.M h b a & * # = 4 5 5 5 8 = O * @ @ # @ # 4 # 5 D.*X&X&X&X*X&X&X&X*X&X&X*X&X&X&X&X&X&X&X&X&X",
",X1X1X,X,X,X,X,X,X,X;X,X:X:X;X;X~.) b b 6 X O & o @ + + * # = ; & * * & 4 @ X X = = 9 ~.*X*X&X&X&X&X&X&X&X*X&X*X&X&X&X&X/.&X&X/.",
"<X,X1X,X,X,X,X,X,X;X,X:X,X:X;X;Xs.x b 6 X = 4 X @ @ + = ; ; ; 6 = = * O o 4 5 O X & @ O.*X(.&X&X&X&X&X&X&X&X&X*X&X&X&X/.&X/./.&X",
"<X1X1X1X1X,X,X,X,X,X;X,X&Xz.!.~.B b a @ = q @ * 4 w c Y ! T L M n g u = O . # i + @ * 6 E.*X(.&X&X&X&X&X&X&X&X&X&X&X&X/.&X/././.",
",X1X1X1X,X1X,X,X,X;X,X,X/.' 5.V a b 5 @ i 6 = w T 8.m.k.k.q.q.8.9.&. .U g = . 5 6 @ & * O.*X(.&X&X&X&X*X&X&X&X&X&X&X&X&X/./.&X/.",
"<X,X<X1X1X,X,X,X:X:X:X,XE.<.m u l u # 4 u q w T q.M.N.N.M.y.t.y.e.8.7.| | J ; + u o * + v E.(.&X&X&X&X&X&X&X&X&X&X&X&X/./.$X/./.",
"1X1X,X,X,X,X,X,X,X:X;X;X!.C v i 7 & @ 5 p q c 8.t.V.Z.M.M.y.t.t.t.8.8.&.| E c < u o O * = 5.~.*X&X&X&X&X&X&X&X&X&X&X&X/.~./././.",
"<X1X<X,X,X,X,X:X;X;XU.!.d.v 9 8 4 @ & i p h  .r.N.N.N.M.y.y.t.t.t.8.7.7. .[ P d u + X O O m ~.~.&X&X&X&X&X/.&X&X&X&X/./././././.",
"1X<X,X1X1X,X,X,X,X,XK.,.B l a 7 7 @ 5 p p T &.k.N.'.'.].M.y.y.t.e.8.7.7.{ [ ! j < O o o O 6 K.~.&X&X&X/.&X&X&X/.&X&X/./.~./././.",
"1X,X1X,X,X,X,X~.Y.Y.b.,.b x i i 4 @ 7 p h T q.[.}.'.'.Z.M.y.y.t.e.8.8.&.{ W W J > O O o O = G./.&X&X&X&X&X/./.&X/././././././.~.",
"<X<X<X,X,X,X;X6.} ,.` E b a a = 4 7 i x c #.h.g.q.m.m.k.t.e.e.e.e.e.e.7.o.[ T J > + + o O * ` /././././.&X/.&X/.&X/./././.~././.",
"<X1X,X1X,X,X,X;Xn.6.1.,.E N m a 7 z b M M ' ! I h p g D ^ %.-.&.&.{ T J n n H L < * * . o * z Y.&X/.&X/.&X/./.&X/.&X/./././.~./.",
"<X1X1X,X,X,X,X,X;X/.H.n.n.s.C x p b _ _ 4.B.m.=.[ c k J T [ &.{ K j > : : : - 0 8 = * * 5 8 <././././.&X/.&X/./.&X/././.~./.!./.",
"<X<X<X<X;X<X<X>X>X;X/.!.n.a.1.Y b Y 2.x.F.#.c p + + 0 , I k.M.&.H 1 2 > w f S g : = * * 5.A.(.(.^./././.&X/./.&X/.&X/./.~.~././.",
"<X<X<X<X<X;X<X>X>X>X;X>X;X_.C.7.) 1.Z.'.h...( ~ e q r w ..[.`.8.S $ $ .   o : j n p = z d.!.(.^.(.(./.(././.&X/.&X/./././././.~.",
",X,X<X;X<X;X<X;X>X>X;X;X;X;X$.e.1.w..XOX}.'.`.r.-.%.&.k.'.V.l.%.K d r 1 - < - 1 J ) = i.>X^./.^./././././.&X/.&X/.&X/.~./.~./.~.",
",X,X<X;X<X;X;X;X;X;X;X;X,X~.*.e.#.C.XXoXoX|.'.].y.l.`.V.V.V.l.-.P P W K H H H H L _ q c z././.^./.^.(././././././.&X/./././././.",
"<X,X,X;X<X<X;X;X;X;X;X;X;X+X8.G q.XXXXXX@XoX|.'.].y.y.`.[.{.l.=.W K W &.%.| W W [ _ j 3 F R.K.R.R.!./././././.&X/.(./././././.~.",
"<X,X<X,X>X>X;X;X>X>X;X;X;X(.N.&.m.P.XX@X@XoX|.`.y.e.j.l.0.=.=.! P W W &.&.&.&.|  .! k F F A.A.A.G.J.L.R.~././.&X/./././.~./.~./.",
"<X<X,X,X>X;X;X;X;X;X;X;X;X;XOXU.F.P.XXXXoX}.'.m.8.l.`.;.^ ( ..A , S K %.&.| | | @.! 3 A ^ A.f.A.d.A.A.J.L.~././.(.(./././.~././.",
"<X<X,X,X>X>X>X;X;X;X;X;X;X;X*X~.F.P.XXXXXXP.M.*.r.`.`.V.l.-.R F S S K W | [ W | @.F A F 4.A.A.A.n.G.n.G.J.J.E.~././.$X/././././.",
"<X,X,X,X,X:X:X;X;X;X;X;X;X;X>XJ.! m.U.XXP.P.8.-.B.[.V.l.k.:.:.{ K P K P E E W } E P U T A.A.A.A.A.A.n.G.H.H.J.T.~./././././././.",
"<X<X2X,X<X<X,X:X;X<X;X;X;X;X;X).A./.U.XXP.'.&.{ ..#.;.:.#./ ^ F K K K H P P E } E J ( c.A.A.A.A.G.n.G.n.H.H.J.H.K.Y.~./.~./.~./.",
",X2X,X,X<X;X,X;X>X;X;X;X;X;X_.;X3X=XU.OXP.F.q.7.k.j.;.:.$.R A 3 t r , S P E E _ ] 1.b.A.A.A.A.A.G.A.n.J.H.H.H.H.K.K.I.W.~./././.",
"2X,X2X2X<X<X<X,X>X>X>X;X;X;X;X_._.=XW.P.}.P.B.t.F.{.[.l.>.$./ G F k f f P E E 1.A.J.A.A.A.A.A.A.A.G.H.H.H.H.H.K.K.H.K.K.Y.~.~./.",
"<X<X<X<X<X<X<X;X>X>X>X;X;X;X;X=X;X>X%XU.P.P.P.N.F.[.F.j.%.^ U K K P P K P E _ a.K.A.A.A.A.A.A.S.G.G.G.G.H.J.H.H.K.H.T.K.K.L.!.~.",
"<X<X<X<X<X;X;X<X>X>X<X;X;X=X=X=X;X>X%XU.P.P.U.OX.X XF.k.;.{ U K P P P E E E ] J.A.A.A.A.J.A.A.A.G.G.H.J.K.J.K.H.K.H.H.H.H.T.E.~.",
"<X6X<X<X<X<X<X<X<X>X>X>X>X>X;X=X>X;X%XXXP.C.P.OX.XXX}.V.r.-.&.{ W W E E } E 6.J.A.A.J.J.A.A.A.J.H.H.J.K.K.L.K.K.K.K.H.H.H.K.K.E.",
"<X<X<X<X<X<X<X<X<X<X<X>X>X>X>X>X;X;X%XXXT.P.B.C.T.}.F.k.8.=.o. .[ [ E } E _ d.J.J.A.A.A.A.J.K.A.H.H.H.K.L.K.K.K.H.K.J.H.T.H.K.K.",
"6X<X6X<X<X<X6X6X6X>X>X>X>X>X>X>X3X:X%XoXXXP.B.w.x.B.x.9.o.[ T T E E L E E _ A.J.A.A.A.A.A.K.K.A.J.H.H.L.L.H.K.J.H.H.K.K.K.H.n.H.",
"6X6X<X6X6X<X6X>X6X>X6X>X6X>X>X6X~.$X%XXXXXP.T.B.w.2.9.@.' ! Y L Y L L L E } G.J.J.R.A.R.R.A.J.A.G.H.H.H.K.K.L.J.K.H.H.H.D.H.H.H.",
"6X6X6X6X6X<X<X<X6X6X>X>X4X>X6X>XH..X%X%XXXP.P.P.B.4.X.} _ Y L L N L E E E E a.J.J.A.A.S.A.A.A.R.H.K.L.J.J.K.H.K.H.K.D.H.D.n.n.H.",
"6X6X6X6X6X<X6X<X>X6X6X6X>X^.6X6X$X%XoXoXXXP.XXOXP.B.7. .E T P P E E E E E E +.u.i.A.J.K.K.K.A.R.H.H.H.H.H.J.K.K.K.H.n.H.H.H.H.n.",
"6X6X6X6X6X6X<X4X>X3X>X>X>X_._.8X/. X@XXX X}.F.P.P.F.m.#.X.W E _ E E E E } ) 5.5.+.p.s.A.A.L.J.A.H.K.K.S.K.K.K.H.H.S.H.n.n.H.n.H.",
"6X6X6X<X>X;X/.;X_._.=X3X3X_.^.5X3XD.P.XXXXP.F.D.D.C.C.q...[ E E E E E E Y +.p.<.p.p.p.p.u.s.A.S.K.H.S.H.A.J.S.S.n.G.n.S.H.n.n.n.",
"6X<X>X(././.~.~.^._.>X5X4X_.R._.3X3XD.B.T.P.F.C.B.B.x.9.} _ E Y L L n M +.p.5.,.3.u.p.5.<.<.p.i.b.A.K.K.S.S.S.S.n.G.n.S.n.n.n.n.",
"6X<X&X/.!.~./././._.>X3X>X;X_.^._.3X>XE.v.x.g.j.q.2.X.T J j h n M Y ` <.<.<.+.+.5.u.u.5.<.<.@.<.p.i.d.c.A.A.A.A.n.n.n.n.n.n.n.n.",
"6X;X(.~.~.!.!././.&X;X>X>X/.(.&X/.=X=X3X=X).E.D.v.z.u.@.] @.+.] ,.<.1.,.,.+.3.3.5.i.i.5.<.+.3.3.5.u.i.s.A.A.S.A.S.n.b.n.n.z.z.n.",
"6X<X(.~.!.~.!.~./.;X;X;X;X/./.&X=X)._._._.=X_._._.Q.Q.E.I.K.S.i.,.,.,.,.3.3.3.5.p.i.u.5.3.3.3.+.p.b.J.E.L.L.E.E.L.H.A.b.z.b.z.z.",
"5X>X(.!.!.Y.!./.&X&X;X;X;X/././.*X>X=X=X=X_._.)._.^.Q.E.E.R.E.K.a.5.3.6.u.u.i.u.u.a.i.5.5.6.+.3.c.R.E.E.E.E.R.E.E.E.E.K.n.z.z.z.",
"<X>X~.J.!.!.R.~.(.*X;X;X;X&X/.&X*X*X=X,X3X3X3X=X_._.)./.~.W.E.E.!.n.a.3.3.f.i.u.i.a.i.u.u.6.i.S.E.~.~.E.^.^.R.R.E.^.!.E.L.G.b.z.",
">X_.!.J.!.~.~./.(.&X;X;X(.&X/./.&X&X=X3X3X3X=X=X_._.&X*X/.~.E.Y.A.S.K.S.E.).R.S.b.s.s.s.c.c.K.E.E./.E.R.^.).Q.R.E.^.^.L.G.J.H.z.",
"5X_.!.J.!././.(.&X;X&X&X&X/./.~.&X=X-X,X3X3X,X=X_./.).Q.E.H.A.c.A.E.*X=X=X).E.R.H.S.A.G.K.Y.E.E.Q./.E.Y.^._.).R.^.).R.d.a.A.J.A.",
"7X;XR.J.~././.&X;X&X;X;X;X/././.&X&X=X=X3X3X,X&XW.E.I.S.A.A.b.K.~.).=X=X=X).W.I.K.J.L.R.E.E.E.~././.L.L.^.).).).)._.A.5.s.L.K.K.",
"8X>XE.G.~./.(.&X;X(.&X;X&X/././.&X&X&X=X3X3X=XR.S.S.S.b.A.D.K.~.).3X3X=X*X).E.K.K.K.K.E.E.E.E.~.~.~.L.E.R.).)._.).Q.s.p.A.L.L.A."
};
