/* XPM */
static char *sheldon2_resized[] = {
/* columns rows colors chars-per-pixel */
"64 64 226 2 ",
"   c #13171C",
".  c #141A1D",
"X  c #1A1D1C",
"o  c #101415",
"O  c #161C22",
"+  c #1B1E22",
"@  c #261C24",
"#  c #1C2225",
"$  c #1D2329",
"%  c #1E2A35",
"&  c #242424",
"*  c #22252C",
"=  c #25292D",
"-  c #2A2C2D",
";  c #2C2429",
":  c #33332D",
">  c #242B33",
",  c #2B2D33",
"<  c #242934",
"1  c #352B37",
"2  c #2B323A",
"3  c #343435",
"4  c #33353A",
"5  c #35393C",
"6  c #3C3D3C",
"7  c #3A3737",
"8  c #312E2E",
"9  c #1E201E",
"0  c #433C3D",
"q  c #492A39",
"w  c #3C433E",
"e  c #43433E",
"r  c #2B3743",
"t  c #3B3D41",
"y  c #363B45",
"u  c #443E42",
"i  c #483B45",
"p  c #5B3446",
"a  c #573747",
"s  c #562E41",
"d  c #643B4D",
"f  c #66394B",
"g  c #6A3E51",
"h  c #653C50",
"j  c #723E53",
"k  c #682E46",
"l  c #3A4248",
"z  c #374651",
"x  c #444343",
"c  c #4A4643",
"v  c #4C4A45",
"b  c #42454B",
"n  c #4C4C4B",
"m  c #48464C",
"M  c #534C46",
"N  c #534D4A",
"B  c #584849",
"V  c #55514C",
"C  c #5A534B",
"Z  c #5C554A",
"A  c #484D54",
"S  c #574954",
"D  c #4E5257",
"F  c #545553",
"G  c #5B5552",
"H  c #5C5954",
"J  c #565A5B",
"K  c #5C5B5B",
"L  c #575658",
"P  c #4D524B",
"I  c #68404F",
"U  c #6B4254",
"Y  c #664857",
"T  c #734B5D",
"R  c #75475A",
"E  c #625B54",
"W  c #635C5A",
"Q  c #635956",
"!  c #61574C",
"~  c #5D605D",
"^  c #65625D",
"/  c #6B645C",
"(  c #6D695C",
")  c #696256",
"_  c #726A5D",
"`  c #73655B",
"'  c #5C5D63",
"]  c #585A64",
"[  c #4A5764",
"{  c #645C62",
"}  c #785568",
"|  c #7E5C73",
" . c #5D6163",
".. c #59626A",
"X. c #5A6271",
"o. c #646463",
"O. c #6A6562",
"+. c #6C6A64",
"@. c #6D6D6B",
"#. c #656869",
"$. c #736D63",
"%. c #726E6A",
"&. c #776766",
"*. c #6E716B",
"=. c #747064",
"-. c #74726C",
";. c #7A746C",
":. c #7D7A6E",
">. c #797265",
",. c #656B74",
"<. c #796772",
"1. c #6C7377",
"2. c #757573",
"3. c #797671",
"4. c #747A73",
"5. c #7C7A74",
"6. c #7D7E79",
"7. c #73787B",
"8. c #85566C",
"9. c #865D73",
"0. c #864E68",
"q. c #817B6E",
"w. c #82766C",
"e. c #856C7B",
"r. c #827D73",
"t. c #827E7A",
"y. c #867877",
"u. c #94657E",
"i. c #7E827C",
"p. c #848174",
"a. c #82837D",
"s. c #89857B",
"d. c #8C8678",
"f. c #948C7D",
"g. c #938779",
"h. c #787C83",
"j. c #6F7781",
"k. c #9A6E84",
"l. c #7E8587",
"z. c #838682",
"x. c #848A85",
"c. c #8A8C86",
"v. c #868B8A",
"b. c #8A8D8A",
"n. c #858588",
"m. c #968C85",
"M. c #8C928C",
"N. c #8B9189",
"B. c #9D9485",
"V. c #93938D",
"C. c #9E9B8B",
"Z. c #989388",
"A. c #8B8D91",
"S. c #8D9392",
"D. c #8B9693",
"F. c #919691",
"G. c #959C95",
"H. c #9C9C95",
"J. c #999F98",
"K. c #96989A",
"L. c #968E96",
"P. c #A29C8C",
"I. c #A09589",
"U. c #A59B98",
"Y. c #96A099",
"T. c #9BA19B",
"R. c #9FA193",
"E. c #A3A49B",
"W. c #ACAA9C",
"Q. c #A6A495",
"!. c #B0AB9E",
"~. c #979EA3",
"^. c #9BA5A7",
"/. c #A3A5A2",
"(. c #ACABA3",
"). c #ABADAB",
"_. c #A6A8A6",
"`. c #B2ACA6",
"'. c #ADB1AA",
"]. c #B4B2A4",
"[. c #B5B4AD",
"{. c #BABAAD",
"}. c #A9BCBE",
"|. c #A9B2B3",
" X c #B3B5B2",
".X c #BBB6B3",
"XX c #B5BAB4",
"oX c #BABDB5",
"OX c #BCBDBA",
"+X c #B5BCBC",
"@X c #AAADB1",
"#X c #C4BCBA",
"$X c #C0BAB6",
"%X c #BDC1BB",
"&X c #BCC2B7",
"*X c #AFC0BA",
"=X c #C5C4BA",
"-X c #C7C6BC",
";X c #AABDC0",
":X c #B2BFC3",
">X c #ADC0C2",
",X c #AFC1C8",
"<X c #B6C4C4",
"1X c #C2C4C3",
"2X c #CACCC5",
"3X c #CBCDCC",
"4X c #C7C8C6",
"5X c #CDD1CB",
"6X c #CCD0C6",
"7X c #D3D4CD",
"8X c #D5D8CB",
"9X c #D2D4D1",
"0X c #D5DBD4",
"qX c #DADBD5",
"wX c #DCDEDA",
"eX c #D7D8D6",
"rX c #CECECD",
"tX c #DDE2DC",
"yX c #E1E2DC",
"uX c #DBDDE0",
"iX c #DEE1E2",
"pX c #E2E6E1",
"aX c #E5EAE4",
"sX c #E8EBE9",
"dX c #EDF1EB",
"fX c #F4F6F2",
/* pixels */
"v.l.v.l.Y.i.l.N.l.D.N.N.l.v.v.v.v.b.v.A.v.b.v.v.b.b.v.v.n.b.v.v.b.v.A.v.v.v.v.A.@X4X1X<X'.x.D.}.<X,X,X;X;X;X;X}.;X}.}.}.}.}.}.}.",
"l.v.N.l.l.i.Y.l.N.N.N.l.D.x.v.N.b.v.b.v.b.v.A.v.v.v.v.v.v.v.b.v.A.n.v.b.b.v.b._.1X4X-X%X&X_.l.D.}.<X,X,X;X;X}.}.;X;X}.}.}.}.}.}.",
"l.l.l.l.l.Y.l.l.N.D.M.M.S.S.N.v.v.A.A.v.A.v.b.b.v.v.A.v.A.v.v.v.b.v.A.v.b.n.~.:X1X1XOX XXX&XG.l.D.|.>X;X}.;X;X;X}.}.}.}.}.}.}.}.",
"l.l.D.l.l.i.Y.l.l.i.i.~ #.l.D.N.v.b.v.b.v.b.v.v.v.b.v.b.b.v.b.A.v.b.v.b.v.c.).1X:XOXOX X(.XXoXN.l.v.^.;X;X}.}.;X}.}.}.}.}.}.}.}.",
"D.i.N.l.N.i.i.f.z.-.W { o.#.*.b.A.b.b.v.v.v.v.b.A.v.b.A.v.v.v.b.b.n.v.b.b.b. X1X1X1X$X.X`.(.&XT.l.v.l.^.:X;X}.}.}.}.}.;X}.}.}.;X",
"f.D.l.N.i.N.D.l.4.^ ^ W W  .o.4.b.A.v.b.v.b.b.v.v.b.b.v.b.v.v.b.v.v.A.v.n.J.1X4X3X1X$X.X[.`.OX'.l.b.v.l.^.;X}.}.}.}.}.;X;X}.}.;X",
"l.l.D.l.l.N.i.i.*.o.o.W Q K K o.6.A.b.b.D.b.v.b.b.v.v.b.v.v.A.v.b.b.v.b.n._.4X3X3X1X.X.X.X XoXoXN.x.v.v.l.Y.}.;X}.}.;X;X;X;X;X;X",
"l.l.i.N.N.i.N.i.*.+.o.W W ' K K o.b.K.A.A.b.b.v.A.v.v.v.v.b.v.b.v.A.b.b.A.@X3XrX3XOX.X.XOX#XOXXXF.x.v.n.l.l.D.}.}.}.;X;X;X;X;X;X",
"i.D.i.Y.l.f.N.l.2.+.O.^ W W W W W 2.V.b.b.b.N.b.b.v.b.v.b.v.b.v.b.b.c.b.F. X3X7XrX#X$X$X#X2X#X+XF.l.x.c.x.x.n.D.}.}.;X;X;X>X>X>X",
"l.l.l.l.l.l.i.i.*.+.+.^ W W W Q W o.c.H.v.c.x.c.v.b.v.A.v.A.v.b.A.v.c.v.F.XX7XqXqX2X#X$X#X#XOXOXF.v.N.x.x.v.v.v.l.^.;X;X;X>X>X>X",
"D.i.i.i.l.i.i.i.*.+.+.O.O.W Q H W W 5.H.M.c.c.c.b.b.b.v.b.v.b.A.b.b.b.x.F.XX9XqXeX#X$X$X#X1XOX<XK.v.v.c.v.z.v.v.l.~.}.;X>X>X>X>X",
"D.i.Y.l.l.l.N.i.#.^ #.O.O.W { Q H ^ -.z.J.M.c.b.c.v.v.b.A.v.b.N.A.N.N.c.G.oXqXqX2X$X`.`..X#X X9X^.l.c.x.c.c.n.v.l.l.l.|.>X,X>X,X",
"i.l.l.N.l.i.N.i.O.O.O.O.{ O.` W Q W @.-.N.G.x.x.x.b.v.b.v.b.v.N.N.b.x.x.'.6XwXwX#XU.U.U.`.$X_.5X).z.c.c.x.x.b.v.v.v.v.l.^.*X*X<X",
"Y.i.N.l.N.a.i.i.+.{ O.&.` { } W G W O.@.i.F.N.c.N.v.v.b.b.b.x.N.N.N.N.x.T.&X3X0XrXU.L.U.`.U.H.6X(.x.c.x.c.x.x.v.v.b.v.v.v.^.*X>X",
"D.i.i.l.x.l.x.a.*.K { O.W W W G G Q +.+.4.F.F.c.b.b.N.v.b.b.x.N.b.N.N.a.S.|.oX2XrX$XI.I.L.m.m.4XXXx.x.c.v.c.v.v.v.b.v.b.D.l.Y.*X",
"l.D.i.D.x.x.a.x.2.H Q Q Q Q Q G C H +.^ ^ a.G.c.l.l.v.v.N.x.x.x.v.N.^. X&X5X0X6XrXrX`.k.k.y.k.T.'.M.x.x.x.c.v.b.v.v.b.N.N.l.l.Y.",
"N.i.Y.i.i.l.i.Y.4.K V G C G Y G G G o.^ ^ N.<X2X*X'.M.F.N.F.G.C.C.G.R.&X5X0XtXpXqX9XXXV.s.e.y.b.G.F.c.c.x.c.c.x.b.x.v.v.v.v.v.b.",
"l.f.l.i.i.i.i.i.5.K V N C S G G G Q W W 2.G.&XtXtXaX8X-X&X&X(.W.C.Z.R.W.*X6X0XtXaXaX9X/.6.2.m.t.a.H.c.c.c.c.c.c.x.c.b.v.v.v.v.b.",
"l.i.D.l.Y.i.i.i.i.~ V v N C N V G W W +.a.V.Y.'.&X-X6X-X].].R.C.C.m.C.].&X6X8X0XtXyXsXpX[.%.y.z.6.T.M.c.c.c.x.n.c.x.b.v.v.b.v.b.",
"Y.i.f.i.i.i.i.Y.6.V c c c c c M G O.o.%.a.x.N.Y.W.&X-X=X!.].C.d.I.f.f.C.!.&X8X8XqXtXtXaXfX#X3.5.V./.G.c.c.c.c.c.c.c.x.b.v.v.v.v.",
"N.N.N.N.i.i.D.i.6.v 7 0 e w P e V ^ -.5.5.a.s.C.R.W.&X-X=X].P.f.d.I.f.f.C.&X-X8X0XtXtXtXsXfX-XC.V._.J.b.b.c.c.c.c.c.c.b.b.b.b.c.",
"N.N.i.i.D.i.N.i.l.n 7 6 w e e e L @.4.5.5.p.d.N.C.R.&X-X!.W.Q.f.g.f.P.I.f.C.&X8X8X8XyXyXyXsXfXyX/./.H.c.c.c.c.c.c.c.c.c.b.b.c.b.",
"D.N.i.N.N.i.i.N.i.F 3 6 e e P H *.5.5.5.:.i.p.s.f.Q.=X=X!.Q.W.I.f.f.I.P.P.R.!.=X8XqXtXtXyXyXsXfXtXOXH.c.c.c.c.c.c.c.c.c.b.m.c.b.",
"Y.N.N.N.N.N.i.N.i.L x x e P F ( 4.5.4.4.4.:.:.p.f.f.!.$X!.!.W.P.f.f.f.P.Q.].{.{.=X8X8XqXyXwXyXaXdX-XV.c.c.c.c.c.c.c.c.c.b.c.c.c.",
"Y.N.N.N.i.i.i.i.i.i.w w e H *.i.5.:.-.-.-.;.;.:.s.Z.R.(.].W.Q.P.P.f.d.p.f.W.].&X$X-X6XqXyXyXwXyXdXtXV.x.c.c.c.c.c.c.c.c.c.c.c.m.",
"Y.N.N.N.Y.l.l.Y.i.i.P w Z =.i.p.:.;.>.>.=.=.-.:.i.d.Z.E.].W.P.C.I.f.d.w.p.f.W.!.).[.{.=X2XqXtXiXpXdXE.x.v.c.c.c.n.c.c.c.c.c.c.b.",
"Y.N.D.N.Y.i.Y.i.i.i.i.P ) p.p.p.;.=.=.=.=.$.-.:.i.f.F.W.].].Q.I.f.q.q.w.5.c.C.(.(.U.E.E.(.OX9XtXpXdX Xi.x.N.c.c.c.c.c.c.b.c.c.b.",
"Y.Y.Y.N.l.Y.i.l.i.i.i.) _ p.p.i.=.( _ $.=.-.-.:.i.a.N.W.=X].Q.B.g.w.w.w.;.s.V.V.V.Z.c.z.c.A. XpXpXdX9XM.x.x.b.c.c.c.c.c.c.c.c.c.",
"Y.Y.i.Y.Y.i.i.i.i.i.i.i.i.i.i.) ( ( ( =.=.i.-.-.( =.c.(.[.{.W.I.g.w._ ` $.5.c.V.L.s.+.' J A J D.9XdXdXT.z.b.c.c.c.c.b.c.c.c.c.c.",
"Y.Y.R.Y.i.Y.Y.i.N.l.l.i.i.p.i.( ( ) ( =.=.=.=.=.*.o.i.R.W.].(.m.w.` ) E E =.r.z.b.%.D m y z D z D.iXsXT.x.M.c.c.c.c.c.c.c.c.c.c.",
"Y.Y.R.Y.Y.i.Y.Y.i.i.i.i.d.p._ ) ( ( ( =.=.^ ^ ~ ~ o.+.z.R.W.Q.f.w.` Z e M E %.3.-.o.F b l A ~.^.~.uXaXT.x.c.c.c.b.m.m.c.c.c.c.c.",
"Y.R.Y.Y.R.Y.i.i.Y.i.N.f.d.i.i.) ) ( =.+.H w 5 w l P J -.c.H.P.m.w.` Z B C N H o.o.o.J l l z X.,.K.wXdX).x.M.c.c.c.c.c.c.c.c.m.c.",
"Y.Y.Y.Y.Y.F.D.N.x.x.z.c.s.q._ ( ( / E M 3 * * * < 3 x H 4.s.Z.Z.w.` C e Z Q ^ O.{ O.J y 4 y z ..~.uXfX1Xv.b.c.c.c.b.c.c.c.c.c.c.",
"R.Y.R.Y.Y.G.D.N.v.c.z.s.a.r.$.+.) Z 6 - , > 1 r y > , l K *.p.s.w.` G N N C K -.m.y.L F A A ] 1.@XpXfXuXF.b.b.c.m.c.c.c.c.m.c.c.",
"Y.Y.R.Y.Y.Y.G.N.N.v.c.z.s.r.$.&.) V 6 - * < < 2 b 2 = 4 P *.i.+.$.+.o.#.+.o.o.O.;.Z.b.{ #.,.,.n.<XsXsXsX_.v.c.b.b.c.c.c.c.c.N.c.",
"Y.G.G.Y.Y.Y.Y.M.D.D.c.z.c.s.;.&.( H v - * * $ < , > > 6 o.3.+.~ E K J J ..,.@.%.3.%.H.H.#.7.n.^.9XiXaXsX+Xb.b.c.b.c.V.c.V.c.c.c.",
"R.Y.Y.H.Y.Y.Y.G.D.D.N.s.s.y.q.;./ ) H 5 * * * * < * > D @.+.J n w w z l y A #.#.%.6.w.U./.n.K. X9XeXuXdX3XA.b.V.m.b.c.M.c.c.c.c.",
"G.G.Y.G.Y.G.G.G.D.M.V.z.5.q.3.;.=.) ) V 8 * * * > , 7 F ~ F m 6 2 > r z r r ..7.A ,.c.t.R._.J. X3XeXuXiX<XA.b.M.b.M.c.m.c.m.N.c.",
"G.G.H.G.Y.G.Y.H.G.F.M.p.%.3.;.;.-.$.^ W c , , , 4 4 v J V v 4 , % % % r r r r j.] D t.V.a.H. XXX:X<XuXsX9XA.A.b.M.c.c.M.m.N.N.c.",
"N.G.G.G.G.H.G.G.G.G.c.@.$.w.;.;.>.$./ / G v x x e c V C N u 3 > % > % r z y r [ ,.D #.z.H.i.G.4X4X3XeXeX:XF.b.m.c.V.c.m.c.N.N.c.",
"i.D.G.G.G.Y.G.Y.G.G.V.-.+.;.;.;.$._ W Q G V M e e M C N i 6 3 * * % % 2 r y r z j.j.j.j././.2.b. X:X+X@XK.b.S.c.b.V.c.c.b.c.N.c.",
"4.x.G.G.G.Y.G.G.R.F.i.=.%.-.;.3.-.&.O.^ ! S M e M M G V u u l 2 % % % % r y z [ j.[ h.h.A./._.v.L._._.J.F.A.b.c.c.c.m.b.V.c.m.c.",
"4.i.N.G.G.G.G.Y.G.4.n O.3.3.3.-.+.^ W H G N Z C M N H G S m l y r < 2 r r r y [ [ j.j.h.h.b.~.}.@X@X^.S.b.b.b.m.V.c.V.V.b.c.M.c.",
"4.4.i.F.G.Y.G.G.G.F v t.3.3.+.H F H W W W Q C M M G V c c t t 6 < < 1 y y y r y S ] j.j.j.v.K.^. X@XS.v.A.b.b.b.b.c.c.b.V.V.c.c.",
"i.*.4.x.G.Y.G.G.c.P +.a.-.-./ 7 : e F G J G N M B C c e x 0 c a Y k.9.} } } } Y y S j.j.j.,.l.~.|.^.l.v.b.v.b.c.b.V.V.b.c.c.b.c.",
"i.i.4.i.M.G.F.M.6.C 5.s.=.( / : & & w n v M M M N N e 0 c I I g T k.k.8.8.8.0.k.j.i S j.j.h.D.~._.n.1.n.v.b.b.b.c.c.c.b.c.V.m.c.",
"*.i.4.4.x.F.N.a.%.{ d.p.>.+.^ w 9 - 5 x D N M v v c 0 M U R j j U 9.9.0.} 9.9.0.k.k.a [ ,.h.A.~.K.#.2.v.n.b.b.c.c.c.m.M.c.V.b.c.",
"i.*.:.4.i.x.s.a.%.;.s.p.>.( +.Z & 9 - 4 x N v c u u B I U g U U g T } R } 0.| 9.0.k.j.h ,.j.k.D.,.D h.v.b.b.b.c.c.b.c.b.c.c.b.c.",
"*.4.4.4.s.s.p.r.O.;.s.;.>._ ^ O.w + # $ , x v m c u B g d d d d d U } T T T R T R 0.k.o.,.l.S.7.t ..x.v.b.v.b.c.c.c.b.c.c.b.c.c.",
"i.*.4.i.p.s.s.5.G %.r.>.>.$.) / F $ O O O , i m i i I j k p a p p p U Y T R R U g j e.e.1.j.#.4 l 6.v.x.x.c.x.c.c.c.c.c.c.c.c.c.",
":.:.:.p.s.s.y.;.N $.5.$.>._ E / / 7 + # # O + 1 i i B g f p p p p p I T T T g a k k 9.<.t 4 5 t #.n.z.z.x.c.x.c.c.c.c.c.c.c.c.c.",
"5.;.i.p.s.s.g.;.0 ^ ;._ _ >.E ! ) G ; X # O O O + t I h f p s p p p g R T T Y a a q T } m b m ,.l.x.x.c.x.c.c.c.x.b.c.c.c.c.c.m.",
"5.:.p.s.r.r.t.3.7 v ;._ ` =.) Z ! ) V & . # O X O @ a U h d p s s f h g Y T } D <.e.} W F m { h.v.x.x.z.c.x.z.c.c.z.c.c.c.z.c.c.",
":.r.p.p.p.r.r.3.7 : $.=.` _ ) Z Z Z ^ F - . . O O @ s g d d p q q p h h g Y | k.L.L.} S x J h.v.n.n.z.x.x.x.x.c.z.c.z.c.c.z.c.z.",
":.q.d.p.p.r.r.5.w 9 H =._ ` ) Z Z ! Z ~ K w & X O + q g Y a q @ i a a a a h S Y <.,.S m F 1.z.n.n.n.z.x.x.x.x.s.c.s.c.z.z.c.s.c.",
":.r.p.p.p.r.r.5.e X : / =.` ! Z Z Z H Z Z ~ v 4 @ + @ q a 1 @ + 8 m y 1 1 1 1 y A { L m ' 7.a.z.a.z.z.x.a.x.z.c.c.z.z.s.c.z.z.z.",
"q.p.p.p.q.5.5.5.P # X 7 ( ( ) Z ! ! ! Z H H V V c 4 ; @ ; & # # * = * * * * * 5 l b m D #.6.a.a.s.a.a.x.x.a.z.z.z.z.z.z.c.z.c.s.",
"q.q.q.:.:.5.r.5.K & X X v ( ! Z e Z Z ! H H C C N N b 4 ; ; - 4 , ; * * * * > > > 2 t K <.2.5.a.a.a.i.x.i.x.a.z.t.s.a.z.a.a.t.z.",
"p.q.q.q.q.p.p.:.+.: X . 9 e ) Z Z Z Z Z Z Z H G F C C G 6 $ $ = * * * * * 2 2 4 y A x J @.-.5.i.i.a.a.i.x.a.a.a.z.z.a.z.z.a.z.a.",
"p.q.q.q.i.p.r.4.*.x X . X X P E M C C M M Z G G G C G F J m 5 5 2 , , , 5 t l A J l = P *.-.*.5.a.a.a.l.i.i.a.a.a.t.t.a.t.t.z.a.",
"q.q.q.p.p.i.p.:.*.~ & . X . . w F C C M N M V G G E G L L J J J J P b n F D J ..l & , ~ *.=.@.2.i.a.a.i.i.i.i.a.6.a.i.a.a.a.a.a.",
"q.p.p.p.p.p.:.>.*.+.x . . O . . : V V M M N B V Q G H H F J L K  .o.#. . .o.#.F $ X w ~ +.+.+.-.i.i.a.i.i.i.i.i.a.a.6.t.t.6.6.6.",
"q.q.r.p.p.:.5.>.=.+.^ : . O       & v N M v v M G H H G G F L K ~  .o.o.o.K F 4 . > n ~ +.+.+.+.5.p.i.i.i.i.i.i.6.i.i.6.6.6.6.6.",
"q.q.q.d.p.i.:.>.=.( ^ F # .       o & x v c v v N G H H H H K J J ~ o.o. .L e # # 5 D ~ ^ +.+.+.2.p.i.i.6.i.7.6.i.6.6.6.6.6.6.6."
};
