/* XPM */
static char *sheldon_resized[] = {
/* columns rows colors chars-per-pixel */
"64 64 222 2 ",
"   c #0D1115",
".  c #1C1D1C",
"X  c #14181A",
"o  c #16130F",
"O  c #2F251E",
"+  c #1A1D22",
"@  c #1D2123",
"#  c #1A242D",
"$  c #16232C",
"%  c #192532",
"&  c #242525",
"*  c #2B2A25",
"=  c #2A2A2B",
"-  c #252629",
";  c #312A23",
":  c #322D2C",
">  c #332724",
",  c #3C352B",
"<  c #3A3429",
"1  c #262C33",
"2  c #2B3237",
"3  c #3A3632",
"4  c #3D3A35",
"5  c #3C3C3B",
"6  c #353637",
"7  c #342B30",
"8  c #261E26",
"9  c #423A2D",
"0  c #4A372C",
"q  c #443D34",
"w  c #423E3B",
"e  c #483935",
"r  c #4C382B",
"t  c #3E403E",
"y  c #4A4334",
"u  c #43413D",
"i  c #4C453C",
"p  c #4E483C",
"a  c #474035",
"s  c #55483D",
"d  c #614F3F",
"f  c #62503F",
"g  c #373D43",
"h  c #553746",
"j  c #483641",
"k  c #623A4C",
"l  c #39444A",
"z  c #3D4450",
"x  c #454342",
"c  c #4B4542",
"v  c #4E4942",
"b  c #45494C",
"n  c #4D4C4A",
"m  c #474648",
"M  c #534C44",
"N  c #524E4A",
"B  c #514544",
"V  c #565046",
"C  c #595246",
"Z  c #55514B",
"A  c #5B544C",
"S  c #5E584D",
"D  c #554E56",
"F  c #545452",
"G  c #5B5653",
"H  c #5D5A54",
"J  c #5C5C5A",
"K  c #565A59",
"L  c #495054",
"P  c #635B4E",
"I  c #68564A",
"U  c #664454",
"Y  c #625C54",
"T  c #625D5A",
"R  c #685954",
"E  c #5F615B",
"W  c #6A6354",
"Q  c #64625B",
"!  c #6B645C",
"~  c #6C695E",
"^  c #656157",
"/  c #736A5D",
"(  c #7B6B5D",
")  c #746459",
"_  c #565E68",
"`  c #755869",
"'  c #6F5062",
"]  c #656562",
"[  c #6A6662",
"{  c #676964",
"}  c #6C6A65",
"|  c #6D6E69",
" . c #64676B",
".. c #736C64",
"X. c #7C6E62",
"o. c #716E69",
"O. c #78646F",
"+. c #6D716B",
"@. c #767064",
"#. c #7D7164",
"$. c #73726D",
"%. c #7B746B",
"&. c #7E786D",
"*. c #64757A",
"=. c #757671",
"-. c #797672",
";. c #767974",
":. c #7A7A75",
">. c #7D7E79",
",. c #747B7A",
"<. c #676C71",
"1. c #845B6D",
"2. c #837364",
"3. c #897665",
"4. c #877865",
"5. c #887966",
"6. c #867768",
"7. c #85796B",
"8. c #8B7C6B",
"9. c #88776A",
"0. c #917F6D",
"q. c #827D73",
"w. c #8F7F70",
"e. c #817D7B",
"r. c #867568",
"t. c #80715E",
"y. c #7D827C",
"u. c #78817C",
"i. c #8E806D",
"p. c #91816E",
"a. c #8D8272",
"s. c #82837E",
"d. c #858379",
"f. c #928372",
"g. c #978A7A",
"h. c #677980",
"j. c #6B7C84",
"k. c #7B7E85",
"l. c #758386",
"z. c #74848A",
"x. c #7A878A",
"c. c #7B8A8D",
"v. c #7B8586",
"b. c #7D8C90",
"n. c #848681",
"m. c #898582",
"M. c #858984",
"N. c #8A8B86",
"B. c #868B8A",
"V. c #8A8D8B",
"C. c #81878A",
"Z. c #958D84",
"A. c #8C918E",
"S. c #84908C",
"D. c #93928C",
"F. c #9A998D",
"G. c #868F92",
"H. c #8C9491",
"J. c #8A9698",
"K. c #919693",
"L. c #949B95",
"P. c #999E9B",
"I. c #959B98",
"U. c #A49D96",
"Y. c #9CA39C",
"T. c #96A19D",
"R. c #A5A49B",
"E. c #8F9DA0",
"W. c #979DA3",
"Q. c #94A2A4",
"!. c #9CA4A2",
"~. c #9BAAAD",
"^. c #9BA7A7",
"/. c #9FADB0",
"(. c #9FB0B2",
"). c #A1A7A4",
"_. c #A2ABA4",
"`. c #A3ACAB",
"'. c #AAAEA8",
"]. c #AAB2AC",
"[. c #A7B1AB",
"{. c #B5B6AC",
"}. c #A3AFB1",
"|. c #A3B3B5",
" X c #AAB6B2",
".X c #A5B6B8",
"XX c #A7B9BB",
"oX c #AABBBD",
"OX c #AAB7B8",
"+X c #B5BAB8",
"@X c #C0BBB8",
"#X c #BBC1BB",
"$X c #C2C5BB",
"%X c #ADBEC1",
"&X c #B0BEC1",
"*X c #AEC0C3",
"=X c #B2C3C5",
"-X c #B5C6C9",
";X c #B6C8CB",
":X c #BACBCD",
">X c #BAC6C7",
",X c #BCCFD1",
"<X c #BFD1D4",
"1X c #C6C8C6",
"2X c #C1CED2",
"3X c #C2D3D5",
"4X c #C4D6D9",
"5X c #C6D9DC",
"6X c #CADBDD",
"7X c #C8D6D9",
"8X c #D9DBD6",
"9X c #D0D3CC",
"0X c #DEE1DB",
"qX c #CCDEE1",
"wX c #D1DFE2",
"eX c #CEE0E4",
"rX c #D2E2E4",
"tX c #D0E3E9",
"yX c #D5E9EF",
"uX c #D3E8F0",
"iX c #E8EBE7",
"pX c #ECF2EC",
/* pixels */
"% % % $ l u.b.#X#X~.T.S.J.S.L.S.V.H.H.G.A.H.B.B.B.B.B.B.c.Q.+X+X*X;X<XtXuXtXtX<X-X%X(.(.(.~.~.Q.E.b.b.b.b.b.b.c.z.l.h.h.h.*.*.h.",
"% % $ $ $ *.u._.#X#X_.E.H.S.S.H.H.A.H.H.H.V.H.V.B.B.B.B.B.C.Q.&X*X;X<XeXtXtXtXqX,X%XXX.X|.(.(.(.~.E.J.z.z.c.b.b.z.z.z.h.h.h.h.*.",
"% % % % $ l l.u..X#X~.T.L.H.S.L.V.G.V.H.H.H.V.V.B.B.B.M.B.C.c.I.=X<X<XeXtXtXtXqX,X*X%X.X.X(..X(.(.(.~.E.b.z.z.c.b.b.c.z.j.h.h.h.",
"% # $ # $ l u.u.J.#X[.^.L.J.H.S.H.B.B.H.V.H.G.V.A.B.B.c.M.B.B.c.J.;X5XeXeXeXqX5X,X*X%X.X%X.X.X.X.X.X.X~.Q.J.b.z.c.c.b.b.z.z.h.h.",
"# # $ # # 2 <.u.u._.#X[.T.S.H.H.S.B.V.H.B.H.H.V.A.B.B.B.M.B.B.B.C.G.;XqX5X5X5X5X<X;X%X%XXX.X.X.X.X.X(..X(.~.E.b.l.x.c.b.b.b.z.z.",
"1 1 1 1 2 2 E y.u.c.(.#X[.T.H.S.A.B.B.B.B.H.B.S.A.S.B.B.M.B.M.B.V.C.G.,XuXeXeX5X<X;X%X%XXXXXXXXX.X%X%X.X.X(.(.Q.J.c.l.c.c.c.z.z.",
"5 5 5 5 6 t m u.y.u.Y.[.[.Y.L.H.S.V.B.B.V.G.A.A.A.B.S.B.B.B.B.v.B.V.B.C.-XuX5X5X<X;X%X%XXXXXXXXX%X.X%XXX%X.X.X(.~.E.b.x.z.z.z.b.",
"x x 5 u u t t { c.v.y.[.[.[.T.H.A.B.B.B.B.B.B.V.V.A.G.V.B.B.B.B.B.B.B.G.z.%XtX5X,X;X*X%X%XXXXXXX.X%X.X%X%XXXXXXX|.(.^.E.b.z.z.b.",
"n v m v n v p F y.s.y.L.#X[._.H.A.B.B.B.B.B.B.S.V.G.V.V.V.B.B.B.B.V.B.V.G.k.&XqX,X:X&X&XoXXXXXXXXXXXXX%X%X%X%XXX#X|.(.~.Q.b.z.x.",
"Z Z Z n n n n n +.S.s.y.L.[.[.T.H.A.B.B.S.B.B.B.B.V.V.B.B.B.V.B.B.B.B.B.m.G.k.W.,X&X&X&XoXoXoXXX%XXX%X%X%X%X%X%X#X.XXX.X/.Q.I.b.",
"K F Z Z F F Z Z E y.s.y.y._._._.I.H.V.B.B.B.B.B.V.B.G.V.B.V.B.V.V.B.B.V.m.C.'.}.W.-X&X&XoXoXoXoX%XXX%X%X%X%X*X*XXXoXXXXXXX}.~.W.",
"Q Q E S K E F E S +.S.s.y.L._._.Y.J.A.B.B.B.B.M.C.V.n.V.G.B.V.G.V.B.B.V.C.I.1X@X).J.%X&XoX%XoXoX*X*X*X*X*X*X*X%XoXoX*XXXOXXX|./.",
"{ { { E E E E E S ^ y.S.y.s.[._._.P.A.B.B.B.M.C.V.>.T  .n.V.B.V.G.C.V.V.C.'.1X{.+XA.G.|.&XoX%X%X%X*X*X*X&X=X=X*X&X&X&X&X%X.X|.}.",
"=.=.+.{ { ~ { Q E S u.s.S.y.A._.).).L.B.B.B.B.M.C.:.T Y Q N.V.B.V.V.V.B.V.>X9X&X+XR.s.G.}.&X&X&X*X*X*X-X-X-X=X;X;X:X&X&X%X&X&XOX",
"y.y.u.=.+.+.+.{ E E ^ y.L.y.y.Y._.).Y.H.V.B.B.C.C.-.[ T G >.K.N.V.B.G.B.V.1X9X@X1XR.C.N.V.}.&X&X-X-X;X;X;X,X;X;X;X;X&X&X&X&X&X&X",
"s.s.y.u.=.u.$.+.+.~ ^ u.S.y.y.d.Y.!.Y.L.H.V.C.C.V.o.[ [ T [ A.M.B.V.V.N.D.9X@XU.+X{.n.N.B.B.`.>X*X-X;X,X,X,X,X,X,X,X:X,X:X&X&X&X",
"s.M.s.s.y.&.;.+.| } [ ] n.V.M.y.L.Y.Y.Y.T.S.N.M.B.=.T R G T >.L.M.M.N.D.R.1X1XF.Z.'.M.M.B.N.C.).;X:X:X,X<X3X3X<X3X,X,X,X,X:X;X:X",
"s.M.M.M.y.u.;.=.=.o.| Q $.V.N.s.s.Y.Y.R.Y.A.B.M.M.:.N D G H u.1X$X'.R.F.{.8X0X{.%.N.A.N.B.V.N.m.^.:X,X,X3X3X4X4X4X4X3X3X3X,X2X:X",
"u.s.s.s.y.:.u.=.=.| } [ ! d.A.M.y.A.Y.Y.!.L.B.M.M.;.x x N  .s.F.#X$XF.g.U.$X8XpX@XH.L.m.N.N.N.V.M.!.,X3X3X7X4X4X5X6X7X3X7X3X3X2X",
"~ y.s.y.:.u.&.=.=.| o.o.Q $.N.M.y.y.T.Y.Y.Y.A.M.B.;.w x T :.:.d.R.{.U.Z.F.{.9X0XpX8XK.N.N.N.V.V.V.N.Y.2X4X4X6X4X6X6X6X6X4X7X7X3X",
"S :.y.y.y.>.;.;.=.| o.o.! ^ e.N.s.y.s.Y.Y.Y.K.N.N.y.n T d.%.$.%.F.'.R.g.d.'.@X9X8XpXR.n.N.N.N.N.V.Z.V.P.2X6XqXqX6X6X6X6X6X7X7X7X",
"p | y.:.:.d.:.-.-.o.o.o.[ T o.M.M.y.y.A.Y.Y.T.H.S.M.$.:.%.[ @.%.d.{.R.i.o.D.F.s.K.0X#Xv.V.N.N.V.V.V.D.V.I.2XqXqX6XqX6X6X6X6X6X6X",
"y Y s.>.e.y.>.-.-.%.o.o...! T >.M.y.u.y.L.Y.Y.L.A.s.s.7.~ | $.] +.R.R./ P O.,.b b ^.9Xn.D.N.N.V.Z.D.A.D.V.I.1XwXqXrX6X6X6X6X6X6X",
"a M :.>.>.-.-.-.$.o.o.} } [ Y ! s.s.y.>.s.Y.L.Y.L.S.M.y.W E 5 2 t @.Z./ B J o.b z W.8XN.N.N.N.N.V.V.Z.A.D.V.K.>XrX6XeXwXqXqXqX6X",
"a a ~ :.-.>.-.-.o.$.o.o.[ [ ! G ;.s.y.u.u.D.Y.T.T.S.d.d...u @ 2 1 n =.E _ ] >.>. .+XpXP.m.V.N.N.N.V.D.D.D.D.D.H.+XrXwXwXwXwXwXrX",
"y a S -.-.e.e.-.-.o.o.o.o.[ ! P W y.s.y.;.y.T.F.T.F.d.y.@.^ 2 - 2 E n 2 g K } N.U.1XiX`.m.D.D.N.V.V.V.Z.V.V.D.A.V.OXrXwXrXrXrXtX",
"p p V | -.-.-.-.$.%.o.o.[ [ ! R S @.s.y.:.;.S.Y.T.Y.s.@.$.} Z u n N = % g z _ k.I.'.1XW.N.D.N.N.Z.N.V.V.N.V.Z.V.A.N.].wXrXwXrXrX",
"p p y ^ $.=.%.o.o.o.o.o...[ ! T Y ^ y.v.y.;.u.L.T.K.{ :.o.Q G n Z n 5 1 1 g _ k.K.).P.N.V.N.D.N.N.N.N.N.N.N.N.N.N.V.C.!.wXrXwXrX",
"y y y M ..@.o.o.o.o.o.o.[ [ ! Y S S | y.y.;.=.y.Y.&.} %.5 c G n L b h ' ' ' D <.k.`.C.V.N.N.D.N.N.N.N.N.N.N.N.N.N.N.N.n.W.6XrXwX",
"a y a y Y } o.o.o.[ [ o...! T R S A S :.:.u.;.>.M.=.:.@.t # m n j U k ' ` 1.1. .G.,.;.V.N.N.N.N.N.N.N.N.n.N.n.N.N.N.N.N.n.K.7XrX",
"9 9 9 < N | } o.o.[ [ } [ [ T Y A A M Q y.:.>.:.d...#...T & @ g h U h h U U k O.K L M.N.V.N.N.N.N.N.m.n.m.n.n.N.N.n.m.M.N.s.K.2X",
"< 9 < < a [ [ } [ [ [ } [ [ T R Z Z M V $.q.&.d.d.S ~ / Y M .   6 U h h ' ' ` U b v.N.M.M.N.n.N.N.m.N.n.n.n.n.M.m.n.n.m.m.m.m.G.",
"9 < , 9 3 H Q Q Q ] Q ] [ [ T R G C M c ^ &.:.d.d.v v @.C T n = 8 h 7 j j j <.D =.B.n.M.M.M.m.M.m.M.s.s.n.s.e.s.n.n.n.n.m.m.m.n.",
"9 < 9 , < n Q Q T Q Q ^ Q ! ! T Y A C M Z $.7.&.d.K + S P Z H G j 1 @ # @ - g K :.s.n.n.M.s.n.s.n.s.s.s.s.y.n.s.s.s.s.n.s.n.m.m.",
"< 9 , , : q T H T Q Q Q Q ^ W Y Y A C M Y &.&.q.d.+.@ @ Z A Z Z Y D m g g L g b $.>.n.s.s.d.s.s.s.s.s.d.>.d.e.e.y.s.n.s.s.n.m.m.",
"< O ; O O * Z H T T T T H T Y Y Y A C V ~ &.7.d.y.@.m   . u Z Z G J J ] } K - L o.=.y.d.u.y.>.y.>.>.>.>.>.>.>.e.e.s.s.s.s.s.m.m.",
"O O * ; < 4 Z E H H T H H H A Y G I N A @.@.d.d.#.| ~ 6     = 5 n K K K J 1 2 J ~ | y.:.u.>.>.>.>.>.>.>.:.:.>.k.y.>.>.n.s.e.m.m.",
"p V A S H ^ ^ E Q H H Y Y A C Z V Z P ../ ) #.&.@.Q E Q t +     @ t n b - # b n ^ { -.u.:.;.:.;.;.:.:.;.:.:.>.>.>.>.s.s.s.m.s.s.",
"Q ^ Q Q Q Q ^ ^ Y ^ Y P Y A C M M M / 2.W W %.@.! T S H J n = X     + X @ l b n F E =.>.;.;.;.=.=.;.=.=.;.=.,.,.>.>.>.s.s.s.s.m.",
"! ^ Q ^ ^ ^ ^ T Y Y Y Y Y G C M i V @.@.W W @...Y H Z S Z F Z u = + # 2 m t 6 i n G $.;.$.$.+.+.$.$.=.$.+.=.;.;.-.>.d.s.s.s.M.m.",
"Q Q ! Q H H ^ S G Y Y Y A A M M i W 7.~ P P @.W Y H F F N N n c x l n F m 2 t v n K u.@.+.+.+.+.+.+.+.+.+.+.$.=.:.>.>.d.s.n.m.m.",
"Q Q Y Y ^ H S E Y Y Y P A A Z M M :.2.W W W W P M G Y N v v v n x x n Z 6 - m n n +.u.+.+.| | | +.+.{ } | +.$.=.=.>.>.y.s.n.m.m.",
"W Y Y Y Y H H S Y Y G A A C A s W q...P S Y ^ C M A A N n n M v u t t < * * 5 v Q :.%.@.o.o...o.{ { } { [ } | +.=.:.>.>.e.m.m.m.",
"Y Y Y Y W Y H S Y A A A A A N B ! X./ V y C S V c N c u c c c u u p v v S W ) @.%.%.#.#.#.X.X.X.X.} { ] ] { { | $.=.:.>.s.n.m.m.",
"Y P Y Y Y P A Y P A C A A C M M W ! P C 3 : p M 6 4 4 q p C I W / ( X.2.2.2.2.2.#.&.#.&.#.#.X.X.X.X...] ] ] { } +.$.=.:.e.n.n.m.",
"Y Y Y Y S H G A A P A A C M M s C P P V q . o 4 i M W / t.t.4.4.2.2.2.2.t.X.X.2.2.#.2.#.2.#.#.#.X.X.t...Q ] { { | +.$.$.>.s.n.m.",
"Y P Y Y P Y P C A A C V N M M V M p M q 3 4 V ..7.i.5.4.4.t.4.t.4.2.2.2.2.2.X.2.2.#.#.&.#.2.&.X.t.X.t.X.X.! ] } | | $.$.=.>.n.n.",
"Y P Y Y G Y A Z N A C Z M M M s V 9 , a @.a.a.a.i.5.4.4.4.4.t.4.4.2.4.2.4.2.2.#.&.2.2.2.2.#.2.2.2.t.t.t.2.( } { } }  .| $.;.d.s.",
"G P P Y P S C C N Z V V s p p v s 9 < %.g.q.8.a.q.8.5.4.5.5.4.4.2.2.5.5.6.5.9.2.2.r.7.7.r.#.r.2.2.2.t.1.t.t.X.O.] [ }  .| $.;.d.",
"G A P A S S C Z M M M M s p p i M Z 9 7.w.w.a.w.8.8.5.5.5.5.3.4.5.6.5.5.5.9.2.2.r.2.7.7.7.7.r.7.2.2.2.#.2.2.t.2.o.[ { } } | +.:.",
"P A A A S C C V s v M M s B i Z J N i ..g.w.d.a.i.i.i.5.3.3.3.3.5.5.9.5.5.5.9.5.9.9.7.7.7.7.9.9.9.2.2.2.t.2.2.t.X.[ [ [ { } | =.",
"A A C A S C V V i i M i c i n J N u c ! g.a.f.w.i.i.8.5.3.3.3.5.5.5.9.9.9.9.9.5.7.9.9.q.9.9.7.9.9.2.2.2.2.t.2.2.t.X.[ T ] } } | ",
"C A A C C N M p i M M i s c G F v u x R a.g.g.a.i.i.i.8.8.3.5.5.5.5.8.9.8.8.8.8.8.8.8.9.8.8.7.8.9.9.5.5.2.2.2.2.2.t.X.^ E ] } } ",
"Z N C C M M M s B i v M i v K D c l c P / g.a.f.i.i.i.i.8.0.5.0.5.9.5.8.3.8.8.8.8.q.8.8.8.8.8.9.5.5.9.9.9.2.2.2.2.2.2./ ] ] } o.",
"V M C V M M M B p i i v i v A N m x x p s g.g.g.i.i.i.i.i.8.5.i.0.3.8.8.8.8.8.8.8.8.w.9.9.7.w.9.7.8.9.9.9.5.2.2.2.2.t.2.[ Q  .o.",
"M V M N M Z M i i i i s c B N m x m u ; . ~ g.f.i.i.i.i.i.i.i.i.0.0.0.8.8.8.8.8.9.9.w.w.8.w.9.8.7.8.8.9.9.9.5.5.6.2.2.2...Q } o.",
"M M M M M M M c i i i p p p B i x x t 6 * 4 f.g.g.p.p.p.p.p.p.p.0.8.0.5.i.i.5.i.0.0.w.8.w.8.w.9.8.9.8.9.8.8.9.9.2.6.2.3.X.E } | ",
"v s v M M M i i i i u i p p i w t j 5 5 6 : I g.f.p.p.p.p.p.p.p.i.i.i.i.0.5.i.i.0.0.w.w.w.w.w.w.w.w.w.w.8.9.0.9.7.9.2.( R J  .| ",
"v p v M M M i i u y e u u i c q 3 3 4 4 3 3 e ( g.f.p.p.p.p.p.p.0.p.i.p.i.0.i.0.w.w.f.w.w.w.w.w.w.w.w.w.8.w.0.0.8.2.) Y J T ] | ",
"c v s B M i i i i u i q q i N 5 : = 7 7 : , r y 3.g.p.p.p.p.p.p.p.p.p.p.p.p.p.p.w.w.w.w.f.f.f.w.w.w.w.f.w.8.3.) R I G J H T [ } ",
"v v p M v M i i i a w q q 4 4 u 3 7 = & O O r 0 d 3.p.p.f.f.f.f.f.f.p.f.p.f.p.p.f.w.f.w.w.f.f.f.w.w.w.#.( I s d C R J K K T [ } ",
"v p p v i M i i i u q a e : = 5 7 : = & . O r r r d f.g.f.f.f.f.f.f.f.f.f.p.p.p.w.f.g.f.g.g.w.r.X.) R A A e r d I R G J H T [ } ",
"v v v s M i p p i y a q a : . 3 3 = = & & ; r r r O d 0.g.f.f.f.f.f.f.f.f.f.f.f.f.w.9.2.X.R I P ^ H N F G i r f I I J G T T ] [ ",
"p v i p p p p p i i q a w , . - 3 = = & & ; r r r O O y t.f.f.f.f.f.p.p.i.4.t.( R I e e 7 0 e Q $.[ G F Y s r I I R J G J T ] } "
};
